<svg xmlns="http://www.w3.org/2000/svg" xmlns:xlink="http://www.w3.org/1999/xlink" width="250" height="157.401" viewBox="0 0 250 157.401">
  <defs>
    <clipPath id="clip-path">
      <rect id="SVGID" width="180.459" height="130.719" transform="translate(298.271 182.576)" fill="none"/>
    </clipPath>
  </defs>
  <g id="Group_212" data-name="Group 212" transform="translate(-255.015 -156.599)">
    <g id="Group_150" data-name="Group 150">
      <g id="Group_138" data-name="Group 138">
        <g id="Group_128" data-name="Group 128">
          <g id="Group_127" data-name="Group 127">
            <line id="Line_3" data-name="Line 3" x2="196.214" transform="translate(280.197 205.076)" fill="none" stroke="#ded8d5" stroke-miterlimit="10" stroke-width="0.773"/>
            <rect id="Rectangle_1581" data-name="Rectangle 1581" width="196.214" height="121.4" rx="2.562" transform="translate(280.197 192.213)" fill="none" stroke="#ded8d5" stroke-miterlimit="10" stroke-width="0.773"/>
            <g id="Group_126" data-name="Group 126">
              <path id="Path_2036" data-name="Path 2036" d="M293.128,198.776a1.794,1.794,0,1,1-1.794-1.795A1.794,1.794,0,0,1,293.128,198.776Z" fill="#ffb1a5"/>
              <path id="Path_2037" data-name="Path 2037" d="M300.1,198.776a1.795,1.795,0,1,1-1.8-1.795A1.795,1.795,0,0,1,300.1,198.776Z" fill="#ffe000"/>
              <path id="Path_2038" data-name="Path 2038" d="M307.079,198.776a1.795,1.795,0,1,1-1.8-1.795A1.794,1.794,0,0,1,307.079,198.776Z" fill="#6214f7"/>
            </g>
          </g>
        </g>
        <g id="Group_134" data-name="Group 134">
          <g id="Group_133" data-name="Group 133">
            <g id="Group_131" data-name="Group 131">
              <g id="Group_130" data-name="Group 130">
                <g id="Group_129" data-name="Group 129">
                  <rect id="Rectangle_1582" data-name="Rectangle 1582" width="28.7" height="24.375" rx="2.366" transform="translate(493.269 236.08) rotate(180)" fill="#c13fd8"/>
                </g>
              </g>
            </g>
            <g id="Group_132" data-name="Group 132">
              <path id="Path_2039" data-name="Path 2039" d="M485.466,227.945H472.222v-8.882h13.245v8.882Z" fill="none" stroke="#fff" stroke-linecap="round" stroke-linejoin="round" stroke-width="0.647"/>
              <path id="Path_2040" data-name="Path 2040" d="M472.222,219.063l6.622,5.219,6.622-5.219" fill="none" stroke="#fff" stroke-linecap="round" stroke-linejoin="round" stroke-width="0.647"/>
            </g>
          </g>
        </g>
        <g id="Group_137" data-name="Group 137">
          <g id="Group_136" data-name="Group 136">
            <rect id="Rectangle_1583" data-name="Rectangle 1583" width="28.026" height="27.245" rx="2.609" transform="translate(262.852 248.614)" fill="#ffb1a5"/>
            <g id="Group_135" data-name="Group 135">
              <path id="Path_2041" data-name="Path 2041" d="M271.433,256.888a7.924,7.924,0,1,0,11.206,0A7.955,7.955,0,0,0,271.433,256.888Zm11.188,1.141H280.1a16.173,16.173,0,0,0-.982-2.38A7.158,7.158,0,0,1,282.621,258.029Zm-8.495,4a12.768,12.768,0,0,1,.376-3.073h5.068a12.82,12.82,0,0,1,.376,3.073Zm5.789.926a15.087,15.087,0,0,1-.545,3.072H274.7a15.085,15.085,0,0,1-.545-3.072Zm-2.879-7.612a7.231,7.231,0,0,1,1.119.087,14.533,14.533,0,0,1,1.149,2.6h-4.536a14.527,14.527,0,0,1,1.148-2.6A7.254,7.254,0,0,1,277.036,255.342Zm-2.078.307a16.17,16.17,0,0,0-.982,2.38h-2.525A7.154,7.154,0,0,1,274.958,255.649Zm-4.137,3.306h2.893a13.731,13.731,0,0,0-.4,3.073H269.9A7.113,7.113,0,0,1,270.821,258.955Zm0,7.071a7.1,7.1,0,0,1-.918-3.072h3.42a14.938,14.938,0,0,0,.482,3.072Zm.63.927h2.628a19.226,19.226,0,0,0,.976,2.408A7.154,7.154,0,0,1,271.451,266.953Zm5.585,2.687a7.245,7.245,0,0,1-.937-.061,21.627,21.627,0,0,1-1.108-2.626h4.09a21.627,21.627,0,0,1-1.108,2.626A7.245,7.245,0,0,1,277.036,269.64Zm1.98-.279a19.088,19.088,0,0,0,.977-2.408h2.628A7.152,7.152,0,0,1,279.016,269.361Zm4.234-3.335h-2.983a14.936,14.936,0,0,0,.482-3.072h3.42A7.092,7.092,0,0,1,283.25,266.026Zm.919-4h-3.406a13.731,13.731,0,0,0-.4-3.073h2.892A7.1,7.1,0,0,1,284.169,262.028Z" fill="#fff"/>
            </g>
          </g>
        </g>
      </g>
      <g id="Group_149" data-name="Group 149">
        <path id="Path_2042" data-name="Path 2042" d="M296.347,181.011H256.505a1.491,1.491,0,0,1-1.49-1.491h0a1.49,1.49,0,0,1,1.49-1.49h39.842a1.491,1.491,0,0,1,1.491,1.49h0A1.492,1.492,0,0,1,296.347,181.011Z" fill="#c13fd8"/>
        <path id="Path_2043" data-name="Path 2043" d="M503.525,278.332H484.187a1.491,1.491,0,0,1-1.49-1.491h0a1.49,1.49,0,0,1,1.49-1.49h19.338a1.49,1.49,0,0,1,1.49,1.49h0A1.491,1.491,0,0,1,503.525,278.332Z" fill="#56dfed"/>
        <rect id="Rectangle_1584" data-name="Rectangle 1584" width="4.612" height="4.467" rx="1.124" transform="translate(486.494 291.105)" fill="#c13fd8"/>
        <rect id="Rectangle_1585" data-name="Rectangle 1585" width="4.612" height="4.467" rx="1.124" transform="translate(262.508 301.43)" fill="#ffb1a5"/>
        <g id="Group_141" data-name="Group 141">
          <g id="Group_140" data-name="Group 140">
            <rect id="Rectangle_1586" data-name="Rectangle 1586" width="41.692" height="11.968" rx="1.183" transform="translate(406.34 167.503)" fill="#ffb1a5"/>
            <g id="Group_139" data-name="Group 139">
              <line id="Line_4" data-name="Line 4" x2="27.968" transform="translate(412.019 171.767)" fill="none" stroke="#fff" stroke-miterlimit="10" stroke-width="0.464"/>
              <line id="Line_5" data-name="Line 5" x2="11.392" transform="translate(412.019 174.638)" fill="none" stroke="#fff" stroke-miterlimit="10" stroke-width="0.464"/>
            </g>
          </g>
          <path id="Path_2044" data-name="Path 2044" d="M410.881,178.117v4.664l5.866-4.664Z" fill="#ffb1a5"/>
        </g>
        <g id="Group_148" data-name="Group 148">
          <g id="Group_146" data-name="Group 146">
            <g id="Group_145" data-name="Group 145">
              <g id="Group_144" data-name="Group 144">
                <g id="Group_143" data-name="Group 143">
                  <g id="Group_142" data-name="Group 142">
                    <path id="Rectangle_1587" data-name="Rectangle 1587" d="M2.538,0H22.384a2.538,2.538,0,0,1,2.538,2.538V21.046a2.538,2.538,0,0,1-2.538,2.538H3.348A3.348,3.348,0,0,1,0,20.236V2.538A2.538,2.538,0,0,1,2.538,0Z" transform="translate(327.847 156.599)" fill="#56dfed"/>
                  </g>
                </g>
              </g>
            </g>
          </g>
          <g id="Group_147" data-name="Group 147">
            <path id="Path_2045" data-name="Path 2045" d="M346.124,170.135l-1.419-1.419a1.243,1.243,0,0,0-.912-.431,1.31,1.31,0,0,0-.912.406l-.811.81-.152-.076a2.312,2.312,0,0,1-.254-.126,8.765,8.765,0,0,1-2.1-1.926,4.616,4.616,0,0,1-.659-1.039c.2-.178.38-.38.558-.558l.228-.228a1.237,1.237,0,0,0,0-1.875l-.71-.71a2.31,2.31,0,0,1-.228-.253l-.481-.481a1.314,1.314,0,0,0-.913-.406,1.256,1.256,0,0,0-.912.406l-.887.886a2.046,2.046,0,0,0-.583,1.242,4.6,4.6,0,0,0,.33,1.926,10.367,10.367,0,0,0,1.976,3.32,12.338,12.338,0,0,0,4.055,3.168,6.749,6.749,0,0,0,2.281.684h.177a2.01,2.01,0,0,0,1.52-.659l.026-.025a3.85,3.85,0,0,1,.456-.457l.329-.329A1.272,1.272,0,0,0,346.124,170.135Zm-.583,1.318-.3.3c-.177.152-.329.329-.506.507a1.209,1.209,0,0,1-.913.38h-.126a5.353,5.353,0,0,1-1.977-.608,11.535,11.535,0,0,1-3.776-2.965,11,11,0,0,1-1.85-3.067,3.139,3.139,0,0,1-.3-1.571,1.069,1.069,0,0,1,.355-.735l.861-.861a.533.533,0,0,1,.355-.178.482.482,0,0,1,.355.178l.456.456a2.338,2.338,0,0,0,.254.253l.709.71a.6.6,0,0,1,.178.355.53.53,0,0,1-.178.354l-.228.228-.633.634-.026.025a.556.556,0,0,0-.152.634v.025a5.881,5.881,0,0,0,.836,1.369,9.4,9.4,0,0,0,2.306,2.1,2.086,2.086,0,0,0,.33.177,2.374,2.374,0,0,1,.253.127l.026.025a.582.582,0,0,0,.709-.126l.887-.887a.417.417,0,0,1,.684,0l1.419,1.419A.479.479,0,0,1,345.541,171.453Z" fill="#fff"/>
          </g>
        </g>
      </g>
    </g>
    <g id="Group_211" data-name="Group 211">
      <g id="Group_210" data-name="Group 210" clip-path="url(#clip-path)">
        <g id="Group_209" data-name="Group 209">
          <g id="Group_171" data-name="Group 171">
            <g id="Group_151" data-name="Group 151">
              <path id="Path_2046" data-name="Path 2046" d="M433.039,269.477,418.7,267.568l.112,1.424-12.263,1.633s-7.9,19.83-.938,63.443h9.975l3.59-44.223h1.275l3.477,44.223H433.9C440.867,290.455,433.039,269.477,433.039,269.477Z" fill="#8e716c"/>
              <line id="Line_6" data-name="Line 6" x2="10.407" transform="translate(414.613 289.845)" fill="none" stroke="#282828" stroke-linecap="round" stroke-linejoin="round" stroke-width="0.485"/>
            </g>
            <g id="Group_160" data-name="Group 160">
              <g id="Group_157" data-name="Group 157">
                <g id="Group_153" data-name="Group 153">
                  <g id="Group_152" data-name="Group 152">
                    <path id="Path_2047" data-name="Path 2047" d="M441.415,248.558c-1.227-1.959-8.12-1.89-8.484-1.932-1.863-.219,1.2,14.609,5.071,27.57a4.353,4.353,0,0,0,5.866,2.767l.077-.033a4.358,4.358,0,0,0,2.584-4.822C444.685,262.328,442.834,250.822,441.415,248.558Z" fill="#ffb1a5"/>
                  </g>
                  <path id="Path_2048" data-name="Path 2048" d="M443.058,253.919l-8.8,3.415-.825-4.175,9.113-2.273Z" fill="#f3978e"/>
                  <path id="Path_2049" data-name="Path 2049" d="M444.72,262.272s-4.169,5.6-3.97,5.342,3.269-9.048,3.269-9.048Z" fill="#f3978e"/>
                </g>
                <g id="Group_156" data-name="Group 156">
                  <path id="Path_2050" data-name="Path 2050" d="M450.68,254.747l-11.949,15.482a4.395,4.395,0,0,0,1.086,6.371h0a4.395,4.395,0,0,0,6.255-1.592l9.947-18.351Z" fill="#ffb1a5"/>
                  <g id="Group_154" data-name="Group 154">
                    <path id="Path_2051" data-name="Path 2051" d="M453.773,258.723a4.929,4.929,0,1,1,6.206-3.175A4.93,4.93,0,0,1,453.773,258.723Z" fill="#ffb1a5"/>
                    <path id="Path_2052" data-name="Path 2052" d="M458.883,251.069s1.349-1.4-1.044-2.382-5.352-.756-7.241,3.83Z" fill="#ffb1a5"/>
                  </g>
                  <g id="Group_155" data-name="Group 155">
                    <path id="Path_2053" data-name="Path 2053" d="M461.362,241.285l5,2.169a.516.516,0,0,1,.226.737l-6.582,12.295a.629.629,0,0,1-.781.3l-5-2.169a.516.516,0,0,1-.226-.737l6.582-12.295A.628.628,0,0,1,461.362,241.285Z" fill="#372f5f"/>
                    <path id="Path_2054" data-name="Path 2054" d="M460.884,241.067l5,2.169a.516.516,0,0,1,.227.737l-6.583,12.295a.628.628,0,0,1-.781.3l-5-2.169a.516.516,0,0,1-.226-.737l6.582-12.295A.63.63,0,0,1,460.884,241.067Z" fill="#261b43"/>
                    <path id="Path_2055" data-name="Path 2055" d="M460.319,242.318l4.4,1.906-5.364,10.02-4.4-1.906Z" fill="#e6e6e6"/>
                    <path id="Path_2056" data-name="Path 2056" d="M464.716,244.224l-9.761,8.114,5.364-10.02Z" fill="#fff"/>
                  </g>
                  <path id="Path_2057" data-name="Path 2057" d="M456.4,248.279a7.958,7.958,0,0,1,2.119.787,1.131,1.131,0,0,1,.547,1.256h0a1.123,1.123,0,0,1-.949.844l-2.6.328s-1.357,2.339-3.13,2.6l1.627-4.107Z" fill="#ffb1a5"/>
                </g>
              </g>
              <g id="Group_159" data-name="Group 159">
                <g id="Group_158" data-name="Group 158">
                  <path id="Path_2058" data-name="Path 2058" d="M423.182,229.061c-.287,0,18.447,2.592,21.538,23.95L435,254.5l-1.96,16.124H405.921l-5.384-29.792A33.832,33.832,0,0,1,417.7,229.061Z" fill="#56dfed"/>
                  <line id="Line_7" data-name="Line 7" y1="9.326" x2="0.844" transform="translate(434.999 245.175)" fill="none" stroke="#282828" stroke-linecap="round" stroke-linejoin="round" stroke-width="0.485"/>
                </g>
              </g>
            </g>
            <g id="Group_170" data-name="Group 170">
              <path id="Path_2059" data-name="Path 2059" d="M424.963,229.366v-7.419h-8.694v7.506a16.865,16.865,0,0,0-2.336.948l6.781,4.039,6.932-4.04A11.337,11.337,0,0,0,424.963,229.366Z" fill="#ffb1a5"/>
              <path id="Path_2060" data-name="Path 2060" d="M416.188,222.854s1.562,4.146,5.73,3.788c3.83-.329,3.221-6.075,3.221-6.075Z" fill="#282828"/>
              <g id="Group_163" data-name="Group 163">
                <path id="Path_2061" data-name="Path 2061" d="M412.4,217.34c-1.363,1.236-4.41-3.452-3.093-4.768s2.321.748,2.321.748l.588,1.4.443,1.9.106.5Z" fill="#f3978e"/>
                <g id="Group_162" data-name="Group 162">
                  <g id="Group_161" data-name="Group 161">
                    <path id="Path_2062" data-name="Path 2062" d="M409.94,214.232s1.031-.464,1.948,1.032" fill="none" stroke="#282828" stroke-linecap="round" stroke-linejoin="round" stroke-width="0.39"/>
                  </g>
                </g>
              </g>
              <g id="Group_166" data-name="Group 166">
                <path id="Path_2063" data-name="Path 2063" d="M428.512,217.2c1.253,1.347,4.686-3.067,3.485-4.49s-2.376.55-2.376.55l-.7,1.344-.6,1.852-.147.485Z" fill="#f3978e"/>
                <g id="Group_165" data-name="Group 165">
                  <g id="Group_164" data-name="Group 164">
                    <path id="Path_2064" data-name="Path 2064" d="M431.223,214.309s-.989-.55-2.028.863" fill="none" stroke="#282828" stroke-linecap="round" stroke-linejoin="round" stroke-width="0.39"/>
                  </g>
                </g>
              </g>
              <g id="Group_167" data-name="Group 167">
                <path id="Path_2065" data-name="Path 2065" d="M410.007,208.1c0,6.206,4.731,9.149,10.568,9.149s10.568-2.943,10.568-9.149a10.569,10.569,0,0,0-21.136,0Z" fill="#282828"/>
              </g>
              <path id="Path_2066" data-name="Path 2066" d="M411.443,208.531a42.4,42.4,0,0,0,1.076,9.431,8.187,8.187,0,0,0,4.1,5.166l.381.234a7.2,7.2,0,0,0,7.321.081h0a8.224,8.224,0,0,0,4.342-5.515,62.124,62.124,0,0,0,.986-9.4s.845-9.617-8.972-9.431S411.443,208.531,411.443,208.531Z" fill="#ffb1a5"/>
              <g id="Group_169" data-name="Group 169">
                <path id="Path_2067" data-name="Path 2067" d="M419.949,214.02v1.33a.573.573,0,0,0,.75.551l.61-.162" fill="none" stroke="#282828" stroke-linecap="round" stroke-linejoin="round" stroke-width="0.484"/>
                <path id="Path_2068" data-name="Path 2068" d="M418.388,208.859,413.509,210s.222-1.241,2.218-1.693S418.388,208.859,418.388,208.859Z" fill="#282828"/>
                <path id="Path_2069" data-name="Path 2069" d="M422.718,208.859,427.429,210s-.214-1.241-2.141-1.693S422.718,208.859,422.718,208.859Z" fill="#282828"/>
                <circle id="Ellipse_9" data-name="Ellipse 9" cx="0.823" cy="0.823" r="0.823" transform="translate(415.712 211.62)" fill="#282828"/>
                <path id="Path_2070" data-name="Path 2070" d="M425.158,212.443a.823.823,0,1,1-.823-.821A.822.822,0,0,1,425.158,212.443Z" fill="#282828"/>
                <path id="Path_2071" data-name="Path 2071" d="M417.357,217.45H423.7S420.89,220.871,417.357,217.45Z" fill="#fff"/>
                <g id="Group_168" data-name="Group 168">
                  <circle id="Ellipse_10" data-name="Ellipse 10" cx="3.499" cy="3.499" r="3.499" transform="translate(411.24 212.762) rotate(-45)" fill="none" stroke="#c98bd2" stroke-miterlimit="10" stroke-width="0.527"/>
                  <circle id="Ellipse_11" data-name="Ellipse 11" cx="3.499" cy="3.499" r="3.499" transform="translate(419.836 212.762) rotate(-45)" fill="none" stroke="#c98bd2" stroke-miterlimit="10" stroke-width="0.527"/>
                  <path id="Path_2072" data-name="Path 2072" d="M419.687,212.762a1.139,1.139,0,0,1,1.6,0" fill="none" stroke="#c98bd2" stroke-miterlimit="10" stroke-width="0.527"/>
                  <line id="Line_8" data-name="Line 8" x1="1.102" y1="0.028" transform="translate(411.587 212.734)" fill="none" stroke="#c98bd2" stroke-miterlimit="10" stroke-width="0.527"/>
                  <line id="Line_9" data-name="Line 9" y1="0.028" x2="1.109" transform="translate(428.283 212.734)" fill="none" stroke="#c98bd2" stroke-miterlimit="10" stroke-width="0.527"/>
                </g>
              </g>
              <path id="Path_2073" data-name="Path 2073" d="M429.52,211.72s-3.925-5.307-3.019-10.682a7.734,7.734,0,0,1,3.672,5.25C430.931,210.072,429.52,211.72,429.52,211.72Z" fill="#282828"/>
              <path id="Path_2074" data-name="Path 2074" d="M411.436,212.079s4.56-6.027,3.655-11.4a8.978,8.978,0,0,0-3.922,5.611C410.411,210.072,411.436,212.079,411.436,212.079Z" fill="#282828"/>
              <path id="Path_2075" data-name="Path 2075" d="M429.191,203.155s-5.04,5.517-18.829,4.573c0,0,2.112-8.1,8.794-8.959C419.156,198.769,426.872,197.848,429.191,203.155Z" fill="#282828"/>
              <circle id="Ellipse_12" data-name="Ellipse 12" cx="6.584" cy="6.584" r="6.584" transform="translate(421.288 202.155) rotate(-80.831)" fill="#282828"/>
            </g>
          </g>
          <g id="Group_185" data-name="Group 185">
            <path id="Path_2076" data-name="Path 2076" d="M348.467,269.462,336.2,267.83l.112-1.425-14.342,1.91s-7.828,20.978-.861,64.591h9.975l3.477-44.223h1.275l3.59,44.223H349.4C356.371,289.293,348.467,269.462,348.467,269.462Z" fill="#282828"/>
            <g id="Group_180" data-name="Group 180">
              <path id="Path_2077" data-name="Path 2077" d="M347.489,209.8a22.592,22.592,0,0,1-4.118-7.426c-1.212-3.432-5.182-2.037-5.182-2.037s-3.309-4.256-8.286-2.773-6.708,5.024-6.809,9.236-3.414,4.87-5.965,9.742c-4.5,8.6,3.078,15.845,16.879,13.836l.019-.134a14.489,14.489,0,0,0,5.058.472C355.665,229.731,354.065,217.536,347.489,209.8Z" fill="#282828"/>
              <g id="Group_174" data-name="Group 174">
                <path id="Path_2078" data-name="Path 2078" d="M342.061,216.178c1.362,1.235,4.41-3.453,3.093-4.769s-2.321.749-2.321.749l-.588,1.4-.444,1.9-.1.5Z" fill="#f3978e"/>
                <g id="Group_173" data-name="Group 173">
                  <g id="Group_172" data-name="Group 172">
                    <path id="Path_2079" data-name="Path 2079" d="M344.518,213.07s-1.032-.464-1.948,1.031" fill="none" stroke="#282828" stroke-linecap="round" stroke-linejoin="round" stroke-width="0.39"/>
                  </g>
                </g>
              </g>
              <g id="Group_177" data-name="Group 177">
                <path id="Path_2080" data-name="Path 2080" d="M325.946,216.035c-1.254,1.347-4.686-3.067-3.486-4.489s2.376.549,2.376.549l.7,1.345.6,1.851.147.486Z" fill="#f3978e"/>
                <g id="Group_176" data-name="Group 176">
                  <g id="Group_175" data-name="Group 175">
                    <path id="Path_2081" data-name="Path 2081" d="M323.235,213.147s.988-.55,2.028.862" fill="none" stroke="#282828" stroke-linecap="round" stroke-linejoin="round" stroke-width="0.39"/>
                  </g>
                </g>
              </g>
              <g id="Group_178" data-name="Group 178">
                <path id="Path_2082" data-name="Path 2082" d="M344.451,206.937c0,6.206-4.732,9.149-10.568,9.149s-10.569-2.943-10.569-9.149a10.569,10.569,0,0,1,21.137,0Z" fill="#282828"/>
              </g>
              <rect id="Rectangle_1588" data-name="Rectangle 1588" width="8.694" height="11.258" transform="translate(329.495 220.785)" fill="#ffb1a5"/>
              <path id="Path_2083" data-name="Path 2083" d="M328.226,220.083s2.42,4.83,5.4,5.584a4.2,4.2,0,0,0,2.412-.14,5.18,5.18,0,0,0,2.783-3.916l.112-1.056A11.211,11.211,0,0,1,328.226,220.083Z" fill="#282828"/>
              <path id="Path_2084" data-name="Path 2084" d="M343.014,207.369a42.456,42.456,0,0,1-1.075,9.43,8.186,8.186,0,0,1-4.1,5.166l-.381.234a7.19,7.19,0,0,1-7.321.081h0a8.225,8.225,0,0,1-4.342-5.515,62.032,62.032,0,0,1-.985-9.4s-.845-9.618,8.972-9.431S343.014,207.369,343.014,207.369Z" fill="#ffb1a5"/>
              <g id="Group_179" data-name="Group 179">
                <path id="Path_2085" data-name="Path 2085" d="M333.227,213.378v.791a.572.572,0,0,0,.75.549l.61-.162" fill="none" stroke="#282828" stroke-linecap="round" stroke-linejoin="round" stroke-width="0.483"/>
                <path id="Path_2086" data-name="Path 2086" d="M335.272,208.165l5.223,1.236s-.237-1.342-2.374-1.83S335.272,208.165,335.272,208.165Z" fill="#282828"/>
                <path id="Path_2087" data-name="Path 2087" d="M332.53,208.165l-5.29,1.236s.24-1.342,2.4-1.83S332.53,208.165,332.53,208.165Z" fill="#282828"/>
                <path id="Path_2088" data-name="Path 2088" d="M330.635,211.406a.823.823,0,1,1-.823-.818A.821.821,0,0,1,330.635,211.406Z" fill="#282828"/>
                <path id="Path_2089" data-name="Path 2089" d="M338.436,211.406a.823.823,0,1,1-.823-.818A.822.822,0,0,1,338.436,211.406Z" fill="#282828"/>
                <path id="Path_2090" data-name="Path 2090" d="M330.092,216.086h7.221s-.509,1.984-3.784,1.984A3.829,3.829,0,0,1,330.092,216.086Z" fill="#fff"/>
              </g>
              <path id="Path_2091" data-name="Path 2091" d="M324.937,210.557s3.925-5.306,3.02-10.682a7.734,7.734,0,0,0-3.672,5.25C323.526,208.909,324.937,210.557,324.937,210.557Z" fill="#282828"/>
              <path id="Path_2092" data-name="Path 2092" d="M343.021,210.38s-4.559-5.49-3.654-10.865a8.974,8.974,0,0,1,3.921,5.61C344.047,208.909,343.021,210.38,343.021,210.38Z" fill="#282828"/>
              <path id="Path_2093" data-name="Path 2093" d="M325.266,201.993s4.5,6.053,18.293,5.109c0,0-1.575-8.633-8.258-9.5C335.3,197.607,327.585,196.685,325.266,201.993Z" fill="#282828"/>
            </g>
            <g id="Group_184" data-name="Group 184">
              <g id="Group_182" data-name="Group 182">
                <g id="Group_181" data-name="Group 181">
                  <path id="Path_2094" data-name="Path 2094" d="M312.7,296.09c-.2.316,11.477-50.807,8.01-50.034-.317.071-6.388.634-7.291,2.469-2.616,5.319-4.492,47.178-4.492,47.178Z" fill="#ffb1a5"/>
                  <path id="Path_2095" data-name="Path 2095" d="M308.924,295.7s-1.882,8.732,5.233,9.687a1,1,0,0,0,1.076-.661l.021-.059a1,1,0,0,0-.554-1.236,3.631,3.631,0,0,1-2.066-4.8s1.028-.126,1.6,1.792a.825.825,0,0,0,1.16.51h0a.823.823,0,0,0,.446-.844c-.17-1.344-.846-4.578-3.439-5.446Z" fill="#ffb1a5"/>
                </g>
                <path id="Path_2096" data-name="Path 2096" d="M311.318,260.809s6.728,9.475,6.764,9.292,2.353-13.3,2.353-13.3l-8.165-3.536Z" fill="#f3978e"/>
              </g>
              <g id="Group_183" data-name="Group 183">
                <path id="Path_2097" data-name="Path 2097" d="M330.012,230.189c.287,0-16.627.3-19.719,21.66l9.721,1.489,1.96,16.124h27.118l5.384-29.791s-3.828-6.455-14.983-9.617Z" fill="#6214f7"/>
                <path id="Path_2098" data-name="Path 2098" d="M321.745,232.771s2.39,3.174,12.185,3.174c9.7,0,12.184-3.34,12.184-3.34a41.839,41.839,0,0,0-12.358-4.23A43.987,43.987,0,0,0,321.745,232.771Z" fill="#ffb1a5"/>
              </g>
            </g>
          </g>
          <g id="Group_208" data-name="Group 208">
            <g id="Group_187" data-name="Group 187">
              <g id="Group_186" data-name="Group 186">
                <path id="Path_2099" data-name="Path 2099" d="M355.025,300.434l.023,42.6H376.12l1.619-42.6Z" fill="#005683"/>
                <path id="Path_2100" data-name="Path 2100" d="M400.777,300.434l-.023,42.6H379.682l-1.619-42.6Z" fill="#005683"/>
                <rect id="Rectangle_1589" data-name="Rectangle 1589" width="21.787" height="14.798" transform="translate(367.481 300.434)" fill="#005683"/>
              </g>
              <line id="Line_10" data-name="Line 10" x2="15.028" transform="translate(370.525 315.232)" fill="none" stroke="#282828" stroke-linecap="round" stroke-linejoin="round" stroke-width="0.549"/>
            </g>
            <g id="Group_198" data-name="Group 198">
              <g id="Group_189" data-name="Group 189">
                <g id="Group_188" data-name="Group 188">
                  <path id="Path_2101" data-name="Path 2101" d="M414.089,263.262c1.307,14.433-.071,24.95.31,51.509l-12.577.527-1.874-49.714Z" fill="#ffb1a5"/>
                  <path id="Path_2102" data-name="Path 2102" d="M401.5,274.525s7.789-.713,13.113-4.226l-.14-3.091-12.977,1.768Z" fill="#f3978e"/>
                </g>
                <path id="Path_2103" data-name="Path 2103" d="M389.005,230.03s24.738,6.222,29.22,37.622c0,0-12.107,5.249-24.241,2.991l2.73-10.5Z" fill="#c13fd8"/>
              </g>
              <g id="Group_196" data-name="Group 196">
                <g id="Group_193" data-name="Group 193">
                  <path id="Path_2104" data-name="Path 2104" d="M315.111,243.087l18.42,21.752-5.637,15.874s-14-19.465-20.29-34.509Z" fill="#ffb1a5"/>
                  <g id="Group_192" data-name="Group 192">
                    <g id="Group_191" data-name="Group 191">
                      <g id="Group_190" data-name="Group 190">
                        <path id="Path_2105" data-name="Path 2105" d="M315.717,243.872s-6.468,3.654-8.113,2.332c-2.875-2.31-5.251-10.766-5.251-10.766s12.1-4.56,11.981-4.381S315.717,243.872,315.717,243.872Z" fill="#ffb1a5"/>
                        <path id="Path_2106" data-name="Path 2106" d="M315.717,243.872c-.115-.652,2.4-7.676,3.259-10.31a1.162,1.162,0,0,0-.919-1.464h0a1.343,1.343,0,0,0-1.5.613l-3.033,5.185Z" fill="#ffb1a5"/>
                        <path id="Path_2107" data-name="Path 2107" d="M315.495,236.278l-2.083-10.363a1.3,1.3,0,0,0-1.508-1.034h0a1.124,1.124,0,0,0-.922,1.246l.908,7.716Z" fill="#ffb1a5"/>
                        <path id="Path_2108" data-name="Path 2108" d="M311.353,232.456l-2.829-7.4a1.3,1.3,0,0,0-1.607-.792h0a1.119,1.119,0,0,0-.739,1.328l2.1,8.55Z" fill="#ffb1a5"/>
                        <path id="Path_2109" data-name="Path 2109" d="M308.313,234.637l-3.579-7.271a1.422,1.422,0,0,0-1.816-.7h0a1.239,1.239,0,0,0-.639,1.637l2.853,6.864Z" fill="#ffb1a5"/>
                        <path id="Path_2110" data-name="Path 2110" d="M302.353,235.438l-2.808-4.454a1.006,1.006,0,0,1,.49-1.344h0a1.15,1.15,0,0,1,1.4.408l3.693,5.123Z" fill="#ffb1a5"/>
                      </g>
                    </g>
                    <path id="Path_2111" data-name="Path 2111" d="M314.929,235.5s-4.217-.442-4.651,5.178" fill="none" stroke="#282828" stroke-linecap="round" stroke-linejoin="round" stroke-width="0.602"/>
                  </g>
                </g>
                <g id="Group_195" data-name="Group 195">
                  <g id="Group_194" data-name="Group 194">
                    <path id="Path_2112" data-name="Path 2112" d="M324.158,273.289s3.465,11.989,10.368,10.395,17.663-16.339,17.663-16.339l-2.408-25.176L330.4,266.017Z" fill="#ffb1a5"/>
                    <path id="Path_2113" data-name="Path 2113" d="M336.415,258.609s6.541,9.868,12.122,13.347l3.652-4.611-14.09-10.9Z" fill="#f3978e"/>
                  </g>
                  <path id="Path_2114" data-name="Path 2114" d="M365.036,229.486s-19.206,4.329-29.441,26.65c0,0,6.184,9.318,16.1,13.46l6.638-8.132Z" fill="#c13fd8"/>
                </g>
              </g>
              <g id="Group_197" data-name="Group 197">
                <path id="Path_2115" data-name="Path 2115" d="M365.036,229.417a48.076,48.076,0,0,0-12.219,8.952l1.48,65.249h47.279l-.153-64.913s-5.96-5.831-12.418-8.675C383.519,227.615,370.369,226.681,365.036,229.417Z" fill="#c13fd8"/>
                <path id="Rectangle_1590" data-name="Rectangle 1590" d="M0,0H13.152a0,0,0,0,1,0,0V6.576a6.576,6.576,0,0,1-6.576,6.576h0A6.576,6.576,0,0,1,0,6.576V0A0,0,0,0,1,0,0Z" transform="translate(380.832 248.059)" fill="none" stroke="#282828" stroke-linecap="round" stroke-linejoin="round" stroke-width="0.549"/>
                <line id="Line_11" data-name="Line 11" y1="21.345" x2="0.613" transform="translate(401.499 249.541)" fill="none" stroke="#282828" stroke-linecap="round" stroke-linejoin="round" stroke-width="0.549"/>
                <line id="Line_12" data-name="Line 12" x1="1.022" y1="18.502" transform="translate(352.522 248.826)" fill="none" stroke="#282828" stroke-linecap="round" stroke-linejoin="round" stroke-width="0.549"/>
              </g>
            </g>
            <g id="Group_207" data-name="Group 207">
              <path id="Path_2116" data-name="Path 2116" d="M365.59,205.585l-1.971-9.75a6.856,6.856,0,0,1-.042-3.172c.625-1.9,2.919-5.564,6.84-3.889l.848,3.86s-4.072.822-5.706,6.15Z" fill="#282828"/>
              <path id="Path_2117" data-name="Path 2117" d="M370.128,190.787c-.071,1.281-1.2,6.886-5.177,8.929C364.951,199.716,361.469,192.248,370.128,190.787Z" fill="#282828"/>
              <path id="Path_2118" data-name="Path 2118" d="M384.074,227.621h0V211.065H368.812v16.556l-4.544,2.072s1.066,6.862,12.335,7.014,12.4-6.677,12.4-6.677Z" fill="#ffb1a5"/>
              <path id="Path_2119" data-name="Path 2119" d="M370.417,188.774s2.8-7.389,11.439-3.461c5.228,2.378,6.692,5.566,7.315,7.825a9.053,9.053,0,0,1,.233,2.634l-2.089,9.813-8.157-13.577-7.893.626Z" fill="#282828"/>
              <g id="Group_201" data-name="Group 201">
                <path id="Path_2120" data-name="Path 2120" d="M387.315,205.585a2.541,2.541,0,0,1,3.151-.832c2.123.8,1.163,5.959-2.021,6.616a2.519,2.519,0,0,1-2.036-.532S387.192,207.03,387.315,205.585Z" fill="#f3978e"/>
                <g id="Group_200" data-name="Group 200">
                  <g id="Group_199" data-name="Group 199">
                    <path id="Path_2121" data-name="Path 2121" d="M390.045,206.571s-1.777-.593-3.039,2.025" fill="none" stroke="#282828" stroke-linecap="round" stroke-linejoin="round" stroke-width="0.549"/>
                  </g>
                </g>
              </g>
              <g id="Group_204" data-name="Group 204">
                <path id="Path_2122" data-name="Path 2122" d="M365.59,205.585a2.541,2.541,0,0,0-3.151-.832c-2.123.8-1.163,5.959,2.021,6.616a2.519,2.519,0,0,0,2.036-.532S365.713,207.03,365.59,205.585Z" fill="#f3978e"/>
                <g id="Group_203" data-name="Group 203">
                  <g id="Group_202" data-name="Group 202">
                    <path id="Path_2123" data-name="Path 2123" d="M362.86,206.571s1.777-.593,3.039,2.025" fill="none" stroke="#282828" stroke-linecap="round" stroke-linejoin="round" stroke-width="0.549"/>
                  </g>
                </g>
              </g>
              <path id="Path_2124" data-name="Path 2124" d="M387.528,200.694c0,3.107-.3,9.608-2.215,13.466a9.514,9.514,0,0,1-8.648,5.688c-3.889.116-6.786-1.382-9.108-6.084s-2.211-13.012-2.211-13.012,0-11.1,10.97-11.1C387.871,189.652,387.528,200.694,387.528,200.694Z" fill="#ffb1a5"/>
              <path id="Path_2125" data-name="Path 2125" d="M368.926,216.081s1.278,6.486,6.923,7.231c6.495.857,8.225-7.066,8.225-7.066a10.331,10.331,0,0,1-7.409,3.6A9.931,9.931,0,0,1,368.926,216.081Z" fill="#282828"/>
              <g id="Group_206" data-name="Group 206">
                <path id="Path_2126" data-name="Path 2126" d="M375.654,205.3v2.569a.859.859,0,0,0,.06.313.826.826,0,0,0,.986.457l.852-.226" fill="none" stroke="#282828" stroke-linecap="round" stroke-linejoin="round" stroke-width="0.549"/>
                <path id="Path_2127" data-name="Path 2127" d="M372.414,204.075a1,1,0,1,1-1-1A1,1,0,0,1,372.414,204.075Z" fill="#282828"/>
                <path id="Path_2128" data-name="Path 2128" d="M381.778,204.075a1,1,0,1,1-1-1A1,1,0,0,1,381.778,204.075Z" fill="#282828"/>
                <path id="Path_2129" data-name="Path 2129" d="M378.223,199.107l6.715,1.734s-.306-1.883-3.053-2.567S378.223,199.107,378.223,199.107Z" fill="#282828"/>
                <path id="Path_2130" data-name="Path 2130" d="M374.05,199.107l-6.714,1.734s.3-1.883,3.052-2.567S374.05,199.107,374.05,199.107Z" fill="#282828"/>
                <path id="Path_2131" data-name="Path 2131" d="M372.715,210.459s.99.759,3.6.759a9.111,9.111,0,0,0,3.849-.759" fill="none" stroke="#282828" stroke-linecap="round" stroke-linejoin="round" stroke-width="0.549"/>
                <g id="Group_205" data-name="Group 205">
                  <circle id="Ellipse_13" data-name="Ellipse 13" cx="4.244" cy="4.244" r="4.244" transform="translate(366.903 200.123)" fill="none" stroke="#fff" stroke-miterlimit="10" stroke-width="0.767"/>
                  <circle id="Ellipse_14" data-name="Ellipse 14" cx="4.244" cy="4.244" r="4.244" transform="translate(377.328 200.123)" fill="none" stroke="#fff" stroke-miterlimit="10" stroke-width="0.767"/>
                  <path id="Path_2132" data-name="Path 2132" d="M375.391,204.367a1.381,1.381,0,0,1,1.937,0" fill="none" stroke="#fff" stroke-miterlimit="10" stroke-width="0.767"/>
                  <line id="Line_13" data-name="Line 13" x1="1.423" y1="0.036" transform="translate(365.48 204.331)" fill="none" stroke="#fff" stroke-miterlimit="10" stroke-width="0.767"/>
                  <line id="Line_14" data-name="Line 14" y1="0.026" x2="1.588" transform="translate(385.816 204.341)" fill="none" stroke="#fff" stroke-miterlimit="10" stroke-width="0.767"/>
                </g>
              </g>
              <path id="Path_2133" data-name="Path 2133" d="M368.926,191.04s2.038,5.79,11.234,5.612c6.249-.12,7.742,4.4,7.742,4.4s-1.087-10.108-1.373-10.013-9.509-2.461-9.509-2.461Z" fill="#282828"/>
            </g>
          </g>
        </g>
      </g>
    </g>
  </g>
</svg>
