<svg width="20" height="20" viewBox="0 0 20 20" fill="none" xmlns="http://www.w3.org/2000/svg">
<path d="M15 1.33989C16.5083 2.21075 17.7629 3.46042 18.6398 4.96519C19.5167 6.46997 19.9854 8.17766 19.9994 9.91923C20.0135 11.6608 19.5725 13.3758 18.72 14.8946C17.8676 16.4133 16.6332 17.6831 15.1392 18.5782C13.6452 19.4733 11.9434 19.9627 10.2021 19.998C8.46083 20.0332 6.74055 19.6131 5.21155 18.7791C3.68256 17.9452 2.39787 16.7264 1.48467 15.2434C0.571462 13.7604 0.0614093 12.0646 0.00500011 10.3239L0 9.99989L0.00500011 9.67589C0.0610032 7.94888 0.563548 6.26585 1.46364 4.79089C2.36373 3.31592 3.63065 2.09934 5.14089 1.25977C6.65113 0.420205 8.35315 -0.0137108 10.081 0.000330246C11.8089 0.0143713 13.5036 0.47589 15 1.33989ZM10 8.99989H9L8.883 9.00689C8.6299 9.037 8.39785 9.16261 8.23426 9.35806C8.07067 9.55351 7.98789 9.80406 8.00283 10.0585C8.01777 10.3129 8.1293 10.5521 8.31463 10.727C8.49997 10.902 8.74512 10.9996 9 10.9999V13.9999L9.007 14.1169C9.03566 14.3601 9.15259 14.5844 9.33563 14.7472C9.51866 14.9099 9.75507 14.9999 10 14.9999H11L11.117 14.9929C11.3603 14.9642 11.5845 14.8473 11.7473 14.6643C11.91 14.4812 12 14.2448 12 13.9999L11.993 13.8829C11.9667 13.6597 11.8659 13.4518 11.707 13.2929C11.5481 13.134 11.3402 13.0332 11.117 13.0069L11 12.9999V9.99989L10.993 9.88289C10.9643 9.63964 10.8474 9.41537 10.6644 9.25261C10.4813 9.08985 10.2449 8.99992 10 8.99989ZM10.01 4.99989L9.883 5.00689C9.6299 5.037 9.39785 5.16261 9.23426 5.35806C9.07067 5.55351 8.98789 5.80406 9.00283 6.0585C9.01777 6.31294 9.1293 6.55208 9.31463 6.72704C9.49997 6.90201 9.74512 6.99961 10 6.99989L10.127 6.99289C10.3801 6.96279 10.6121 6.83718 10.7757 6.64173C10.9393 6.44627 11.0221 6.19573 11.0072 5.94129C10.9922 5.68685 10.8807 5.44771 10.6954 5.27274C10.51 5.09777 10.2649 5.00018 10.01 4.99989Z" fill="#6B7280"/>
</svg>
