<svg width="16" height="17" viewBox="0 0 16 17" fill="none" xmlns="http://www.w3.org/2000/svg">
<g clip-path="url(#clip0_59_2578)">
<mask id="path-1-inside-1_59_2578" fill="white">
<path d="M8 16.0073C7.72667 16.0073 7.5 15.7806 7.5 15.5073V14.174C7.5 13.9006 7.72667 13.674 8 13.674C8.27333 13.674 8.5 13.9006 8.5 14.174V15.5073C8.5 15.7806 8.27333 16.0073 8 16.0073Z"/>
</mask>
<path d="M8 16.0073C7.72667 16.0073 7.5 15.7806 7.5 15.5073V14.174C7.5 13.9006 7.72667 13.674 8 13.674C8.27333 13.674 8.5 13.9006 8.5 14.174V15.5073C8.5 15.7806 8.27333 16.0073 8 16.0073Z" fill="#0ACF83"/>
<path d="M8 15.0073C8.27895 15.0073 8.5 15.2283 8.5 15.5073H6.5C6.5 16.3329 7.17438 17.0073 8 17.0073V15.0073ZM8.5 15.5073V14.174H6.5V15.5073H8.5ZM8.5 14.174C8.5 14.4529 8.27895 14.674 8 14.674V12.674C7.17438 12.674 6.5 13.3483 6.5 14.174H8.5ZM8 14.674C7.72105 14.674 7.5 14.4529 7.5 14.174H9.5C9.5 13.3483 8.82562 12.674 8 12.674V14.674ZM7.5 14.174V15.5073H9.5V14.174H7.5ZM7.5 15.5073C7.5 15.2283 7.72105 15.0073 8 15.0073V17.0073C8.82562 17.0073 9.5 16.3329 9.5 15.5073H7.5Z" fill="#0ACF83" mask="url(#path-1-inside-1_59_2578)"/>
<mask id="path-3-inside-2_59_2578" fill="white">
<path d="M8 13.3405C7.72667 13.3405 7.5 13.1139 7.5 12.8405V11.5072C7.5 11.2339 7.72667 11.0072 8 11.0072C8.27333 11.0072 8.5 11.2339 8.5 11.5072V12.8405C8.5 13.1139 8.27333 13.3405 8 13.3405Z"/>
</mask>
<path d="M8 13.3405C7.72667 13.3405 7.5 13.1139 7.5 12.8405V11.5072C7.5 11.2339 7.72667 11.0072 8 11.0072C8.27333 11.0072 8.5 11.2339 8.5 11.5072V12.8405C8.5 13.1139 8.27333 13.3405 8 13.3405Z" fill="#0ACF83"/>
<path d="M8 12.3405C8.27895 12.3405 8.5 12.5616 8.5 12.8405H6.5C6.5 13.6662 7.17438 14.3405 8 14.3405V12.3405ZM8.5 12.8405V11.5072H6.5V12.8405H8.5ZM8.5 11.5072C8.5 11.7862 8.27895 12.0072 8 12.0072V10.0072C7.17438 10.0072 6.5 10.6816 6.5 11.5072H8.5ZM8 12.0072C7.72105 12.0072 7.5 11.7862 7.5 11.5072H9.5C9.5 10.6816 8.82562 10.0072 8 10.0072V12.0072ZM7.5 11.5072V12.8405H9.5V11.5072H7.5ZM7.5 12.8405C7.5 12.5616 7.72105 12.3405 8 12.3405V14.3405C8.82562 14.3405 9.5 13.6662 9.5 12.8405H7.5Z" fill="#0ACF83" mask="url(#path-3-inside-2_59_2578)"/>
<mask id="path-5-inside-3_59_2578" fill="white">
<path d="M8 10.6739C7.72667 10.6739 7.5 10.4472 7.5 10.1739V8.17387C7.5 5.3272 9.82 3.0072 12.6667 3.0072H14.6667C14.94 3.0072 15.1667 3.23387 15.1667 3.5072C15.1667 3.78054 14.94 4.0072 14.6667 4.0072H12.6667C10.3667 4.0072 8.5 5.87387 8.5 8.17387V10.1739C8.5 10.4472 8.27333 10.6739 8 10.6739Z"/>
</mask>
<path d="M8 10.6739C7.72667 10.6739 7.5 10.4472 7.5 10.1739V8.17387C7.5 5.3272 9.82 3.0072 12.6667 3.0072H14.6667C14.94 3.0072 15.1667 3.23387 15.1667 3.5072C15.1667 3.78054 14.94 4.0072 14.6667 4.0072H12.6667C10.3667 4.0072 8.5 5.87387 8.5 8.17387V10.1739C8.5 10.4472 8.27333 10.6739 8 10.6739Z" fill="#0ACF83"/>
<path d="M8 9.67387C8.27895 9.67387 8.5 9.89492 8.5 10.1739H6.5C6.5 10.9995 7.17438 11.6739 8 11.6739V9.67387ZM8.5 10.1739V8.17387H6.5V10.1739H8.5ZM8.5 8.17387C8.5 5.87949 10.3723 4.0072 12.6667 4.0072V2.0072C9.26772 2.0072 6.5 4.77492 6.5 8.17387H8.5ZM12.6667 4.0072H14.6667V2.0072H12.6667V4.0072ZM14.6667 4.0072C14.3877 4.0072 14.1667 3.78615 14.1667 3.5072H16.1667C16.1667 2.68158 15.4923 2.0072 14.6667 2.0072V4.0072ZM14.1667 3.5072C14.1667 3.22825 14.3877 3.0072 14.6667 3.0072V5.0072C15.4923 5.0072 16.1667 4.33282 16.1667 3.5072H14.1667ZM14.6667 3.0072H12.6667V5.0072H14.6667V3.0072ZM12.6667 3.0072C9.81438 3.0072 7.5 5.32158 7.5 8.17387H9.5C9.5 6.42615 10.919 5.0072 12.6667 5.0072V3.0072ZM7.5 8.17387V10.1739H9.5V8.17387H7.5ZM7.5 10.1739C7.5 9.89492 7.72105 9.67387 8 9.67387V11.6739C8.82562 11.6739 9.5 10.9995 9.5 10.1739H7.5Z" fill="#0ACF83" mask="url(#path-5-inside-3_59_2578)"/>
<mask id="path-7-inside-4_59_2578" fill="white">
<path d="M8.00004 10.6739C7.72671 10.6739 7.50004 10.4472 7.50004 10.1739V8.17387C7.50004 5.87387 5.63337 4.0072 3.33337 4.0072H1.33337C1.06004 4.0072 0.833374 3.78054 0.833374 3.5072C0.833374 3.23387 1.06004 3.0072 1.33337 3.0072H3.33337C6.18004 3.0072 8.50004 5.3272 8.50004 8.17387V10.1739C8.50004 10.4472 8.27337 10.6739 8.00004 10.6739Z"/>
</mask>
<path d="M8.00004 10.6739C7.72671 10.6739 7.50004 10.4472 7.50004 10.1739V8.17387C7.50004 5.87387 5.63337 4.0072 3.33337 4.0072H1.33337C1.06004 4.0072 0.833374 3.78054 0.833374 3.5072C0.833374 3.23387 1.06004 3.0072 1.33337 3.0072H3.33337C6.18004 3.0072 8.50004 5.3272 8.50004 8.17387V10.1739C8.50004 10.4472 8.27337 10.6739 8.00004 10.6739Z" fill="#0ACF83"/>
<path d="M8.00004 9.67387C8.27899 9.67387 8.50004 9.89492 8.50004 10.1739H6.50004C6.50004 10.9995 7.17442 11.6739 8.00004 11.6739V9.67387ZM8.50004 10.1739V8.17387H6.50004V10.1739H8.50004ZM8.50004 8.17387C8.50004 5.32158 6.18566 3.0072 3.33337 3.0072V5.0072C5.08109 5.0072 6.50004 6.42615 6.50004 8.17387H8.50004ZM3.33337 3.0072H1.33337V5.0072H3.33337V3.0072ZM1.33337 3.0072C1.61233 3.0072 1.83337 3.22825 1.83337 3.5072H-0.166626C-0.166626 4.33282 0.507756 5.0072 1.33337 5.0072V3.0072ZM1.83337 3.5072C1.83337 3.78615 1.61233 4.0072 1.33337 4.0072V2.0072C0.507756 2.0072 -0.166626 2.68158 -0.166626 3.5072H1.83337ZM1.33337 4.0072H3.33337V2.0072H1.33337V4.0072ZM3.33337 4.0072C5.62776 4.0072 7.50004 5.87949 7.50004 8.17387H9.50004C9.50004 4.77492 6.73233 2.0072 3.33337 2.0072V4.0072ZM7.50004 8.17387V10.1739H9.50004V8.17387H7.50004ZM7.50004 10.1739C7.50004 9.89492 7.72109 9.67387 8.00004 9.67387V11.6739C8.82566 11.6739 9.50004 10.9995 9.50004 10.1739H7.50004Z" fill="#0ACF83" mask="url(#path-7-inside-4_59_2578)"/>
<mask id="path-9-inside-5_59_2578" fill="white">
<path d="M2.66663 5.34054C2.53996 5.34054 2.41329 5.29387 2.31329 5.19387L0.979961 3.86054C0.786628 3.6672 0.786628 3.3472 0.979961 3.15387L2.31329 1.82054C2.50663 1.6272 2.82663 1.6272 3.01996 1.82054C3.21329 2.01387 3.21329 2.33387 3.01996 2.5272L2.03996 3.5072L3.01996 4.4872C3.21329 4.68054 3.21329 5.00054 3.01996 5.19387C2.91996 5.29387 2.79329 5.34054 2.66663 5.34054Z"/>
</mask>
<path d="M2.66663 5.34054C2.53996 5.34054 2.41329 5.29387 2.31329 5.19387L0.979961 3.86054C0.786628 3.6672 0.786628 3.3472 0.979961 3.15387L2.31329 1.82054C2.50663 1.6272 2.82663 1.6272 3.01996 1.82054C3.21329 2.01387 3.21329 2.33387 3.01996 2.5272L2.03996 3.5072L3.01996 4.4872C3.21329 4.68054 3.21329 5.00054 3.01996 5.19387C2.91996 5.29387 2.79329 5.34054 2.66663 5.34054Z" fill="#0ACF83"/>
<path d="M2.31329 5.19387L1.60619 5.90098L2.31329 5.19387ZM0.979961 3.86054L1.68707 3.15343L0.979961 3.86054ZM3.01996 2.5272L3.72707 3.23431V3.23431L3.01996 2.5272ZM2.03996 3.5072L1.33285 2.8001L0.625747 3.5072L1.33285 4.21431L2.03996 3.5072ZM3.01996 4.4872L3.72707 3.7801L3.72707 3.7801L3.01996 4.4872ZM2.66663 4.34054C2.79087 4.34054 2.92298 4.38934 3.0204 4.48676L1.60619 5.90098C1.90361 6.1984 2.28906 6.34054 2.66663 6.34054V4.34054ZM3.0204 4.48676L1.68707 3.15343L0.272854 4.56764L1.60619 5.90098L3.0204 4.48676ZM1.68707 3.15343C1.88426 3.35062 1.88426 3.66379 1.68707 3.86098L0.272854 2.44676C-0.311003 3.03062 -0.311003 3.98379 0.272854 4.56764L1.68707 3.15343ZM1.68707 3.86098L3.0204 2.52764L1.60619 1.11343L0.272854 2.44676L1.68707 3.86098ZM3.0204 2.52764C2.82321 2.72483 2.51005 2.72483 2.31285 2.52764L3.72707 1.11343C3.14321 0.529573 2.19005 0.529573 1.60619 1.11343L3.0204 2.52764ZM2.31285 2.52764C2.11566 2.33045 2.11566 2.01729 2.31285 1.8201L3.72707 3.23431C4.31093 2.65045 4.31093 1.69729 3.72707 1.11343L2.31285 2.52764ZM2.31285 1.8201L1.33285 2.8001L2.74707 4.21431L3.72707 3.23431L2.31285 1.8201ZM1.33285 4.21431L2.31285 5.19431L3.72707 3.7801L2.74707 2.8001L1.33285 4.21431ZM2.31285 5.19431C2.11566 4.99712 2.11566 4.68395 2.31285 4.48676L3.72707 5.90098C4.31093 5.31712 4.31093 4.36395 3.72707 3.7801L2.31285 5.19431ZM2.31285 4.48676C2.41027 4.38934 2.54239 4.34054 2.66663 4.34054V6.34054C3.0442 6.34054 3.42965 6.1984 3.72707 5.90098L2.31285 4.48676Z" fill="#0ACF83" mask="url(#path-9-inside-5_59_2578)"/>
<path d="M13.3333 5.34054C13.2066 5.34054 13.08 5.29387 12.98 5.19387C12.7866 5.00054 12.7866 4.68054 12.98 4.4872L13.96 3.5072L12.98 2.5272C12.7866 2.33387 12.7866 2.01387 12.98 1.82054C13.1733 1.6272 13.4933 1.6272 13.6866 1.82054L15.02 3.15387C15.2133 3.3472 15.2133 3.6672 15.02 3.86054L13.6866 5.19387C13.5866 5.29387 13.46 5.34054 13.3333 5.34054Z" fill="#0ACF83"/>
</g>
<defs>
<clipPath id="clip0_59_2578">
<rect width="16" height="16" fill="white" transform="translate(0 0.840576)"/>
</clipPath>
</defs>
</svg>
