<svg width="24" height="24" viewBox="0 0 24 24" fill="none" xmlns="http://www.w3.org/2000/svg">
<path d="M18.4864 5.93361L18.6329 6.08006H18.84H19.24C19.7022 6.08006 20.2625 6.08921 20.7118 6.33763C20.9228 6.4543 21.1112 6.62604 21.2513 6.89269C21.394 7.16413 21.5 7.55971 21.5 8.14006C21.5 8.92383 21.3496 9.38062 21.1631 9.65157C20.9865 9.90824 20.7397 10.0528 20.4096 10.1323C20.1777 10.1815 19.9274 10.2001 19.64 10.2001H4.36C4.06436 10.2001 3.80543 10.1891 3.57732 10.134L3.57733 10.134L3.57013 10.1323C3.32695 10.0774 3.13495 9.98448 2.98069 9.82379L2.98077 9.82372L2.97355 9.8165C2.69006 9.53301 2.5 9.05351 2.5 8.14006C2.5 7.55969 2.60601 7.16419 2.74876 6.89284C2.88897 6.6263 3.07748 6.45457 3.28904 6.33785C3.73964 6.08924 4.30249 6.08006 4.77 6.08006H5.17H5.37754L5.52408 5.93309L8.88966 2.55752C8.97814 2.47467 9.10223 2.48277 9.17337 2.5506C9.25654 2.64032 9.2468 2.76615 9.17645 2.83651L6.78645 5.22651L5.93289 6.08006H7.14H16.86H18.0671L17.2136 5.22651L14.8276 2.84058C14.7446 2.75209 14.7527 2.62788 14.8205 2.55669C14.9103 2.47352 15.0361 2.48326 15.1064 2.55361L18.4864 5.93361Z" fill="#9CA3AF" stroke="#9CA3AF"/>
<path d="M19.09 12H4.91001C4.29001 12 3.82001 12.55 3.92001 13.16L4.76001 18.3C5.04001 20.02 5.79001 22 9.12001 22H14.73C18.1 22 18.7 20.31 19.06 18.42L20.07 13.19C20.19 12.57 19.72 12 19.09 12ZM14.88 16.05L11.63 19.05C11.49 19.18 11.31 19.25 11.12 19.25C10.93 19.25 10.74 19.18 10.59 19.03L9.09001 17.53C8.80001 17.24 8.80001 16.76 9.09001 16.47C9.39001 16.18 9.86001 16.18 10.16 16.47L11.15 17.46L13.87 14.95C14.17 14.67 14.65 14.69 14.93 14.99C15.21 15.3 15.19 15.77 14.88 16.05Z" fill="#9CA3AF"/>
</svg>
