<svg xmlns="http://www.w3.org/2000/svg" width="25" height="23.263" viewBox="0 0 25 23.263">
  <path id="Path_228" data-name="Path 228" d="M28.236,36.785a6.415,6.415,0,0,1-2.553-.329,24.982,24.982,0,0,1-13.324-9.785A13.935,13.935,0,0,1,9.5,20.85a6.682,6.682,0,0,1,2.2-6.575,3.71,3.71,0,0,1,3.288-.483,2.514,2.514,0,0,1,.561.638c.7,1.76,1.431,3.384,2.147,5.047a1.4,1.4,0,0,1-.1,1.044,10.469,10.469,0,0,1-1.528,2.05.9.9,0,0,0-.135,1.334,16.385,16.385,0,0,0,8.412,7.233.958.958,0,0,0,1.257-.29c.638-.735,1.257-1.547,1.837-2.321a1.039,1.039,0,0,1,1.373-.309c1.218.522,2.4,1.083,3.558,1.624.309.174.541.271.832.406,1.218.6,1.218.677,1.064,1.992-.155,2.572-2.127,3.868-4.39,4.506A3.947,3.947,0,0,1,28.236,36.785Z" transform="translate(-9.34 -13.591)" fill="#fff" fill-rule="evenodd"/>
</svg>
