<svg width="34" height="34" viewBox="0 0 34 34" fill="none" xmlns="http://www.w3.org/2000/svg">
<rect width="34" height="34" rx="17" fill="#39D8D8"/>
<path d="M24.95 26C22.8 26 20.7043 25.5207 18.663 24.562C16.6217 23.6033 14.8133 22.3367 13.238 20.762C11.6627 19.1873 10.396 17.379 9.438 15.337C8.48 13.295 8.00067 11.1993 8 9.05C8 8.75 8.1 8.5 8.3 8.3C8.5 8.1 8.75 8 9.05 8H13.1C13.3333 8 13.5417 8.075 13.725 8.225C13.9083 8.375 14.0167 8.56667 14.05 8.8L14.7 12.3C14.7333 12.5333 14.729 12.746 14.687 12.938C14.645 13.13 14.5493 13.3007 14.4 13.45L12 15.9C12.7 17.1 13.575 18.225 14.625 19.275C15.675 20.325 16.8333 21.2333 18.1 22L20.45 19.65C20.6 19.5 20.796 19.3877 21.038 19.313C21.28 19.2383 21.5173 19.2173 21.75 19.25L25.2 19.95C25.4333 20 25.625 20.1127 25.775 20.288C25.925 20.4633 26 20.6673 26 20.9V24.95C26 25.25 25.9 25.5 25.7 25.7C25.5 25.9 25.25 26 24.95 26Z" fill="white"/>
</svg>
