<svg width="28" height="28" viewBox="0 0 28 28" fill="none" xmlns="http://www.w3.org/2000/svg">
<rect x="1" y="1" width="26" height="26" rx="13" fill="#0ACF83"/>
<path d="M8.66668 20C8.31305 20 7.97392 19.8594 7.72387 19.6094C7.47382 19.3593 7.33334 19.0203 7.33334 18.6667V10.6667C7.33422 10.3133 7.47498 9.97447 7.72484 9.72461C7.9747 9.47475 8.31333 9.33421 8.66668 9.33333H10.78L12 8H16L17.2187 9.33333H19.3333C19.6866 9.33439 20.0252 9.47544 20.275 9.72526C20.5248 9.97508 20.6656 10.3134 20.6667 10.6667V18.6667C20.6656 19.02 20.5248 19.3583 20.275 19.6081C20.0252 19.8579 19.6866 19.9989 19.3333 20H8.66668ZM10.6667 14.6667C10.6667 15.5507 11.0179 16.3983 11.643 17.0234C12.2681 17.6486 13.116 18 14 18C14.8841 18 15.7319 17.6486 16.357 17.0234C16.9822 16.3983 17.3333 15.5507 17.3333 14.6667C17.3333 13.7826 16.9822 12.935 16.357 12.3099C15.7319 11.6848 14.8841 11.3333 14 11.3333C13.116 11.3333 12.2681 11.6848 11.643 12.3099C11.0179 12.935 10.6667 13.7826 10.6667 14.6667ZM11.8667 14.6667C11.8667 14.1009 12.0914 13.5583 12.4915 13.1582C12.8916 12.7581 13.4342 12.5332 14 12.5332C14.5658 12.5332 15.1084 12.7581 15.5085 13.1582C15.9086 13.5583 16.1333 14.1009 16.1333 14.6667C16.1333 15.2325 15.9086 15.7751 15.5085 16.1751C15.1084 16.5752 14.5658 16.8001 14 16.8001C13.4342 16.8001 12.8916 16.5752 12.4915 16.1751C12.0914 15.7751 11.8667 15.2325 11.8667 14.6667Z" fill="white"/>
<rect x="1" y="1" width="26" height="26" rx="13" stroke="white" stroke-width="2"/>
</svg>
