<svg width="24" height="24" viewBox="0 0 24 24" fill="none" xmlns="http://www.w3.org/2000/svg">
<path d="M7.5 7.25H8V6.75V6C8 4.93913 8.42143 3.92172 9.17158 3.17157C9.92172 2.42143 10.9391 2 12 2C13.0609 2 14.0783 2.42143 14.8284 3.17157C15.5786 3.92172 16 4.93913 16 6V6.75V7.25H16.5H18.487H18.4871C18.8269 7.24995 19.1547 7.37574 19.4073 7.60311C19.6598 7.83047 19.8192 8.14331 19.8547 8.48127L19.8547 8.48134L21.1177 20.4813C21.1379 20.6729 21.1175 20.8667 21.058 21.0499C20.9984 21.2332 20.901 21.4019 20.772 21.5451C20.6431 21.6883 20.4855 21.8028 20.3094 21.8812C20.1333 21.9595 19.9428 22 19.7501 22H19.75H4.25H4.24993C4.05722 22 3.86666 21.9595 3.6906 21.8812C3.51455 21.8028 3.35693 21.6883 3.22797 21.5451C3.09901 21.4019 3.0016 21.2332 2.94204 21.0499C2.88249 20.8667 2.86212 20.673 2.88226 20.4813C2.88226 20.4813 2.88226 20.4813 2.88226 20.4813L4.14523 8.48159C4.14524 8.48152 4.14524 8.48145 4.14525 8.48139C4.21947 7.7806 4.80911 7.25 5.513 7.25H7.5ZM8.5 6.75V7.25H9H15H15.5V6.75V6C15.5 5.07174 15.1313 4.1815 14.4749 3.52513C13.8185 2.86875 12.9283 2.5 12 2.5C11.0717 2.5 10.1815 2.86875 9.52513 3.52513C8.86875 4.1815 8.5 5.07174 8.5 6V6.75ZM10.2322 13.0178C9.76339 12.5489 9.5 11.913 9.5 11.25V10.5C9.5 10.1685 9.3683 9.85054 9.13389 9.61612C8.89947 9.3817 8.58152 9.25 8.25 9.25C7.91848 9.25 7.60054 9.3817 7.36612 9.61612C7.1317 9.85054 7 10.1685 7 10.5V11.25C7 12.5761 7.52679 13.8479 8.46447 14.7855C9.40215 15.7232 10.6739 16.25 12 16.25C13.3261 16.25 14.5979 15.7232 15.5355 14.7855C16.4732 13.8479 17 12.5761 17 11.25V10.5C17 10.1685 16.8683 9.85054 16.6339 9.61612C16.3995 9.3817 16.0815 9.25 15.75 9.25C15.4185 9.25 15.1005 9.3817 14.8661 9.61612C14.6317 9.85054 14.5 10.1685 14.5 10.5V11.25C14.5 11.913 14.2366 12.5489 13.7678 13.0178C13.2989 13.4866 12.663 13.75 12 13.75C11.337 13.75 10.7011 13.4866 10.2322 13.0178Z" fill="#6B7280" stroke="#6B7280"/>
</svg>
