<svg width="16" height="14" viewBox="0 0 16 14" fill="none" xmlns="http://www.w3.org/2000/svg">
<path d="M2.60216 6.13726L2.91705 5.98972L2.8883 5.64317C2.84257 5.09187 2.91169 4.53709 3.09128 4.01387C3.27088 3.49064 3.55705 3.01036 3.93172 2.60337C4.30638 2.19638 4.76139 1.87152 5.26799 1.64933C5.7746 1.42714 6.32178 1.31245 6.87497 1.3125H6.87505C7.67491 1.31243 8.45642 1.55211 9.1187 2.00061C9.78099 2.4491 10.2936 3.08582 10.5905 3.82855L10.7322 4.18331L11.1118 4.13974C11.4656 4.09912 11.8239 4.14075 12.159 4.26139C12.494 4.38203 12.7967 4.57842 13.0434 4.83524C13.29 5.09206 13.4741 5.40238 13.5811 5.74201C13.6882 6.08164 13.7153 6.4414 13.6605 6.79325L13.607 7.13613L13.9096 7.30614C14.4639 7.61763 14.8993 8.10408 15.1476 8.68939C15.396 9.27469 15.4434 9.92582 15.2823 10.5409C15.1212 11.156 14.7608 11.7003 14.2574 12.0887C13.754 12.4771 13.136 12.6877 12.5002 12.6875H12.5H4.06251H4.06228C3.28027 12.6879 2.52151 12.4216 1.91124 11.9326C1.30097 11.4436 0.875662 10.7612 0.70552 9.9979C0.535378 9.23463 0.630572 8.43615 0.975389 7.73427C1.32021 7.03239 1.89403 6.46906 2.60216 6.13726ZM6.93751 5.3125V7.81039L6.50106 7.37395L6.49483 7.36771L6.48837 7.36169C6.28696 7.17402 6.02056 7.07184 5.7453 7.0767C5.47004 7.08155 5.20741 7.19306 5.01274 7.38773C4.81807 7.5824 4.70656 7.84503 4.70171 8.12029C4.69685 8.39555 4.79903 8.66195 4.98671 8.86336L4.99272 8.86981L4.99896 8.87605L7.24896 11.1261L7.24918 11.1263C7.4484 11.3252 7.71845 11.437 8.00001 11.437C8.28157 11.437 8.55162 11.3252 8.75084 11.1263L8.75106 11.1261L10.9958 8.88128C11.0968 8.78541 11.1779 8.67061 11.2346 8.5434C11.2926 8.41307 11.3239 8.27237 11.3264 8.12971C11.3289 7.98705 11.3026 7.84534 11.2492 7.71304C11.1958 7.58074 11.1162 7.46056 11.0153 7.35967C10.9145 7.25878 10.7943 7.17924 10.662 7.1258C10.5297 7.07236 10.388 7.04612 10.2453 7.04863C10.1026 7.05115 9.96194 7.08238 9.83161 7.14045L10.0351 7.59716L9.83161 7.14045C9.70439 7.19713 9.58959 7.27826 9.49372 7.37919L9.06251 7.81039V5.3125C9.06251 5.03071 8.95057 4.76046 8.75131 4.5612L8.39776 4.91475L8.75131 4.5612C8.55205 4.36194 8.2818 4.25 8.00001 4.25C7.71822 4.25 7.44797 4.36194 7.24871 4.5612C7.04945 4.76046 6.93751 5.03071 6.93751 5.3125Z" fill="#111827" stroke="#111827"/>
</svg>
