<svg width="164" height="180" viewBox="0 0 164 180" fill="none" xmlns="http://www.w3.org/2000/svg">
<g clip-path="url(#clip0_303_4127)">
<path d="M113.192 174.743H108.792L106.697 157.762H113.197L113.192 174.743Z" fill="#C9979E"/>
<path d="M114.315 179.009H100.115V178.829C100.115 177.363 100.697 175.958 101.734 174.922C102.77 173.886 104.175 173.304 105.64 173.304H114.311L114.315 179.009Z" fill="#2F2E41"/>
<path d="M70.284 174.394L66.11 172.994L69.522 156.228L75.6819 158.293L70.284 174.394Z" fill="#C9979E"/>
<path d="M69.991 178.797L56.532 174.285L56.5889 174.115C56.8196 173.427 57.1835 172.792 57.6599 172.244C58.1362 171.697 58.7157 171.249 59.3653 170.926C60.0148 170.602 60.7217 170.41 61.4456 170.36C62.1694 170.31 62.8961 170.403 63.584 170.633L71.804 173.389L69.991 178.797Z" fill="#2F2E41"/>
<path d="M75.71 86.9841L66.177 167.632L75.527 168.421C75.527 168.421 90.235 89.1301 94.77 98.5211C99.305 107.912 104.86 166.659 104.86 166.659H114.14C114.14 166.659 116.52 75.0001 106.803 70.4661L75.71 86.9841Z" fill="#2F2E41"/>
<path d="M100.422 20.5426C101.322 15.4337 97.9098 10.5625 92.8008 9.66245C87.6919 8.76243 82.8207 12.1744 81.9206 17.2834C81.0206 22.3923 84.4326 27.2635 89.5416 28.1636C94.6505 29.0636 99.5217 25.6516 100.422 20.5426Z" fill="#C9979E"/>
<path d="M85.589 31.762L97.573 32.734C97.573 32.734 107.128 32.896 111.014 35.487C114.9 38.078 107.289 54.11 107.289 54.11C107.289 54.11 105.31 60.466 106.803 63.341C111.647 72.667 110.929 79.849 110.929 79.849C110.929 79.849 100.973 82.126 83.807 86.661C83.807 86.661 73.119 90.871 73.443 88.604C73.767 86.337 77.002 60.426 77.002 60.426V33.543L85.589 31.762Z" fill="#3F3D56"/>
<path d="M106.553 17.896C106.037 14.5005 104.681 11.2877 102.607 8.55007C102.682 8.55007 102.757 8.55007 102.833 8.55007C103.244 8.58495 103.656 8.50718 104.026 8.32518C104.396 8.14318 104.71 7.86379 104.933 7.51704C105.043 7.21698 105.07 6.8931 105.012 6.5789C104.955 6.26471 104.814 5.97165 104.605 5.73006C104.18 5.25243 103.672 4.85597 103.105 4.56004C103.682 4.91004 104.498 5.23605 104.958 4.74205C105.076 4.59331 105.15 4.41396 105.17 4.22499C105.19 4.03602 105.155 3.84527 105.071 3.67506C104.896 3.33737 104.65 3.04131 104.351 2.80705C103.381 1.94918 102.319 1.20036 101.186 0.574051C100.308 0.0890515 99.1539 -0.299946 98.3659 0.320054C97.5779 0.940054 97.692 2.18206 97.899 3.18306C97.4497 2.92033 96.9446 2.76782 96.425 2.73805C96.1652 2.73063 95.9109 2.81302 95.7049 2.97133C95.4988 3.12964 95.3537 3.35417 95.294 3.60704C95.2865 3.80654 95.3305 4.00462 95.422 4.18208C95.5134 4.35955 95.6491 4.51038 95.816 4.62004C92.716 4.11104 88.762 4.68907 83.703 7.02907C83.703 7.02907 78.798 8.66405 78.549 15.121C78.5236 16.1537 78.6379 17.1851 78.889 18.1871C79.165 19.3581 80.149 25.1001 78.969 27.4211L84.876 29.521L84.944 25.983C80.353 19.356 82.621 16.9241 84.409 12.9381C84.4119 12.9308 84.4167 12.9245 84.423 12.9198C84.4293 12.9152 84.4368 12.9124 84.4446 12.9118C84.4524 12.9112 84.4602 12.9128 84.4671 12.9163C84.4741 12.9199 84.48 12.9253 84.484 12.9321C84.814 13.4991 86.084 15.4421 90.437 15.4421L88.754 13.759C88.754 13.759 96.161 16.789 98.854 16.789C98.854 16.789 100.874 18.1361 98.854 20.1561C96.834 22.1761 92.413 25.1501 94.769 28.8561C97.125 32.5621 96.924 33.8761 96.924 33.8761L102.311 30.8461C102.311 30.8461 105.601 24.3361 106.185 22.4191C106.664 20.9621 106.79 19.4122 106.552 17.897L106.553 17.896Z" fill="#2F2E41"/>
<path d="M41.822 90.886H148.99V150.286H135.378V166.621L120.713 150.286H41.822V90.886Z" fill="#0ACF83"/>
<path d="M131.417 108.335H59.394V111.553H131.417V108.335Z" fill="white"/>
<path d="M131.417 118.978H59.394V122.196H131.417V118.978Z" fill="white"/>
<path d="M131.417 129.62H59.394V132.838H131.417V129.62Z" fill="white"/>
<path d="M112.188 52.825L105.902 54.353L105.854 67.075L98.784 91.4749C98.218 91.9224 97.7853 92.5164 97.533 93.1924C97.2807 93.8685 97.2184 94.6007 97.3529 95.3096C97.4873 96.0185 97.8134 96.6771 98.2957 97.2138C98.778 97.7505 99.3981 98.1448 100.089 98.354C100.779 98.5631 101.514 98.5792 102.213 98.4003C102.912 98.2214 103.549 97.8544 104.054 97.3393C104.559 96.8241 104.914 96.1803 105.079 95.4779C105.244 94.7755 105.214 94.0413 104.991 93.3549L113.443 68.094L112.188 52.825Z" fill="#C9979E"/>
<path d="M70.3521 52.5579L77.893 54.7129L77.941 67.4349L85.011 91.8349C85.5771 92.2824 86.0097 92.8764 86.262 93.5524C86.5143 94.2284 86.5766 94.9606 86.4421 95.6695C86.3077 96.3785 85.9816 97.037 85.4993 97.5737C85.017 98.1104 84.3969 98.5047 83.7064 98.7139C83.0158 98.9231 82.2811 98.9391 81.5821 98.7602C80.8831 98.5813 80.2464 98.2143 79.7411 97.6992C79.2359 97.184 78.8815 96.5403 78.7162 95.8379C78.551 95.1355 78.5814 94.4012 78.804 93.7149L70.3521 68.4539V52.5579Z" fill="#C9979E"/>
<path d="M102.755 34.191L104.313 33.683C105.188 33.3977 106.139 33.4637 106.966 33.867C106.966 33.867 111.5 34.191 112.148 37.43C112.796 40.669 114.371 68.978 114.371 68.978L104.771 65.922L102.755 34.191Z" fill="#3F3D56"/>
<path d="M80.892 34.191L78.135 34.052L77.262 33.615C77.262 33.615 72.148 34.19 71.5 37.429C70.852 40.668 68.969 69.851 68.969 69.851L78.569 67.232L80.892 34.191Z" fill="#3F3D56"/>
<path d="M18.168 148.937L22.721 144.966C22.526 142.115 22.1704 139.277 21.656 136.466L19.144 137.529L21.475 135.496C20.804 132.024 20.14 129.768 20.14 129.768C20.14 129.768 10.955 137.925 5.81501 147.875L8.07001 155.292L4.62601 150.392C4.11389 151.576 3.67667 152.791 3.31699 154.03C-0.267009 166.53 0.911003 177.838 5.948 179.282C10.985 180.726 17.974 171.761 21.558 159.259C22.6037 155.254 23.0293 151.113 22.82 146.979L18.168 148.937Z" fill="#F1F1F1"/>
<path d="M30.2229 158.658L36.1729 157.612C37.4809 155.069 38.6444 152.455 39.6579 149.781L36.9579 149.392L40.0039 148.856C41.2239 145.538 41.8219 143.263 41.8219 143.263C41.8219 143.263 29.7429 145.498 20.1989 151.363L18.2989 158.878L17.886 152.899C16.8358 153.648 15.8339 154.462 14.886 155.337C5.35495 164.187 0.518933 174.474 4.08593 178.314C7.65293 182.154 18.2679 178.092 27.7989 169.242C30.7642 166.354 33.2693 163.029 35.2269 159.382L30.2229 158.658Z" fill="#F1F1F1"/>
<path d="M163.397 179.425H0.602966C0.457966 179.425 0.339966 179.232 0.339966 178.994C0.339966 178.756 0.457966 178.563 0.602966 178.563H163.397C163.543 178.563 163.66 178.756 163.66 178.994C163.66 179.232 163.54 179.425 163.397 179.425Z" fill="#CBCBCB"/>
</g>
<defs>
<clipPath id="clip0_303_4127">
<rect width="163.32" height="179.757" fill="white" transform="translate(0.339966)"/>
</clipPath>
</defs>
</svg>
