<svg width="24" height="24" viewBox="0 0 24 24" fill="none" xmlns="http://www.w3.org/2000/svg">
<g id="vuesax/bold/home">
<g id="Group">
<path id="Vector" d="M10.0427 3.15015L10.0431 3.14984C11.1273 2.27903 12.8675 2.28412 13.968 3.16072C13.9681 3.16082 13.9682 3.16093 13.9684 3.16103L20.514 8.39754C20.5146 8.39801 20.5152 8.39847 20.5157 8.39893C20.893 8.7071 21.2196 9.18941 21.4304 9.74097C21.641 10.2922 21.7196 10.8699 21.6462 11.3509L20.3873 18.8845C20.3872 18.8849 20.3872 18.8854 20.3871 18.8859C20.1374 20.3188 18.7432 21.5 17.3 21.5H6.69996C5.23549 21.5 3.8725 20.3476 3.62294 18.8965C3.62288 18.8961 3.62282 18.8958 3.62276 18.8954L2.36313 11.3576L2.36293 11.3564C2.28079 10.8718 2.35452 10.2929 2.56465 9.74191C2.77476 9.19093 3.10548 8.70908 3.4918 8.40084L3.49267 8.40015L10.0427 3.15015ZM12 19.25C12.6861 19.25 13.25 18.6861 13.25 18V15C13.25 14.3139 12.6861 13.75 12 13.75C11.3138 13.75 10.75 14.3139 10.75 15V18C10.75 18.6861 11.3138 19.25 12 19.25Z" fill="white" stroke="white"/>
</g>
</g>
</svg>
