<svg width="12" height="14" viewBox="0 0 12 14" fill="none" xmlns="http://www.w3.org/2000/svg">
<path fill-rule="evenodd" clip-rule="evenodd" d="M5.69333 13.7412L5.74 13.7679L5.75867 13.7786C5.83269 13.8186 5.91552 13.8396 5.99967 13.8396C6.08382 13.8396 6.16664 13.8186 6.24067 13.7786L6.25933 13.7686L6.30667 13.7412C6.56741 13.5866 6.82184 13.4216 7.06933 13.2466C7.71005 12.7942 8.30869 12.2851 8.858 11.7252C10.154 10.3986 11.5 8.40524 11.5 5.84058C11.5 4.38189 10.9205 2.98294 9.88909 1.95149C8.85764 0.920039 7.45869 0.340576 6 0.340576C4.54131 0.340576 3.14236 0.920039 2.11091 1.95149C1.07946 2.98294 0.5 4.38189 0.5 5.84058C0.5 8.40458 1.84667 10.3986 3.142 11.7252C3.6911 12.285 4.28952 12.7942 4.93 13.2466C5.17771 13.4216 5.43236 13.5867 5.69333 13.7412ZM6 7.84058C6.53043 7.84058 7.03914 7.62986 7.41421 7.25479C7.78929 6.87972 8 6.37101 8 5.84058C8 5.31014 7.78929 4.80144 7.41421 4.42636C7.03914 4.05129 6.53043 3.84058 6 3.84058C5.46957 3.84058 4.96086 4.05129 4.58579 4.42636C4.21071 4.80144 4 5.31014 4 5.84058C4 6.37101 4.21071 6.87972 4.58579 7.25479C4.96086 7.62986 5.46957 7.84058 6 7.84058Z" fill="#EF4444"/>
</svg>
