<svg width="123" height="123" viewBox="0 0 123 123" fill="none" xmlns="http://www.w3.org/2000/svg">
<g id="6184160_3180763 1">
<g id="Background_Simple">
<g id="Group">
<path id="Vector" d="M87.6729 32.1918C87.6729 32.1918 77.7687 21.3403 62.0867 21.8652C46.4047 22.3902 33.0341 32.8919 21.9742 41.1182C10.9143 49.3444 7.9431 62.1214 14.3809 72.0979C20.8187 82.0745 31.0531 77.8738 44.0938 84.3497C57.1345 90.8257 59.6105 94.5014 74.1368 92.926C88.6631 91.3509 99.723 75.2482 98.0721 58.0956C96.4217 40.943 87.6729 32.1918 87.6729 32.1918Z" fill="#97D3DE"/>
<path id="Vector_2" opacity="0.7" d="M87.6729 32.1918C87.6729 32.1918 77.7687 21.3403 62.0867 21.8652C46.4047 22.3902 33.0341 32.8919 21.9742 41.1182C10.9143 49.3444 7.9431 62.1214 14.3809 72.0979C20.8187 82.0745 31.0531 77.8738 44.0938 84.3497C57.1345 90.8257 59.6105 94.5014 74.1368 92.926C88.6631 91.3509 99.723 75.2482 98.0721 58.0956C96.4217 40.943 87.6729 32.1918 87.6729 32.1918Z" fill="white"/>
</g>
</g>
<g id="Ground">
<g id="Group_2">
<path id="Vector_3" d="M63.3755 99.2047C90.3464 99.2047 112.211 98.0121 112.211 96.541C112.211 95.0699 90.3464 93.8773 63.3755 93.8773C36.4046 93.8773 14.5403 95.0699 14.5403 96.541C14.5403 98.0121 36.4046 99.2047 63.3755 99.2047Z" fill="#CCC8C4"/>
<path id="Vector_4" opacity="0.3" d="M63.3755 99.2047C90.3464 99.2047 112.211 98.0121 112.211 96.541C112.211 95.0699 90.3464 93.8773 63.3755 93.8773C36.4046 93.8773 14.5403 95.0699 14.5403 96.541C14.5403 98.0121 36.4046 99.2047 63.3755 99.2047Z" fill="white"/>
</g>
</g>
<g id="Plants">
<g id="Group_3">
<g id="Group_4">
<g id="Group_5">
<path id="Vector_5" d="M92.2347 56.3837C92.2207 56.3852 92.4062 55.4666 92.4244 55.41C92.637 54.7549 93.4325 53.6135 94.2037 53.615C94.7594 53.6159 95.1358 54.1217 95.081 54.6521C95.0251 55.1938 94.5385 55.6555 94.0984 55.9222C93.5818 56.2349 92.2357 56.3837 92.2347 56.3837Z" fill="#13AB19"/>
<path id="Vector_6" d="M90.7413 50.2052C91.4672 50.4657 91.8284 51.8091 91.8057 52.4976C91.8038 52.5572 91.6663 53.4841 91.6535 53.4779C91.6535 53.4779 91.6417 53.472 91.6387 53.4706C91.6972 53.6821 91.7578 53.9099 91.8188 54.1599C91.9277 54.6223 92.0468 55.1461 92.1376 55.7247C92.2301 56.3025 92.3142 56.9333 92.3428 57.6053C92.3725 58.2791 92.3693 58.9893 92.2714 59.7207C92.2704 59.7288 92.2682 59.7374 92.267 59.7458C92.3622 59.5409 92.647 58.9763 92.6739 58.9354C93.0517 58.3596 94.1203 57.4688 94.864 57.674C95.3998 57.8218 95.6293 58.409 95.4364 58.9059C95.2394 59.4137 94.6483 59.7305 94.1536 59.8712C93.5956 60.0301 92.3516 59.8425 92.2525 59.8272C92.1528 60.5229 91.9939 61.2287 91.7942 61.9339C91.6803 62.3374 91.5531 62.7401 91.4203 63.1423C91.5081 62.9676 91.588 62.8122 91.6016 62.7917C91.9794 62.2159 93.048 61.3253 93.7917 61.5303C94.3275 61.6779 94.5567 62.2651 94.3641 62.7622C94.1673 63.27 93.5759 63.5868 93.081 63.7278C92.5789 63.8707 91.5152 63.732 91.234 63.6916C91.1814 63.8454 91.1307 63.9996 91.0776 64.1531C90.823 64.8899 90.5654 65.6242 90.3351 66.3521C90.2537 66.6084 90.1831 66.864 90.1115 67.1196C90.1898 66.9646 90.2569 66.8348 90.2692 66.8161C90.6471 66.2402 91.7157 65.3494 92.4596 65.5546C92.9954 65.7022 93.2249 66.2896 93.032 66.7868C92.8352 67.2943 92.2439 67.6114 91.7489 67.7521C91.2697 67.8884 90.2867 67.7693 89.9524 67.7228C89.8869 67.9865 89.821 68.2507 89.7693 68.5093C89.7381 68.6866 89.6958 68.8552 89.6744 69.035C89.6495 69.2126 89.6247 69.3885 89.6003 69.5626C89.5657 69.8999 89.5275 70.2475 89.5017 70.5771C89.482 70.8064 89.4677 71.0251 89.4525 71.2455C89.5305 70.9892 89.6936 70.4908 89.712 70.4507C89.9022 70.0345 90.3733 69.4362 90.8926 69.1068C90.9204 69.0453 90.9533 68.9863 90.9922 68.9307C91.298 68.494 91.9137 68.3582 92.3344 68.7213C92.9184 69.2254 92.7725 70.6089 92.5039 71.2431C92.4881 71.2805 92.2707 71.6672 92.1297 71.909C92.2343 71.7794 92.3341 71.6524 92.4436 71.5206C92.6579 71.2581 92.8793 71.0025 93.1167 70.7265C93.236 70.5973 93.3565 70.4669 93.4783 70.3351C93.5961 70.2018 93.7376 70.076 93.8679 69.9444C94.1767 69.6463 94.5039 69.359 94.8399 69.0768C94.6106 68.8886 93.8055 68.2087 93.574 67.7464C93.3435 67.2864 93.1777 66.6365 93.419 66.1484C93.6552 65.6704 94.2431 65.4429 94.7139 65.7381C95.3676 66.1477 95.433 67.5376 95.2635 68.2052C95.2529 68.2468 95.0775 68.7122 94.9764 68.9661C95.1799 68.7981 95.3818 68.6293 95.5931 68.4662C96.203 67.9949 96.8347 67.5366 97.463 67.0768C97.6556 66.9361 97.8455 66.7934 98.0367 66.6515C97.9543 66.5853 96.9801 65.7979 96.7208 65.2803C96.4903 64.8205 96.3245 64.1703 96.5658 63.6823C96.802 63.2043 97.3899 62.9767 97.8608 63.2719C98.5144 63.6818 98.5798 65.0714 98.4103 65.7391C98.3975 65.7895 98.1442 66.4586 98.0716 66.6259C98.4918 66.313 98.9077 65.9974 99.3053 65.6695C99.8544 65.2178 100.368 64.7445 100.832 64.2488C100.793 64.2181 99.7727 63.4008 99.507 62.8707C99.2765 62.4107 99.1107 61.7608 99.352 61.2724C99.5882 60.7945 100.176 60.5669 100.647 60.8621C101.301 61.272 101.366 62.6616 101.197 63.3293C101.185 63.373 100.993 63.8837 100.896 64.1241C100.916 64.1369 100.912 64.1347 100.933 64.1474C101.423 63.6107 101.831 63.0289 102.185 62.4655C102.391 62.1396 102.57 61.8166 102.736 61.4985C102.531 61.3659 101.598 60.7487 101.306 60.298C101.026 59.8663 100.79 59.2383 100.976 58.7266C101.158 58.2255 101.718 57.9347 102.218 58.1765C102.913 58.5121 103.13 59.886 103.035 60.5684C103.03 60.6055 102.936 60.9768 102.864 61.2464C102.937 61.1017 103.015 60.9536 103.082 60.8134C103.336 60.2882 103.536 59.7915 103.709 59.3504C103.806 59.0988 103.888 58.8693 103.963 58.6538C103.829 58.4181 103.302 57.4622 103.251 56.9374C103.202 56.4253 103.282 55.7593 103.683 55.3908C104.076 55.0302 104.706 55.03 105.039 55.475C105.501 56.0929 105.06 57.4125 104.662 57.9743C104.627 58.0228 104.001 58.7202 103.994 58.7079C103.994 58.7079 103.988 58.6966 103.986 58.6936C103.918 58.9025 103.843 59.1256 103.756 59.3677C103.592 59.8137 103.402 60.316 103.159 60.8488C102.917 61.3819 102.64 61.9544 102.292 62.5307C101.946 63.1091 101.551 63.6997 101.066 64.2557C101.06 64.2621 101.054 64.2677 101.048 64.2741C101.241 64.1556 101.79 63.8422 101.835 63.823C102.468 63.5511 103.85 63.3979 104.357 63.9789C104.723 64.3976 104.59 65.0141 104.155 65.3223C103.711 65.6372 103.043 65.5752 102.552 65.4198C101.999 65.2444 101.065 64.4016 100.991 64.3342C100.524 64.8594 100.002 65.3605 99.4465 65.8385C99.1289 66.1122 98.8005 66.3779 98.4679 66.6402C98.6376 66.543 98.7899 66.4574 98.8125 66.4478C99.4455 66.176 100.828 66.0227 101.335 66.604C101.701 67.0227 101.568 67.6392 101.133 67.9474C100.689 68.2623 100.021 68.2003 99.5304 68.0448C99.0327 67.8869 98.2219 67.1846 98.0099 66.9956C97.8812 67.095 97.754 67.1954 97.6249 67.2943C97.0059 67.7683 96.386 68.2387 95.7924 68.7186C95.5831 68.8876 95.3831 69.0618 95.1823 69.2355C95.3331 69.1494 95.4608 69.078 95.4815 69.0692C96.1144 68.7973 97.4972 68.6441 98.0042 69.2251C98.3695 69.6438 98.2369 70.2603 97.8017 70.5685C97.3575 70.8832 96.6896 70.8214 96.199 70.666C95.7243 70.5154 94.97 69.8736 94.7169 69.6505C94.5169 69.8345 94.3159 70.0182 94.1304 70.2054C94.0067 70.3363 93.8783 70.4534 93.7612 70.5917C93.6424 70.726 93.5248 70.8591 93.4082 70.9909C93.1932 71.2529 92.9696 71.522 92.7664 71.7828C92.6234 71.9631 92.4908 72.1375 92.3565 72.3129C92.5629 72.1422 92.974 71.8165 93.0114 71.7931C93.5956 71.4286 94.9393 71.0674 95.5287 71.5653C95.9533 71.924 95.9157 72.5533 95.5321 72.9237C95.1405 73.3023 94.4711 73.3422 93.9627 73.263C93.403 73.1754 92.39 72.5156 92.264 72.4325C92.0429 72.7235 91.8306 73.0086 91.6345 73.2809C90.9526 74.2234 90.4207 75.0339 90.0569 75.6056C90.0439 75.6261 90.0326 75.6443 90.02 75.6639L89.5479 75.4349C89.5723 75.398 89.5959 75.3621 89.6222 75.3227C90.003 74.7523 90.5578 73.9456 91.267 73.0091C91.4904 72.7127 91.7349 72.4005 91.989 72.0822C91.9236 72.0106 91.5538 71.6012 91.2567 71.1754C90.7147 71.3877 89.5863 71.3961 89.4404 71.3963C89.4166 71.7611 89.3969 72.1159 89.3836 72.4512C89.3349 73.6133 89.3384 74.583 89.3502 75.2605C89.3507 75.2883 89.3511 75.3129 89.3519 75.3397L88.8331 75.0881C88.8382 74.4148 88.8587 73.5041 88.9273 72.4276C88.9499 72.0571 88.9816 71.6618 89.0181 71.2561C88.8741 71.2199 87.7007 70.9186 87.2577 70.5646C86.8557 70.2436 86.4328 69.7228 86.4474 69.1784C86.4616 68.6453 86.9002 68.1924 87.4513 68.2633C88.2163 68.3614 88.8579 69.5961 88.9839 70.2731C88.9912 70.3129 89.0235 70.7555 89.0392 71.035C89.055 70.8694 89.0685 70.7083 89.0867 70.5378C89.1206 70.2008 89.1644 69.8652 89.2102 69.5041C89.2385 69.3307 89.2668 69.1553 89.2958 68.9781C89.3206 68.802 89.3691 68.619 89.4053 68.4374C89.4983 68.0185 89.6126 67.5983 89.7374 67.1774C89.4422 67.1469 88.3957 67.0239 87.9477 66.7664C87.5017 66.5098 87.0048 66.0591 86.9369 65.5189C86.8702 64.99 87.235 64.4759 87.7908 64.4621C88.562 64.4434 89.3831 65.5664 89.6102 66.2166C89.6245 66.2571 89.7349 66.742 89.7905 67.0097C89.8675 66.7573 89.9428 66.5051 90.0291 66.2525C90.2776 65.5231 90.5519 64.7922 90.8222 64.0621C90.9051 63.8385 90.9851 63.6146 91.066 63.391C90.961 63.3814 89.7137 63.2619 89.2122 62.9733C88.7662 62.717 88.2692 62.266 88.2013 61.7258C88.1347 61.1969 88.4995 60.6825 89.0552 60.6693C89.8264 60.6506 90.6476 61.7736 90.8746 62.4237C90.8916 62.4727 91.0498 63.1706 91.0813 63.3502C91.2591 62.8574 91.4321 62.3647 91.5826 61.8719C91.7915 61.1925 91.9585 60.514 92.0721 59.8452C92.0232 59.8407 90.7211 59.7222 90.207 59.4265C89.761 59.1699 89.2641 58.7192 89.1962 58.179C89.1295 57.6501 89.4943 57.136 90.05 57.1224C90.8212 57.1037 91.6424 58.2267 91.8694 58.8769C91.8845 58.9195 92.0052 59.4511 92.0569 59.7054C92.0812 59.7047 92.0768 59.7049 92.1009 59.7042C92.2138 58.9861 92.2325 58.2762 92.2175 57.6107C92.2097 57.2253 92.1804 56.8572 92.144 56.5C91.8992 56.5028 90.7804 56.503 90.2884 56.288C89.8171 56.0821 89.2737 55.6887 89.1465 55.1591C89.0222 54.6405 89.3283 54.0895 89.8791 54.015C90.6434 53.9116 91.5829 54.9377 91.88 55.5591C91.8963 55.5928 92.0225 55.9547 92.1108 56.2194C92.0918 56.0585 92.0753 55.8919 92.0542 55.7379C91.976 55.1598 91.8689 54.6354 91.7703 54.1717C91.712 53.9084 91.6542 53.6715 91.5976 53.4504C91.356 53.3276 90.3885 52.8214 90.0569 52.4115C89.7334 52.0115 89.4326 51.412 89.5639 50.8834C89.6923 50.3655 90.218 50.0175 90.7413 50.2052Z" fill="#13AB19"/>
<path id="Vector_7" d="M104.686 62.0951C104.082 62.071 102.877 61.4523 102.876 61.452C102.864 61.4456 103.525 60.7817 103.571 60.7445C104.11 60.3153 105.403 59.8024 106.046 60.2289C106.509 60.5364 106.544 61.1659 106.206 61.578C105.86 61.9989 105.2 62.1155 104.686 62.0951Z" fill="#13AB19"/>
</g>
<g id="Group_6" opacity="0.5">
<path id="Vector_8" d="M92.2347 56.3837C92.2207 56.3852 92.4062 55.4666 92.4244 55.41C92.637 54.7549 93.4325 53.6135 94.2037 53.615C94.7594 53.6159 95.1358 54.1217 95.081 54.6521C95.0251 55.1938 94.5385 55.6555 94.0984 55.9222C93.5818 56.2349 92.2357 56.3837 92.2347 56.3837Z" fill="white"/>
<path id="Vector_9" d="M90.7413 50.2052C91.4672 50.4657 91.8284 51.8091 91.8057 52.4976C91.8038 52.5572 91.6663 53.4841 91.6535 53.4779C91.6535 53.4779 91.6417 53.472 91.6387 53.4706C91.6972 53.6821 91.7578 53.9099 91.8188 54.1599C91.9277 54.6223 92.0468 55.1461 92.1376 55.7247C92.2301 56.3025 92.3142 56.9333 92.3428 57.6053C92.3725 58.2791 92.3693 58.9893 92.2714 59.7207C92.2704 59.7288 92.2682 59.7374 92.267 59.7458C92.3622 59.5409 92.647 58.9763 92.6739 58.9354C93.0517 58.3596 94.1203 57.4688 94.864 57.674C95.3998 57.8218 95.6293 58.409 95.4364 58.9059C95.2394 59.4137 94.6483 59.7305 94.1536 59.8712C93.5956 60.0301 92.3516 59.8425 92.2525 59.8272C92.1528 60.5229 91.9939 61.2287 91.7942 61.9339C91.6803 62.3374 91.5531 62.7401 91.4203 63.1423C91.5081 62.9676 91.588 62.8122 91.6016 62.7917C91.9794 62.2159 93.048 61.3253 93.7917 61.5303C94.3275 61.6779 94.5567 62.2651 94.3641 62.7622C94.1673 63.27 93.5759 63.5868 93.081 63.7278C92.5789 63.8707 91.5152 63.732 91.234 63.6916C91.1814 63.8454 91.1307 63.9996 91.0776 64.1531C90.823 64.8899 90.5654 65.6242 90.3351 66.3521C90.2537 66.6084 90.1831 66.864 90.1115 67.1196C90.1898 66.9646 90.2569 66.8348 90.2692 66.8161C90.6471 66.2402 91.7157 65.3494 92.4596 65.5546C92.9954 65.7022 93.2249 66.2896 93.032 66.7868C92.8352 67.2943 92.2439 67.6114 91.7489 67.7521C91.2697 67.8884 90.2867 67.7693 89.9524 67.7228C89.8869 67.9865 89.821 68.2507 89.7693 68.5093C89.7381 68.6866 89.6958 68.8552 89.6744 69.035C89.6495 69.2126 89.6247 69.3885 89.6003 69.5626C89.5657 69.8999 89.5275 70.2475 89.5017 70.5771C89.482 70.8064 89.4677 71.0251 89.4525 71.2455C89.5305 70.9892 89.6936 70.4908 89.712 70.4507C89.9022 70.0345 90.3733 69.4362 90.8926 69.1068C90.9204 69.0453 90.9533 68.9863 90.9922 68.9307C91.298 68.494 91.9137 68.3582 92.3344 68.7213C92.9184 69.2254 92.7725 70.6089 92.5039 71.2431C92.4881 71.2805 92.2707 71.6672 92.1297 71.909C92.2343 71.7794 92.3341 71.6524 92.4436 71.5206C92.6579 71.2581 92.8793 71.0025 93.1167 70.7265C93.236 70.5973 93.3565 70.4669 93.4783 70.3351C93.5961 70.2018 93.7376 70.076 93.8679 69.9444C94.1767 69.6463 94.5039 69.359 94.8399 69.0768C94.6106 68.8886 93.8055 68.2087 93.574 67.7464C93.3435 67.2864 93.1777 66.6365 93.419 66.1484C93.6552 65.6704 94.2431 65.4429 94.7139 65.7381C95.3676 66.1477 95.433 67.5376 95.2635 68.2052C95.2529 68.2468 95.0775 68.7122 94.9764 68.9661C95.1799 68.7981 95.3818 68.6293 95.5931 68.4662C96.203 67.9949 96.8347 67.5366 97.463 67.0768C97.6556 66.9361 97.8455 66.7934 98.0367 66.6515C97.9543 66.5853 96.9801 65.7979 96.7208 65.2803C96.4903 64.8205 96.3245 64.1703 96.5658 63.6823C96.802 63.2043 97.3899 62.9767 97.8608 63.2719C98.5144 63.6818 98.5798 65.0714 98.4103 65.7391C98.3975 65.7895 98.1442 66.4586 98.0716 66.6259C98.4918 66.313 98.9077 65.9974 99.3053 65.6695C99.8544 65.2178 100.368 64.7445 100.832 64.2488C100.793 64.2181 99.7727 63.4008 99.507 62.8707C99.2765 62.4107 99.1107 61.7608 99.352 61.2724C99.5882 60.7945 100.176 60.5669 100.647 60.8621C101.301 61.272 101.366 62.6616 101.197 63.3293C101.185 63.373 100.993 63.8837 100.896 64.1241C100.916 64.1369 100.912 64.1347 100.933 64.1474C101.423 63.6107 101.831 63.0289 102.185 62.4655C102.391 62.1396 102.57 61.8166 102.736 61.4985C102.531 61.3659 101.598 60.7487 101.306 60.298C101.026 59.8663 100.79 59.2383 100.976 58.7266C101.158 58.2255 101.718 57.9347 102.218 58.1765C102.913 58.5121 103.13 59.886 103.035 60.5684C103.03 60.6055 102.936 60.9768 102.864 61.2464C102.937 61.1017 103.015 60.9536 103.082 60.8134C103.336 60.2882 103.536 59.7915 103.709 59.3504C103.806 59.0988 103.888 58.8693 103.963 58.6538C103.829 58.4181 103.302 57.4622 103.251 56.9374C103.202 56.4253 103.282 55.7593 103.683 55.3908C104.076 55.0302 104.706 55.03 105.039 55.475C105.501 56.0929 105.06 57.4125 104.662 57.9743C104.627 58.0228 104.001 58.7202 103.994 58.7079C103.994 58.7079 103.988 58.6966 103.986 58.6936C103.918 58.9025 103.843 59.1256 103.756 59.3677C103.592 59.8137 103.402 60.316 103.159 60.8488C102.917 61.3819 102.64 61.9544 102.292 62.5307C101.946 63.1091 101.551 63.6997 101.066 64.2557C101.06 64.2621 101.054 64.2677 101.048 64.2741C101.241 64.1556 101.79 63.8422 101.835 63.823C102.468 63.5511 103.85 63.3979 104.357 63.9789C104.723 64.3976 104.59 65.0141 104.155 65.3223C103.711 65.6372 103.043 65.5752 102.552 65.4198C101.999 65.2444 101.065 64.4016 100.991 64.3342C100.524 64.8594 100.002 65.3605 99.4465 65.8385C99.1289 66.1122 98.8005 66.3779 98.4679 66.6402C98.6376 66.543 98.7899 66.4574 98.8125 66.4478C99.4455 66.176 100.828 66.0227 101.335 66.604C101.701 67.0227 101.568 67.6392 101.133 67.9474C100.689 68.2623 100.021 68.2003 99.5304 68.0448C99.0327 67.8869 98.2219 67.1846 98.0099 66.9956C97.8812 67.095 97.754 67.1954 97.6249 67.2943C97.0059 67.7683 96.386 68.2387 95.7924 68.7186C95.5831 68.8876 95.3831 69.0618 95.1823 69.2355C95.3331 69.1494 95.4608 69.078 95.4815 69.0692C96.1144 68.7973 97.4972 68.6441 98.0042 69.2251C98.3695 69.6438 98.2369 70.2603 97.8017 70.5685C97.3575 70.8832 96.6896 70.8214 96.199 70.666C95.7243 70.5154 94.97 69.8736 94.7169 69.6505C94.5169 69.8345 94.3159 70.0182 94.1304 70.2054C94.0067 70.3363 93.8783 70.4534 93.7612 70.5917C93.6424 70.726 93.5248 70.8591 93.4082 70.9909C93.1932 71.2529 92.9696 71.522 92.7664 71.7828C92.6234 71.9631 92.4908 72.1375 92.3565 72.3129C92.5629 72.1422 92.974 71.8165 93.0114 71.7931C93.5956 71.4286 94.9393 71.0674 95.5287 71.5653C95.9533 71.924 95.9157 72.5533 95.5321 72.9237C95.1405 73.3023 94.4711 73.3422 93.9627 73.263C93.403 73.1754 92.39 72.5156 92.264 72.4325C92.0429 72.7235 91.8306 73.0086 91.6345 73.2809C90.9526 74.2234 90.4207 75.0339 90.0569 75.6056C90.0439 75.6261 90.0326 75.6443 90.02 75.6639L89.5479 75.4349C89.5723 75.398 89.5959 75.3621 89.6222 75.3227C90.003 74.7523 90.5578 73.9456 91.267 73.0091C91.4904 72.7127 91.7349 72.4005 91.989 72.0822C91.9236 72.0106 91.5538 71.6012 91.2567 71.1754C90.7147 71.3877 89.5863 71.3961 89.4404 71.3963C89.4166 71.7611 89.3969 72.1159 89.3836 72.4512C89.3349 73.6133 89.3384 74.583 89.3502 75.2605C89.3507 75.2883 89.3511 75.3129 89.3519 75.3397L88.8331 75.0881C88.8382 74.4148 88.8587 73.5041 88.9273 72.4276C88.9499 72.0571 88.9816 71.6618 89.0181 71.2561C88.8741 71.2199 87.7007 70.9186 87.2577 70.5646C86.8557 70.2436 86.4328 69.7228 86.4474 69.1784C86.4616 68.6453 86.9002 68.1924 87.4513 68.2633C88.2163 68.3614 88.8579 69.5961 88.9839 70.2731C88.9912 70.3129 89.0235 70.7555 89.0392 71.035C89.055 70.8694 89.0685 70.7083 89.0867 70.5378C89.1206 70.2008 89.1644 69.8652 89.2102 69.5041C89.2385 69.3307 89.2668 69.1553 89.2958 68.9781C89.3206 68.802 89.3691 68.619 89.4053 68.4374C89.4983 68.0185 89.6126 67.5983 89.7374 67.1774C89.4422 67.1469 88.3957 67.0239 87.9477 66.7664C87.5017 66.5098 87.0048 66.0591 86.9369 65.5189C86.8702 64.99 87.235 64.4759 87.7908 64.4621C88.562 64.4434 89.3831 65.5664 89.6102 66.2166C89.6245 66.2571 89.7349 66.742 89.7905 67.0097C89.8675 66.7573 89.9428 66.5051 90.0291 66.2525C90.2776 65.5231 90.5519 64.7922 90.8222 64.0621C90.9051 63.8385 90.9851 63.6146 91.066 63.391C90.961 63.3814 89.7137 63.2619 89.2122 62.9733C88.7662 62.717 88.2692 62.266 88.2013 61.7258C88.1347 61.1969 88.4995 60.6825 89.0552 60.6693C89.8264 60.6506 90.6476 61.7736 90.8746 62.4237C90.8916 62.4727 91.0498 63.1706 91.0813 63.3502C91.2591 62.8574 91.4321 62.3647 91.5826 61.8719C91.7915 61.1925 91.9585 60.514 92.0721 59.8452C92.0232 59.8407 90.7211 59.7222 90.207 59.4265C89.761 59.1699 89.2641 58.7192 89.1962 58.179C89.1295 57.6501 89.4943 57.136 90.05 57.1224C90.8212 57.1037 91.6424 58.2267 91.8694 58.8769C91.8845 58.9195 92.0052 59.4511 92.0569 59.7054C92.0812 59.7047 92.0768 59.7049 92.1009 59.7042C92.2138 58.9861 92.2325 58.2762 92.2175 57.6107C92.2097 57.2253 92.1804 56.8572 92.144 56.5C91.8992 56.5028 90.7804 56.503 90.2884 56.288C89.8171 56.0821 89.2737 55.6887 89.1465 55.1591C89.0222 54.6405 89.3283 54.0895 89.8791 54.015C90.6434 53.9116 91.5829 54.9377 91.88 55.5591C91.8963 55.5928 92.0225 55.9547 92.1108 56.2194C92.0918 56.0585 92.0753 55.8919 92.0542 55.7379C91.976 55.1598 91.8689 54.6354 91.7703 54.1717C91.712 53.9084 91.6542 53.6715 91.5976 53.4504C91.356 53.3276 90.3885 52.8214 90.0569 52.4115C89.7334 52.0115 89.4326 51.412 89.5639 50.8834C89.6923 50.3655 90.218 50.0175 90.7413 50.2052Z" fill="white"/>
<path id="Vector_10" d="M104.686 62.0951C104.082 62.071 102.877 61.4523 102.876 61.452C102.864 61.4456 103.525 60.7817 103.571 60.7445C104.11 60.3153 105.403 59.8024 106.046 60.2289C106.509 60.5364 106.544 61.1659 106.206 61.578C105.86 61.9989 105.2 62.1155 104.686 62.0951Z" fill="white"/>
</g>
</g>
<g id="Group_7">
<g id="Group_8">
<path id="Vector_11" d="M97.647 77.1889C97.647 77.1889 93.9902 68.3718 91.9423 68.755C89.8943 69.1383 95.4529 82.8115 95.4529 82.8115C95.4529 82.8115 89.0168 70.6719 84.6287 70.6719C80.2405 70.6719 86.2378 84.0894 91.7961 88.5617C91.7961 88.5617 83.0196 79.1055 77.9001 81.1502C72.7803 83.1947 88.1393 92.7787 88.1393 92.7787C88.1393 92.7787 79.2167 89.9674 80.2405 92.1398C81.2644 94.3122 84.0437 94.6955 84.0437 94.6955L73.9508 95.2067H109.057L101.158 94.4399C101.158 94.4399 109.349 90.3509 107.155 88.6896C104.961 87.0284 100.134 90.6065 100.134 90.6065C100.134 90.6065 108.472 81.4058 106.863 77.9557C105.254 74.5055 98.0861 84.2171 98.0861 84.2171C98.0861 84.2171 103.937 71.8219 102.767 69.6497C101.597 67.4771 97.647 77.1889 97.647 77.1889Z" fill="#13AB19"/>
<path id="Vector_12" opacity="0.4" d="M97.647 77.1889C97.647 77.1889 93.9902 68.3718 91.9423 68.755C89.8943 69.1383 95.4529 82.8115 95.4529 82.8115C95.4529 82.8115 89.0168 70.6719 84.6287 70.6719C80.2405 70.6719 86.2378 84.0894 91.7961 88.5617C91.7961 88.5617 83.0196 79.1055 77.9001 81.1502C72.7803 83.1947 88.1393 92.7787 88.1393 92.7787C88.1393 92.7787 79.2167 89.9674 80.2405 92.1398C81.2644 94.3122 84.0437 94.6955 84.0437 94.6955L73.9508 95.2067H109.057L101.158 94.4399C101.158 94.4399 109.349 90.3509 107.155 88.6896C104.961 87.0284 100.134 90.6065 100.134 90.6065C100.134 90.6065 108.472 81.4058 106.863 77.9557C105.254 74.5055 98.0861 84.2171 98.0861 84.2171C98.0861 84.2171 103.937 71.8219 102.767 69.6497C101.597 67.4771 97.647 77.1889 97.647 77.1889Z" fill="white"/>
</g>
<g id="Group_9">
<path id="Vector_13" d="M98.8172 77.6536C95.5993 87.1615 95.5993 93.8903 95.5993 93.8903C95.5993 93.8903 99.4025 94.0365 103.352 91.111" stroke="#263238" stroke-miterlimit="10" stroke-linecap="round" stroke-linejoin="round"/>
<path id="Vector_14" d="M97.2081 82.7731C97.2081 82.7731 96.4768 79.2624 94.5752 74.4354" stroke="#263238" stroke-miterlimit="10" stroke-linecap="round" stroke-linejoin="round"/>
<path id="Vector_15" d="M87.7003 77.2147L95.8916 89.3556C95.8916 89.3556 101.45 84.6747 103.352 82.0417" stroke="#263238" stroke-miterlimit="10" stroke-linecap="round" stroke-linejoin="round"/>
<path id="Vector_16" d="M95.7454 92.281C95.7454 92.281 87.1152 88.1853 83.6046 85.8449" stroke="#263238" stroke-miterlimit="10" stroke-linecap="round" stroke-linejoin="round"/>
</g>
</g>
</g>
</g>
<g id="Device">
<g id="Group_10">
<path id="Vector_17" d="M88.0001 95.2067H61.7165C60.641 95.2067 59.7689 94.3349 59.7689 93.2591V28.7616C59.7689 27.6861 60.6407 26.814 61.7165 26.814H87.9998C89.0754 26.814 89.9474 27.6858 89.9474 28.7616V93.2591C89.9474 94.3346 89.0756 95.2067 88.0001 95.2067Z" fill="white" stroke="#263238" stroke-miterlimit="10" stroke-linecap="round" stroke-linejoin="round"/>
<g id="Group_11">
<path id="Vector_18" d="M88.9396 38.7871C88.7177 38.7871 88.5378 38.6072 88.5378 38.3853V33.0107C88.5378 32.7888 88.7179 32.609 88.9396 32.609C89.1612 32.609 89.3413 32.7888 89.3413 33.0107V38.3851C89.3413 38.607 89.1615 38.7871 88.9396 38.7871Z" fill="#263238"/>
</g>
<g id="Group_12">
<path id="Vector_19" d="M88.9396 43.7661C88.7177 43.7661 88.5378 43.5863 88.5378 43.3644V40.361C88.5378 40.1391 88.7179 39.9593 88.9396 39.9593C89.1612 39.9593 89.3413 40.1391 89.3413 40.361V43.3644C89.3413 43.5863 89.1615 43.7661 88.9396 43.7661Z" fill="#263238"/>
</g>
<path id="Vector_20" d="M85.7234 95.2067H59.4397C58.3642 95.2067 57.4922 94.3349 57.4922 93.2591V28.7616C57.4922 27.6861 58.364 26.814 59.4397 26.814H85.7231C86.7986 26.814 87.6707 27.6858 87.6707 28.7616V93.2591C87.6707 94.3346 86.7989 95.2067 85.7234 95.2067Z" fill="#263238" stroke="#263238" stroke-miterlimit="10" stroke-linecap="round" stroke-linejoin="round"/>
<path id="Vector_21" d="M85.6614 31.3675H59.5015V90.0279H85.6614V31.3675Z" fill="#2D6080"/>
<path id="Vector_22" d="M68.6974 29.4924H75.662" stroke="white" stroke-width="3" stroke-miterlimit="10" stroke-linecap="round" stroke-linejoin="round"/>
<path id="Vector_23" d="M71.6441 92.1039C71.6441 92.5846 71.3442 92.9745 70.9745 92.9745C70.6047 92.9745 70.3048 92.5848 70.3048 92.1039C70.3048 91.6232 70.6047 91.2333 70.9745 91.2333C71.3442 91.2333 71.6441 91.6232 71.6441 92.1039Z" fill="white"/>
<g id="Group_13">
<path id="Vector_24" d="M72.5816 45.9658C75.0871 45.9658 77.1183 43.5973 77.1183 40.6756C77.1183 37.7539 75.0871 35.3854 72.5816 35.3854C70.076 35.3854 68.0448 37.7539 68.0448 40.6756C68.0448 43.5973 70.076 45.9658 72.5816 45.9658Z" fill="white"/>
<path id="Vector_25" d="M72.5816 40.6084C73.533 40.6084 74.3043 39.7091 74.3043 38.5996C74.3043 37.4902 73.533 36.5908 72.5816 36.5908C71.6301 36.5908 70.8588 37.4902 70.8588 38.5996C70.8588 39.7091 71.6301 40.6084 72.5816 40.6084Z" fill="#263238" stroke="#263238" stroke-miterlimit="10" stroke-linecap="round" stroke-linejoin="round"/>
<path id="Vector_26" d="M72.5815 41.1442C70.8529 41.1442 69.4517 42.4633 69.4517 44.0906C69.4517 44.2443 69.4679 44.3944 69.4923 44.542C70.3026 45.4227 71.3865 45.9656 72.5815 45.9656C73.7766 45.9656 74.8605 45.4227 75.6708 44.542C75.6949 44.3944 75.7114 44.2446 75.7114 44.0906C75.7114 42.4635 74.3099 41.1442 72.5815 41.1442Z" fill="#263238" stroke="#263238" stroke-miterlimit="10" stroke-linecap="round" stroke-linejoin="round"/>
</g>
<g id="Group_14">
<g id="Group_15">
<path id="Vector_27" d="M78.0974 63.7091H67.066C66.4827 63.7091 66.0097 63.1969 66.0097 62.5652V55.7616C66.0097 51.8369 68.9577 48.6443 72.5816 48.6443C76.2054 48.6443 79.1535 51.8371 79.1535 55.7616V62.5652C79.1535 63.1969 78.6806 63.7091 78.0974 63.7091ZM68.1221 61.4213H77.041V55.7616C77.041 53.0986 75.0406 50.9318 72.5816 50.9318C70.1225 50.9318 68.1221 53.0984 68.1221 55.7616V61.4213Z" fill="#263238"/>
</g>
<path id="Vector_28" d="M80.239 59.0661H64.9241V73.555H80.239V59.0661Z" fill="white"/>
<path id="Vector_29" d="M74.8133 69.0433L73.6775 66.3105C74.1592 65.956 74.4755 65.3583 74.4755 64.68C74.4755 63.592 73.661 62.7101 72.6566 62.7101C71.6522 62.7101 70.8377 63.592 70.8377 64.68C70.8377 65.3583 71.1543 65.956 71.6357 66.3105L70.4999 69.0433H74.8133Z" fill="#263238" stroke="#263238" stroke-miterlimit="10" stroke-linecap="round" stroke-linejoin="round"/>
</g>
<g id="Group_16">
<path id="Vector_30" d="M67.9164 86.5775C67.9403 86.595 67.9678 86.6033 67.9956 86.6033C68.0367 86.6033 68.0773 86.5844 68.1036 86.5487L85.6614 62.6638V62.2114L67.8876 86.3903C67.8441 86.4498 67.8569 86.5337 67.9164 86.5775Z" fill="white"/>
<path id="Vector_31" d="M82.1296 39.9716C82.0858 40.0311 82.0988 40.115 82.1584 40.1588C82.1822 40.1762 82.21 40.1848 82.2376 40.1848C82.2787 40.1848 82.3192 40.1659 82.3456 40.1302L85.6614 35.6198V35.1672L82.1296 39.9716Z" fill="white"/>
<path id="Vector_32" d="M59.5015 71.2067L81.1704 41.7292C81.2142 41.6694 81.2012 41.5858 81.1416 41.542C81.0828 41.4987 80.9987 41.5108 80.9544 41.5706L59.5015 70.7543V71.2067Z" fill="white"/>
<path id="Vector_33" d="M65.8778 89.4847C65.9189 89.4847 65.9595 89.4658 65.9858 89.4301L67.2069 87.7691C67.2505 87.7096 67.2377 87.6257 67.1782 87.5819C67.1194 87.5384 67.0352 87.5509 66.991 87.6107L65.7698 89.2717C65.7263 89.3312 65.7391 89.4151 65.7986 89.4589C65.8222 89.4763 65.85 89.4847 65.8778 89.4847Z" fill="white"/>
<path id="Vector_34" d="M85.6614 67.4456L71.2475 87.0535C71.2037 87.1133 71.2165 87.1969 71.2763 87.2407C71.3001 87.2582 71.3279 87.2665 71.3555 87.2665C71.3966 87.2665 71.4372 87.2476 71.4635 87.2119L85.6614 67.898V67.4456Z" fill="white"/>
</g>
</g>
</g>
<g id="Character">
<g id="Group_17">
<g id="Group_18">
<path id="Vector_35" d="M35.0334 39.8872C35.0334 39.8872 35.3775 39.2527 35.3775 38.1521C35.3775 37.0515 34.0454 36.4144 32.4814 36.2407C30.9175 36.067 30.2223 36.7042 30.4541 37.1096C30.6858 37.515 31.3229 37.9785 31.3229 37.9785C31.3229 37.9785 29.7591 37.1096 28.7163 37.8048C27.6738 38.5 29.1798 38.2102 28.89 38.9054C28.6002 39.6006 26.9786 39.3108 26.5732 41.1644C26.1678 43.018 27.3262 44.8714 26.2836 45.6824C25.2411 46.4933 22.1132 45.3929 21.1865 47.4202C20.2598 49.4475 21.5703 50.3459 19.3691 51.6201C17.1679 52.8944 15.5679 54.1392 16.205 57.2671C16.8422 60.395 18.9275 61.4953 23.0399 60.395C27.1523 59.2944 26.8627 56.8039 28.1951 54.2551C29.5274 51.7065 31.6125 52.2278 32.2496 50.7796C32.8868 49.3316 32.0759 47.5939 32.1338 46.2615C32.1916 44.9294 33.5239 44.6396 34.0452 43.0758C34.5667 41.5118 35.0334 39.8872 35.0334 39.8872Z" fill="#263238" stroke="#263238" stroke-miterlimit="10" stroke-linecap="round" stroke-linejoin="round"/>
<path id="Vector_36" d="M16.684 57.2206C16.5807 57.4272 16.5248 57.6585 16.5248 57.9217" stroke="white" stroke-width="0.5" stroke-miterlimit="10" stroke-linecap="round" stroke-linejoin="round"/>
<path id="Vector_37" d="M32.8098 38.7369C32.8098 38.7369 32.0848 37.9005 33.4791 38.2906C35.2329 38.7817 33.1736 40.8104 32.38 41.2185C30.7918 42.035 28.689 41.7742 27.4558 43.2542C26.3405 44.5927 27.8462 45.987 27.1769 47.0465C26.5077 48.106 23.8308 47.4928 22.9383 48.7754C22.046 50.058 24.5557 52.7909 21.9902 54.2966C20.1346 55.3857 18.1041 55.8039 17.1223 56.6693" stroke="white" stroke-width="0.5" stroke-miterlimit="10" stroke-linecap="round" stroke-linejoin="round"/>
<path id="Vector_38" d="M28.6487 43.6879C28.5136 44.0537 28.4312 44.4586 28.5154 44.8158C28.7385 45.7639 30.0211 47.5486 28.8499 48.5523C27.6787 49.5562 25.6711 49.5004 25.3363 50.6716C25.0017 51.8428 25.6709 55.0774 24.5555 56.5832C23.4401 58.089 21.265 57.9775 20.0938 58.9812C18.9226 59.9851 19.0899 60.5428 19.0899 60.5428" stroke="white" stroke-width="0.5" stroke-miterlimit="10" stroke-linecap="round" stroke-linejoin="round"/>
<path id="Vector_39" d="M29.2403 42.5851C29.2403 42.5851 29.1107 42.7605 28.9584 43.0296" stroke="white" stroke-width="0.5" stroke-miterlimit="10" stroke-linecap="round" stroke-linejoin="round"/>
</g>
<path id="Vector_40" d="M35.7829 57.1308L36.0673 59.3485C36.0673 59.3485 37.5457 60.8269 38.6262 61.7367C39.7066 62.6464 42.4928 64.5797 42.4928 64.5797L41.0712 64.9777C41.0712 64.9777 36.4653 62.2483 35.5556 62.0208C34.6459 61.7932 33.9635 60.4855 33.6791 60.0875C33.3947 59.6897 35.0437 56.7328 35.7829 57.1308Z" fill="white" stroke="#263238" stroke-miterlimit="10" stroke-linecap="round" stroke-linejoin="round"/>
<g id="Group_19">
<path id="Vector_41" d="M38.5984 93.1521C38.5984 93.1521 39.9896 94.3292 40.5603 94.7216C41.131 95.1139 41.8087 95.2923 41.7017 95.5063C41.5947 95.7203 41.3093 95.9343 39.9539 95.756C38.5984 95.5776 38.2061 95.1139 37.9564 95.0426C37.7067 94.9712 37.1003 95.1496 36.6366 94.8642C36.1729 94.5789 36.9084 92.8793 36.9084 92.8793C36.9084 92.8793 37.5997 93.7228 38.5984 93.1521Z" fill="white" stroke="#263238" stroke-miterlimit="10" stroke-linecap="round" stroke-linejoin="round"/>
<path id="Vector_42" d="M41.7014 95.5063C41.7071 95.4952 41.7093 95.4842 41.7105 95.4733C40.8857 95.585 40.1007 95.4217 39.3851 95.2532C38.5079 95.0468 38.2498 94.5823 37.4242 94.5823C37.007 94.5823 36.6828 94.5034 36.4633 94.4251C36.468 94.6254 36.5148 94.7895 36.6365 94.8645C37.1002 95.1498 37.7066 94.9715 37.9563 95.0428C38.206 95.1142 38.5984 95.5779 39.9538 95.7562C41.3091 95.9343 41.5944 95.7203 41.7014 95.5063Z" fill="white" stroke="#263238" stroke-miterlimit="10" stroke-linecap="round" stroke-linejoin="round"/>
</g>
<g id="Group_20">
<path id="Vector_43" d="M31.3087 45.6086C31.3087 45.6086 31.5776 47.4133 31.2319 48.1429C30.8863 48.8726 29.811 48.9493 28.8895 49.1028C27.968 49.2563 25.8561 50.0627 26.0864 52.1363C26.3169 54.2098 28.9663 58.7025 28.9663 59.9696C28.9663 61.2368 28.1599 61.8897 27.2767 64.3472C26.3936 66.8047 26.5087 71.3742 26.7776 74.3309C27.0465 77.2875 27.9296 80.0907 27.9296 80.0907C27.9296 80.0907 25.7026 83.6619 24.7425 85.1977C23.7826 86.7337 20.3265 93.4151 20.3265 93.4151C20.3265 93.4151 20.3265 93.6456 20.864 93.7991C21.4015 93.9526 22.016 93.8758 22.016 93.8758C22.016 93.8758 28.6206 85.9273 29.8494 84.5834C31.0782 83.2395 32.2302 80.8971 32.3837 79.8221C32.5372 78.7468 32.3453 72.1806 32.3453 72.1806C32.3453 72.1806 33.7276 75.4829 34.8029 77.1724C35.8781 78.8619 36.6051 80.3596 36.6051 80.3596C36.6051 80.3596 36.3389 82.625 36.6078 84.545C36.8766 86.4651 36.6496 92.6291 36.9185 93.1282C37.1873 93.6274 38.226 93.4192 38.4565 93.1887C38.6867 92.9582 38.7967 91.4569 38.7967 91.4569C38.7967 91.4569 39.2574 86.7723 39.5263 84.5834C39.7952 82.3947 40.256 80.5131 40.1022 80.014C39.9487 79.5148 38.9886 74.1774 38.2592 71.6431C37.5295 69.1088 35.3025 64.3856 34.8034 63.1568C34.3042 61.928 34.0354 60.8144 34.1121 60.4304C34.1889 60.0464 35.6865 57.7426 36.0705 57.1281C36.4545 56.5138 36.608 55.4002 36.1473 54.4017C35.6865 53.4034 36.1473 52.0593 36.0705 51.2529C35.9938 50.4465 34.8034 50.1008 34.1889 49.7936C33.5746 49.4863 33.3441 48.7953 33.3441 48.2192C33.3441 47.6431 33.6897 46.8369 33.6897 46.8369C33.6897 46.8369 31.8078 45.6086 31.3087 45.6086Z" fill="white" stroke="#263238" stroke-miterlimit="10" stroke-linecap="round" stroke-linejoin="round"/>
<path id="Vector_44" d="M35.9618 53.8214C35.9618 53.8214 35.5256 52.6809 35.4587 52.245" stroke="#263238" stroke-miterlimit="10" stroke-linecap="round" stroke-linejoin="round"/>
<path id="Vector_45" d="M30.9753 58.0971C30.9753 58.0971 31.6703 58.2516 33.0604 57.5564" stroke="#263238" stroke-miterlimit="10" stroke-linecap="round" stroke-linejoin="round"/>
</g>
<path id="Vector_46" d="M38.2589 71.6431C37.5615 69.221 35.4976 64.8018 34.8804 63.3423C31.9212 64.4505 29.1677 63.5037 27.8723 62.8948C27.6841 63.3022 27.4829 63.7743 27.2767 64.3472C26.3936 66.8047 26.5087 71.3742 26.7776 74.3309C27.0465 77.2875 27.9296 80.0907 27.9296 80.0907C27.9296 80.0907 25.7026 83.6619 24.7425 85.1977C23.7826 86.7337 20.3265 93.4151 20.3265 93.4151C20.3265 93.4151 20.3265 93.6456 20.864 93.7991C21.4015 93.9526 22.016 93.8758 22.016 93.8758C22.016 93.8758 28.6206 85.9273 29.8494 84.5834C31.0782 83.2395 32.2302 80.8971 32.3837 79.8221C32.5372 78.7468 32.3453 72.1806 32.3453 72.1806C32.3453 72.1806 33.7276 75.4829 34.8029 77.1724C35.8781 78.8619 36.6051 80.3596 36.6051 80.3596C36.6051 80.3596 36.3389 82.625 36.6078 84.545C36.8766 86.4651 36.6496 92.6291 36.9185 93.1282C37.1873 93.6274 38.226 93.4192 38.4565 93.1887C38.6867 92.9582 38.7967 91.4569 38.7967 91.4569C38.7967 91.4569 39.2574 86.7723 39.5263 84.5834C39.7952 82.3947 40.256 80.5131 40.1022 80.014C39.9485 79.5148 38.9886 74.1774 38.2589 71.6431Z" fill="#263238" stroke="#263238" stroke-miterlimit="10" stroke-linecap="round" stroke-linejoin="round"/>
<g id="Group_21">
<path id="Vector_47" d="M53.2974 69.2042V68.7019H53.7195V64.762H53.2974H49.1464H48.7242V68.7019H49.1464V69.2042H48.7235V70.1189H50.3444V69.8116H52.0994V70.1189H53.7203V69.2042H53.2974Z" fill="#39D8D8" stroke="#263238" stroke-miterlimit="10" stroke-linecap="round" stroke-linejoin="round"/>
<path id="Vector_48" d="M55.428 65.3423H26.4588V63.5834H55.428C55.6703 63.5834 55.8668 63.7799 55.8668 64.0222V64.9034C55.8668 65.146 55.6705 65.3423 55.428 65.3423Z" fill="#39D8D8" stroke="#263238" stroke-miterlimit="10" stroke-linecap="round" stroke-linejoin="round"/>
<path id="Vector_49" d="M47.2534 65.6062H45.4879C45.3538 65.6062 45.2451 65.4975 45.2451 65.3634V63.5627C45.2451 63.4286 45.3538 63.3199 45.4879 63.3199H47.2534C47.3875 63.3199 47.4962 63.4286 47.4962 63.5627V65.3634C47.4964 65.4975 47.3877 65.6062 47.2534 65.6062Z" fill="#39D8D8" stroke="#263238" stroke-miterlimit="10" stroke-linecap="round" stroke-linejoin="round"/>
<path id="Vector_50" d="M27.3692 65.202C27.7774 62.7094 26.0876 60.3579 23.595 59.9497C21.1024 59.5416 18.7509 61.2313 18.3428 63.7239C17.9346 66.2165 19.6244 68.568 22.117 68.9762C24.6096 69.3843 26.9611 67.6945 27.3692 65.202Z" fill="#39D8D8" stroke="#263238" stroke-miterlimit="10" stroke-linecap="round" stroke-linejoin="round"/>
<path id="Vector_51" d="M23.7931 64.4628C24.3353 64.1794 24.6999 63.6601 24.6999 63.0643C24.6999 62.1659 23.8731 61.4375 22.8532 61.4375C21.8332 61.4375 21.0064 62.1659 21.0064 63.0643C21.0064 63.6599 21.371 64.1794 21.9132 64.4628C21.371 64.7462 21.0064 65.2655 21.0064 65.8613C21.0064 66.7597 21.8332 67.4881 22.8532 67.4881C23.8731 67.4881 24.6999 66.7597 24.6999 65.8613C24.6999 65.2658 24.3353 64.7465 23.7931 64.4628Z" fill="white" stroke="#263238" stroke-miterlimit="10" stroke-linecap="round" stroke-linejoin="round"/>
</g>
<g id="Group_22">
<path id="Vector_52" d="M41.59 65.3799C41.59 65.3799 43.0195 65.9834 43.4643 65.9834C43.909 65.9834 44.4173 65.5386 44.6714 64.9986C44.9255 64.4586 44.9255 64.2045 44.7666 64.3315C44.6077 64.4584 44.449 64.5856 44.449 64.5856C44.449 64.5856 44.7031 64.0456 44.4173 64.1091C44.1314 64.1725 43.9725 64.4904 43.9725 64.4904C43.9725 64.4904 43.9408 64.0139 43.6867 64.2363C43.4325 64.4586 43.2419 64.7445 43.2419 64.7445C43.2419 64.7445 43.2102 64.1411 43.0512 64.2997C42.8923 64.4586 42.2889 65.3162 42.2889 65.3162L41.59 65.3799Z" fill="white" stroke="#263238" stroke-miterlimit="10" stroke-linecap="round" stroke-linejoin="round"/>
<g id="Vector_53">
<path d="M43.2416 64.7447C43.2416 64.7447 43.1464 65.5071 42.6699 65.6343L43.2416 64.7447Z" fill="white"/>
<path d="M43.2416 64.7447C43.2416 64.7447 43.1464 65.5071 42.6699 65.6343" stroke="#263238" stroke-miterlimit="10" stroke-linecap="round" stroke-linejoin="round"/>
</g>
<g id="Vector_54">
<path d="M43.9723 64.4906C43.9723 64.4906 43.7182 65.6977 43.3369 65.8884L43.9723 64.4906Z" fill="white"/>
<path d="M43.9723 64.4906C43.9723 64.4906 43.7182 65.6977 43.3369 65.8884" stroke="#263238" stroke-miterlimit="10" stroke-linecap="round" stroke-linejoin="round"/>
</g>
<g id="Vector_55">
<path d="M44.4488 64.5858C44.4488 64.5858 44.1629 65.5388 43.9405 65.8564L44.4488 64.5858Z" fill="white"/>
<path d="M44.4488 64.5858C44.4488 64.5858 44.1629 65.5388 43.9405 65.8564" stroke="#263238" stroke-miterlimit="10" stroke-linecap="round" stroke-linejoin="round"/>
</g>
</g>
<path id="Vector_56" d="M34.1094 49.7449C33.5574 49.4189 33.3438 48.769 33.3438 48.2197C33.3438 47.6438 33.6895 46.8374 33.6895 46.8374C33.6895 46.8374 31.8081 45.6086 31.3087 45.6086C31.3087 45.6086 31.5775 47.4133 31.2319 48.1429C31.1222 48.3749 30.9382 48.5405 30.7092 48.6637C30.9611 49.5176 31.9832 51.4243 32.5406 52.1107C33.2432 52.9754 33.5815 51.1466 34.1094 49.7449Z" fill="white" stroke="#263238" stroke-miterlimit="10" stroke-linecap="round" stroke-linejoin="round"/>
<g id="Group_23">
<g id="Vector_57">
<path d="M28.3033 49.3518C28.3033 49.3518 26.8425 49.5141 26.0854 50.9749C25.3279 52.4356 22.0182 59.0673 22.3004 59.4641C23.909 61.7271 29.7618 63.3551 30.3569 63.9502C30.952 64.5452 31.7116 65.2572 32.3067 65.6358C32.9018 66.0143 34.0919 65.8522 34.3084 65.744C34.5249 65.6358 34.687 65.1489 34.3084 65.1489C33.9298 65.1489 33.7357 64.8754 33.6816 64.6591C33.6275 64.4427 34.2767 64.8756 34.6014 64.7133C34.9259 64.5509 33.8757 63.9588 33.551 63.6884C33.2262 63.4181 32.9559 63.0392 32.5232 63.0392C32.0905 63.0392 31.2774 63.0299 31.2774 63.0299C31.2774 63.0299 29.2841 61.5854 28.0799 60.5106C26.4576 59.0626 25.0278 58.2821 25.0278 58.2821L28.6819 52.2733" fill="white"/>
<path d="M28.3033 49.3518C28.3033 49.3518 26.8425 49.5141 26.0854 50.9749C25.3279 52.4356 22.0182 59.0673 22.3004 59.4641C23.909 61.7271 29.7618 63.3551 30.3569 63.9502C30.952 64.5452 31.7116 65.2572 32.3067 65.6358C32.9018 66.0143 34.0919 65.8522 34.3084 65.744C34.5249 65.6358 34.687 65.1489 34.3084 65.1489C33.9298 65.1489 33.7357 64.8754 33.6816 64.6591C33.6275 64.4427 34.2767 64.8756 34.6014 64.7133C34.9259 64.5509 33.8757 63.9588 33.551 63.6884C33.2262 63.4181 32.9559 63.0392 32.5232 63.0392C32.0905 63.0392 31.2774 63.0299 31.2774 63.0299C31.2774 63.0299 29.2841 61.5854 28.0799 60.5106C26.4576 59.0626 25.0278 58.2821 25.0278 58.2821L28.6819 52.2733" stroke="#263238" stroke-miterlimit="10" stroke-linecap="round" stroke-linejoin="round"/>
</g>
<path id="Vector_58" d="M33.551 63.6879C33.2263 63.4176 32.9559 63.0387 32.5232 63.0387C32.0905 63.0387 31.2774 63.0294 31.2774 63.0294C31.2774 63.0294 29.2841 61.5849 28.0799 60.5101C26.4576 59.0621 25.0278 58.2816 25.0278 58.2816L26.4903 55.8769C25.5309 55.276 24.5225 55.1776 24.014 55.1712C23.0406 57.2226 22.1484 59.2496 22.3004 59.4636C23.909 61.7266 29.7618 63.3546 30.3569 63.9497C30.952 64.5447 31.7116 65.2567 32.3067 65.6353C32.9018 66.0139 34.0919 65.8517 34.3084 65.7435C34.5249 65.6353 34.687 65.1484 34.3084 65.1484C33.9298 65.1484 33.7357 64.8749 33.6816 64.6586C33.6275 64.4422 34.2767 64.8751 34.6014 64.7128C34.9259 64.5506 33.8754 63.9585 33.551 63.6879Z" fill="white" stroke="#263238" stroke-miterlimit="10" stroke-linecap="round" stroke-linejoin="round"/>
</g>
<g id="Group_24">
<path id="Vector_59" d="M35.5325 42.9592C35.3404 42.5752 35.3404 42.268 35.4174 41.7305C35.4941 41.1929 35.0334 39.8874 35.0334 39.8874C35.0334 39.8874 35.0292 39.8906 35.0262 39.8928C34.5566 40.7069 33.1984 41.1885 32.5962 41.3738C31.9347 41.5772 32.9015 42.0352 32.7997 42.6458C32.6978 43.2564 31.3748 43.6126 31.3748 43.6126C31.3748 43.6126 30.9965 42.7983 30.459 42.7983C29.9215 42.7983 29.5412 44.0283 29.8484 44.6812C30.1557 45.3341 30.8095 45.1863 30.8095 45.1863C30.8095 45.1863 30.7712 46.3383 31.5008 46.6839C32.2304 47.0295 33.4592 47.4903 33.92 47.5671C34.3807 47.6438 34.8415 47.4135 35.0336 46.7223C35.2255 46.031 35.3409 44.6104 35.3409 44.6104C35.3409 44.6104 36.0321 44.1496 36.224 43.8807C36.4156 43.6119 35.7246 43.3432 35.5325 42.9592Z" fill="white" stroke="#263238" stroke-miterlimit="10" stroke-linecap="round" stroke-linejoin="round"/>
<path id="Vector_60" d="M34.7844 42.9764C34.7844 43.1873 34.716 43.358 34.6316 43.358C34.5473 43.358 34.4789 43.187 34.4789 42.9764C34.4789 42.7656 34.5473 42.5949 34.6316 42.5949C34.716 42.5949 34.7844 42.7656 34.7844 42.9764Z" fill="#263238"/>
<path id="Vector_61" d="M34.1229 42.3405C34.1229 42.3405 34.53 41.8825 34.8353 41.9843" stroke="#263238" stroke-miterlimit="10" stroke-linecap="round" stroke-linejoin="round"/>
<path id="Vector_62" d="M34.8353 45.4955C34.8353 45.4955 34.2757 45.6989 33.7667 45.2411" stroke="#263238" stroke-miterlimit="10" stroke-linecap="round" stroke-linejoin="round"/>
</g>
<g id="Group_25">
<path id="Vector_63" d="M20.3265 93.4153C20.3265 93.4153 19.4082 95.2566 19.4439 95.5063C19.4795 95.756 21.2987 97.0758 22.1548 97.5395C23.0109 98.0032 24.5447 98.0745 24.4377 97.4325C24.3306 96.7904 22.8682 96.3624 22.5115 95.3993C22.1548 94.4362 22.016 93.8761 22.016 93.8761C22.016 93.8761 21.1378 93.9282 20.3265 93.4153Z" fill="white" stroke="#263238" stroke-miterlimit="10" stroke-linecap="round" stroke-linejoin="round"/>
<path id="Vector_64" d="M24.4379 97.4421C23.9491 97.5097 23.2746 97.493 22.5112 97.1624C21.1902 96.5899 19.9103 95.4192 19.5622 95.0874C19.4842 95.2883 19.4355 95.4453 19.4443 95.5063C19.48 95.756 21.2992 97.0758 22.1553 97.5395C23.0062 98.0005 24.5264 98.0731 24.4379 97.4421Z" fill="white" stroke="#263238" stroke-miterlimit="10" stroke-linecap="round" stroke-linejoin="round"/>
</g>
</g>
</g>
</g>
</svg>
