<svg width="24" height="24" viewBox="0 0 24 24" fill="none" xmlns="http://www.w3.org/2000/svg">
<g clip-path="url(#clip0_222_1296)">
<path d="M7.39058 17.4711L7.39054 17.471L7.38234 17.4757L5.03234 18.8157L5.03137 18.8163C4.30548 19.2323 3.75694 19.2077 3.42108 19.0127C3.08507 18.8176 2.79001 18.3521 2.79001 17.5101V7.78005C2.79001 7.57482 2.86692 7.30858 3.01721 7.0502C3.16728 6.79221 3.36254 6.5902 3.54808 6.48418L3.54851 6.48393L7.50001 4.22071V17.3813C7.49928 17.3834 7.49719 17.3881 7.49188 17.3956C7.47934 17.4132 7.45441 17.4372 7.41663 17.4571L7.39058 17.4711Z" fill="white" stroke="white"/>
<path d="M14.7219 6.10229C14.8922 6.18664 15 6.36028 15 6.55035V19.7035C15 20.072 14.615 20.3139 14.283 20.1539L10.033 18.1063C9.85998 18.023 9.75 17.8479 9.75 17.6559V4.44559C9.75 4.07473 10.1396 3.83294 10.4719 3.99753L14.7219 6.10229Z" fill="white"/>
<path d="M22 6.48994V16.2199C22 16.8499 21.55 17.6299 20.99 17.9499L17.4986 19.9509C17.1653 20.1419 16.75 19.9013 16.75 19.5171V6.33026C16.75 6.15075 16.8462 5.98501 17.0021 5.89602L19.01 4.74994C20.65 3.80994 22 4.58994 22 6.48994Z" fill="white"/>
</g>
<defs>
<clipPath id="clip0_222_1296">
<rect width="24" height="24" fill="white"/>
</clipPath>
</defs>
</svg>
