<svg width="24" height="24" viewBox="0 0 24 24" fill="none" xmlns="http://www.w3.org/2000/svg">
<g id="vuesax/bold/bag-tick">
<g id="Group">
<path id="Vector" d="M18.4864 5.93355L18.6329 6.08H18.84H19.24C19.7022 6.08 20.2625 6.08915 20.7118 6.33757C20.9228 6.45424 21.1112 6.62598 21.2513 6.89263C21.394 7.16407 21.5 7.55964 21.5 8.14C21.5 8.92377 21.3496 9.38056 21.1631 9.65151C20.9865 9.90818 20.7397 10.0528 20.4096 10.1323C20.1777 10.1814 19.9274 10.2 19.64 10.2H4.36C4.06436 10.2 3.80543 10.189 3.57732 10.134L3.57733 10.1339L3.57013 10.1323C3.32695 10.0774 3.13495 9.98442 2.98069 9.82373L2.98077 9.82366L2.97355 9.81644C2.69006 9.53295 2.5 9.05345 2.5 8.14C2.5 7.55963 2.60601 7.16413 2.74876 6.89278C2.88897 6.62624 3.07748 6.45451 3.28904 6.33779C3.73964 6.08918 4.30249 6.08 4.77 6.08H5.17H5.37754L5.52408 5.93303L8.88966 2.55745C8.97814 2.47461 9.10223 2.48271 9.17337 2.55054C9.25654 2.64026 9.2468 2.76609 9.17645 2.83644L6.78645 5.22644L5.93289 6.08H7.14H16.86H18.0671L17.2136 5.22644L14.8276 2.84052C14.7446 2.75203 14.7527 2.62782 14.8205 2.55663C14.9103 2.47346 15.0361 2.4832 15.1064 2.55355L18.4864 5.93355Z" fill="white" stroke="white"/>
<path id="Vector_2" d="M19.0902 12H4.91019C4.29019 12 3.82019 12.55 3.92019 13.16L4.76019 18.3C5.04019 20.02 5.79019 22 9.12019 22H14.7302C18.1002 22 18.7002 20.31 19.0602 18.42L20.0702 13.19C20.1902 12.57 19.7202 12 19.0902 12ZM14.8802 16.05L11.6302 19.05C11.4902 19.18 11.3102 19.25 11.1202 19.25C10.9302 19.25 10.7402 19.18 10.5902 19.03L9.09019 17.53C8.80019 17.24 8.80019 16.76 9.09019 16.47C9.39019 16.18 9.86019 16.18 10.1602 16.47L11.1502 17.46L13.8702 14.95C14.1702 14.67 14.6502 14.69 14.9302 14.99C15.2102 15.3 15.1902 15.77 14.8802 16.05Z" fill="white"/>
</g>
</g>
</svg>
