<svg width="123" height="123" viewBox="0 0 123 123" fill="none" xmlns="http://www.w3.org/2000/svg">
<g id="6183564_3026199 1">
<g id="Floor">
<path id="Floor_2_" d="M61.5 114.057C91.724 114.057 116.225 99.9113 116.225 82.4614C116.225 65.0116 91.724 50.8657 61.5 50.8657C31.276 50.8657 6.7746 65.0116 6.7746 82.4614C6.7746 99.9113 31.276 114.057 61.5 114.057Z" fill="#F5F5F5"/>
</g>
<g id="Shadow">
<path id="Shadow_1_" d="M71.3245 108.659L98.1727 93.1582C98.7611 92.8185 98.7611 92.268 98.1727 91.9282L47.3422 62.5809C46.754 62.2412 45.8 62.2412 45.2118 62.5809L18.3634 78.0819C17.775 78.4216 17.775 78.9722 18.3634 79.3119L69.1941 108.659C69.7823 108.999 70.7363 108.999 71.3245 108.659Z" fill="#E0E0E0"/>
</g>
<g id="Plants">
<g id="Plants_1_">
<g id="XMLID_1478_">
<path id="XMLID_1480_" d="M23.4987 78.6666L25.6032 77.4516C25.6032 77.4516 26.1188 72.9447 25.7756 69.4542C25.2937 64.5494 22.1262 58.6479 18.3474 60.0338C14.5686 61.4198 20.08 66.4148 21.3068 70.5749C22.5336 74.735 23.4987 78.6666 23.4987 78.6666Z" fill="#27DEBF"/>
<path id="XMLID_1523_" opacity="0.15" d="M23.4987 78.6666L25.6032 77.4516C25.6032 77.4516 26.1188 72.9447 25.7756 69.4542C25.2937 64.5494 22.1262 58.6479 18.3474 60.0338C14.5686 61.4198 20.08 66.4148 21.3068 70.5749C22.5336 74.735 23.4987 78.6666 23.4987 78.6666Z" fill="black"/>
<path id="XMLID_1479_" d="M24.6054 78.1549C24.604 78.1549 24.6027 78.1549 24.601 78.1549C24.5306 78.1525 24.4755 78.0937 24.478 78.0231C24.8477 67.125 19.4227 61.6429 19.3678 61.5891C19.3177 61.5396 19.3172 61.4589 19.3664 61.409C19.4163 61.3588 19.497 61.3583 19.5464 61.4075C19.6023 61.4624 25.1058 67.0232 24.7326 78.0319C24.7304 78.1008 24.6738 78.1549 24.6054 78.1549Z" fill="white"/>
</g>
<g id="XMLID_1475_">
<path id="XMLID_1477_" d="M22.3754 79.536L23.8728 78.6713C23.8728 78.6713 24.1274 75.5786 22.6113 71.8214C21.2913 68.5506 18.016 65.8372 16.3686 66.4075C14.7214 66.9777 14.7622 68.1459 15.5654 69.3713C16.3686 70.5966 21.2549 73.5173 22.3754 79.536Z" fill="#27DEBF"/>
<path id="XMLID_1476_" d="M23.1653 79.2073H23.1648C23.0945 79.2068 23.0376 79.1498 23.0379 79.0794C23.0676 72.1889 16.5976 67.5317 16.5322 67.4854C16.4748 67.4448 16.4611 67.3654 16.5019 67.3078C16.542 67.2507 16.6215 67.2365 16.6795 67.2776C16.7457 67.3245 23.323 72.0588 23.2927 79.0806C23.2925 79.1507 23.2354 79.2073 23.1653 79.2073Z" fill="white"/>
</g>
</g>
</g>
<g id="Clouds">
<g id="XMLID_1132_">
<path id="Cloud_2_" d="M95.3828 13.4577L97.5011 14.6805C97.4905 14.5861 97.4834 14.4921 97.4834 14.4001V13.7863C97.4834 12.6943 98.2499 12.2515 99.1958 12.7977C99.5788 13.0188 99.9311 13.3691 100.216 13.7792C100.371 12.406 101.449 11.8946 102.757 12.6501C104.172 13.467 105.319 15.4535 105.319 17.0874V18.0055C105.319 18.4286 105.241 18.7851 105.102 19.0689L106.861 20.0847C107.386 20.3875 107.811 21.1243 107.811 21.7299C107.811 22.3356 107.386 22.5811 106.861 22.2782L95.3828 15.651C94.8581 15.3482 94.433 14.6114 94.433 14.0058C94.433 13.4004 94.8581 13.1548 95.3828 13.4577Z" fill="#EBEBEB"/>
<path id="Cloud_1_" d="M86.5817 18.9144L88.1344 19.8109C88.1268 19.7415 88.1214 19.6726 88.1214 19.6052V19.1553C88.1214 18.3548 88.6835 18.0301 89.3767 18.4306C89.6574 18.5927 89.9157 18.8495 90.1248 19.1501C90.2382 18.1435 91.0281 17.7683 91.9875 18.3223C93.0247 18.9211 93.8655 20.3777 93.8655 21.5752V22.2482C93.8655 22.5584 93.8082 22.8197 93.7066 23.0278L94.9964 23.7725C95.3809 23.9946 95.6928 24.5346 95.6928 24.9786C95.6928 25.4226 95.3811 25.6027 94.9964 25.3806L86.5814 20.5223C86.1969 20.3002 85.885 19.7602 85.885 19.3162C85.8853 18.8724 86.1972 18.6926 86.5817 18.9144Z" fill="#EBEBEB"/>
</g>
</g>
<g id="Device">
<g id="Device_5_">
<g id="Device_1_">
<path id="XMLID_1058_" d="M96.5462 87.8889C96.928 88.1846 96.8864 88.6043 96.4234 88.87L71.0822 103.503C70.5732 103.795 69.7474 103.795 69.2389 103.501L20.8087 75.54C20.34 75.2694 20.3017 74.8428 20.7004 74.5486C20.2426 74.8728 19.8872 75.5269 19.8869 76.0735L19.8854 77.2917C19.8837 77.8794 20.2965 78.5948 20.807 78.8895L69.2353 106.85C69.7459 107.144 70.5718 107.144 71.0798 106.849L96.4217 92.2195C96.9307 91.9275 97.3437 91.2119 97.3434 90.623L97.3462 89.4028C97.3449 88.8636 96.9986 88.2171 96.5462 87.8889Z" fill="#455A64"/>
<path id="XMLID_1055_" d="M96.4234 87.807L47.9929 59.8456C47.4844 59.5522 46.6586 59.5522 46.1496 59.8444L20.8084 74.477C20.2995 74.769 20.2999 75.2465 20.8084 75.54L69.2392 103.501C69.7477 103.795 70.5735 103.795 71.0825 103.503L96.4237 88.87C96.9324 88.578 96.9319 88.1005 96.4234 87.807ZM89.8532 85.5453C90.2884 85.7964 90.2899 86.2048 89.8515 86.4565L66.8114 99.7616C66.3743 100.012 65.6673 100.013 65.2299 99.7609L27.523 77.9909C27.0856 77.7385 27.0876 77.3294 27.5225 77.0782L50.5648 63.7743C51.001 63.5211 51.4549 63.3757 51.89 63.6272L89.8532 85.5453Z" fill="#37474F"/>
<path id="XMLID_815_" d="M20.7002 74.5483C20.2424 74.8726 19.8869 75.5267 19.8867 76.0733L19.8852 77.2915C19.8857 77.8804 20.2963 78.5945 20.8067 78.8892L69.235 106.849C69.4904 106.997 69.8247 107.07 70.1592 107.071L70.161 103.721C69.8266 103.72 69.4921 103.647 69.2389 103.501L20.8087 75.54C20.3398 75.2694 20.3017 74.8425 20.7002 74.5483Z" fill="#263238"/>
<path id="XMLID_814_" d="M35.9096 68.5974C36.2509 68.4003 36.2509 68.081 35.9096 67.8839C35.5684 67.6869 35.0152 67.6869 34.674 67.8839C34.3328 68.081 34.3328 68.4003 34.674 68.5974C35.0152 68.7944 35.5684 68.7944 35.9096 68.5974Z" fill="black"/>
<path id="XMLID_813_" d="M82.8134 95.3555C83.6169 94.8916 83.6169 94.1395 82.8134 93.6756C82.0098 93.2116 80.7072 93.2116 79.9035 93.6756C79.1001 94.1395 79.0998 94.8916 79.9035 95.3555C80.7069 95.8195 82.0098 95.8195 82.8134 95.3555Z" stroke="#E6E6E6" stroke-miterlimit="10"/>
<path id="XMLID_812_" d="M35.2998 70.9644L40.07 68.2104C40.3546 68.0461 40.3689 67.788 40.102 67.6338C39.8351 67.4795 39.3878 67.4879 39.1032 67.6522L34.333 70.4064C34.0484 70.5708 34.0342 70.8288 34.3011 70.9831C34.568 71.1368 35.0152 71.1287 35.2998 70.9644Z" fill="black"/>
<path id="XMLID_811_" d="M51.8903 63.6274C51.4551 63.3762 51.0013 63.5214 50.5651 63.7745L27.5228 77.0784C27.0876 77.3294 27.0859 77.7385 27.5233 77.9911L65.2301 99.7611C65.6675 100.014 66.3745 100.012 66.8117 99.7619L89.8518 86.4567C90.2902 86.2048 90.2887 85.7967 89.8535 85.5455L51.8903 63.6274Z" fill="#27DEBF"/>
<path id="XMLID_172_" opacity="0.85" d="M51.8903 63.6274C51.4551 63.3762 51.0013 63.5214 50.5651 63.7745L27.5228 77.0784C27.0876 77.3294 27.0859 77.7385 27.5233 77.9911L65.2301 99.7611C65.6675 100.014 66.3745 100.012 66.8117 99.7619L89.8518 86.4567C90.2902 86.2048 90.2887 85.7967 89.8535 85.5455L51.8903 63.6274Z" fill="white"/>
</g>
<g id="XMLID_808_">
<g id="XMLID_690_">
<g id="XMLID_14189_">
<path id="XMLID_14193_" d="M30.1774 78.274L29.9319 78.1323C29.8787 78.1018 29.8787 78.0521 29.9316 78.0214L29.9582 78.0061C30.0111 77.9754 30.0969 77.9754 30.1501 78.0061L30.3956 78.1478C30.4487 78.1786 30.4487 78.2282 30.3958 78.2588L30.3692 78.274C30.3163 78.3045 30.2302 78.3045 30.1774 78.274Z" fill="#455A64"/>
<path id="XMLID_14192_" d="M30.6142 78.0214L30.1901 77.7763C30.137 77.7456 30.137 77.6962 30.1901 77.6654L30.2169 77.6499C30.2701 77.6194 30.3559 77.6194 30.4091 77.6499L30.8334 77.8949C30.8865 77.9254 30.8865 77.9751 30.8334 78.0059L30.8066 78.0214C30.7532 78.0519 30.6674 78.0519 30.6142 78.0214Z" fill="#455A64"/>
<path id="XMLID_689_" d="M31.0526 77.7685L30.4499 77.4206C30.3968 77.3899 30.3968 77.3404 30.4499 77.3097L30.4765 77.2944C30.5294 77.2637 30.6155 77.2637 30.6684 77.2944L31.2711 77.6425C31.3242 77.6733 31.3242 77.7227 31.2711 77.7535L31.2445 77.7687C31.1916 77.7992 31.1055 77.7992 31.0526 77.7685Z" fill="#455A64"/>
<path id="XMLID_679_" d="M31.4895 77.5158L30.449 76.9151C30.3958 76.8846 30.3961 76.8349 30.4492 76.8042L30.476 76.7887C30.5292 76.7582 30.6153 76.7582 30.6682 76.7887L31.7078 77.3894C31.7606 77.4201 31.7609 77.4698 31.7078 77.5003L31.6812 77.5156C31.6288 77.5466 31.5427 77.5466 31.4895 77.5158Z" fill="#455A64"/>
</g>
<g id="XMLID_14188_">
<path id="XMLID_13213_" d="M32.7456 76.873C32.7299 76.874 32.7136 76.8698 32.6974 76.8605L32.5446 76.7724L32.0543 77.0558C32.0273 77.0713 32.0032 77.0728 31.9815 77.0602L31.9267 77.0285C31.9144 77.0214 31.906 77.0147 31.9023 77.0093C31.8989 77.0037 31.8964 76.9955 31.8947 76.9852L31.8691 76.3682C31.8689 76.3569 31.8703 76.3486 31.874 76.3424C31.8775 76.336 31.8868 76.3286 31.9026 76.3195L31.971 76.2802C31.9914 76.2681 32.0101 76.262 32.0278 76.2612C32.0448 76.2605 32.0622 76.2652 32.0792 76.275L32.6128 76.583L32.721 76.5205C32.7419 76.5085 32.7599 76.5023 32.7754 76.5018C32.7916 76.5016 32.8078 76.5062 32.8248 76.5161L32.8612 76.537C32.8775 76.5463 32.8846 76.5552 32.8836 76.5643C32.8826 76.5732 32.872 76.5835 32.8511 76.5955L32.7429 76.658L32.8957 76.7461C32.9119 76.7554 32.9193 76.7648 32.9173 76.7739C32.9153 76.783 32.904 76.7941 32.8826 76.8064L32.8 76.8538C32.7796 76.8657 32.7616 76.8721 32.7456 76.873ZM32.447 76.6784L32.0664 76.4588L32.091 76.8841L32.447 76.6784Z" fill="#455A64"/>
<path id="XMLID_14170_" d="M33.2359 76.4831C33.0575 76.4912 32.892 76.4509 32.7392 76.3628C32.5872 76.275 32.5183 76.1796 32.5321 76.0762C32.5458 75.9729 32.6401 75.8708 32.8142 75.7702C32.8843 75.7296 32.9562 75.6952 33.0297 75.6674C33.103 75.6393 33.1712 75.6204 33.2349 75.6108C33.2494 75.6083 33.2597 75.6091 33.2661 75.6128C33.2705 75.6152 33.274 75.6194 33.276 75.6253L33.2981 75.69C33.2998 75.6981 33.2981 75.7043 33.2917 75.7077C33.2883 75.7095 33.2794 75.7122 33.2649 75.7156C33.1608 75.7365 33.06 75.7749 32.9633 75.831C32.8457 75.8989 32.7817 75.9687 32.7722 76.0408C32.763 76.1129 32.8167 76.1825 32.9338 76.2502C33.0519 76.3183 33.1719 76.35 33.2942 76.3454C33.4162 76.3409 33.5338 76.306 33.6474 76.2403C33.689 76.2165 33.7261 76.1916 33.7593 76.1655C33.7926 76.1395 33.8164 76.1163 33.8307 76.0957L33.5827 75.9525L33.3783 76.0703C33.3576 76.0824 33.3394 76.0885 33.3237 76.0888C33.3077 76.0893 33.2915 76.0846 33.2742 76.0748L33.2393 76.0546C33.2223 76.0448 33.2147 76.0357 33.2164 76.027C33.2179 76.0184 33.2287 76.0081 33.2496 75.996L33.5761 75.8076C33.5987 75.7946 33.6199 75.7879 33.6391 75.7877C33.6582 75.7872 33.6777 75.7928 33.6974 75.8044L34.0511 76.0086C34.0644 76.0162 34.073 76.0231 34.0764 76.0288C34.0804 76.0344 34.0794 76.0418 34.0747 76.0507C34.0317 76.1353 33.9284 76.2248 33.7653 76.319C33.5903 76.4209 33.4137 76.4755 33.2359 76.4831Z" fill="#455A64"/>
</g>
<g id="XMLID_14185_">
<g id="XMLID_14187_">
<path id="XMLID_14227_" d="M40.0437 71.7033L40.623 72.0377C40.6663 72.0627 40.7367 72.0627 40.7802 72.0377L41.3615 71.7029C41.405 71.6778 41.405 71.6372 41.3617 71.6121L40.7817 71.277C40.7384 71.2519 40.668 71.2519 40.6245 71.277L40.0439 71.6123C40.0004 71.6377 40.0004 71.6782 40.0437 71.7033Z" fill="#455A64"/>
</g>
<path id="XMLID_14175_" d="M40.4444 71.2497C40.3817 71.2136 40.2936 71.1936 40.1957 71.1936C40.0976 71.1939 40.0097 71.2136 39.9468 71.2497C39.8353 71.3144 39.8351 71.4155 39.9468 71.4805L40.146 71.5956L40.2929 71.5673L40.0936 71.4522C40.0125 71.4049 40.0125 71.3252 40.0936 71.2783C40.1244 71.2605 40.1625 71.2505 40.1952 71.2505C40.2294 71.2505 40.2666 71.2605 40.2971 71.2783L40.4966 71.3931L40.6434 71.3648L40.4444 71.2497Z" fill="#455A64"/>
</g>
<g id="XMLID_14178_">
<path id="XMLID_14208_" d="M50.9998 65.1465C50.8896 65.1465 50.7907 65.1688 50.7203 65.2094L49.2505 66.0576C49.1235 66.1307 49.1235 66.2453 49.25 66.3184L49.7853 66.6274C49.8559 66.6682 49.9553 66.6906 50.065 66.6906C50.112 66.6906 50.1577 66.6864 50.2008 66.6781C50.2564 66.6672 50.3048 66.6503 50.3444 66.6274L51.8143 65.7792C51.941 65.7059 51.9412 65.5915 51.8145 65.5184L51.2795 65.2094C51.2091 65.1688 51.1097 65.1465 50.9998 65.1465ZM50.065 66.6286C50.0251 66.6286 49.9818 66.6168 49.9464 66.5964L49.4111 66.2874C49.3179 66.2335 49.3179 66.1425 49.4114 66.0889L50.8812 65.2407C50.9041 65.2276 50.9304 65.2178 50.9567 65.2129C50.9712 65.2102 50.9855 65.2087 51 65.2087C51.0401 65.2087 51.0832 65.2205 51.1184 65.2407L51.6536 65.5497C51.7471 65.6035 51.7471 65.6945 51.6536 65.7484L50.1838 66.5966C50.1481 66.617 50.1056 66.6286 50.065 66.6286Z" fill="#455A64"/>
<g id="XMLID_14180_">
<path id="XMLID_14206_" d="M50.1085 66.5245C50.1081 66.5226 50.0985 66.5189 50.0876 66.5127L49.606 66.2348C49.5393 66.1964 49.5395 66.1263 49.6062 66.0877L50.929 65.3243C50.9403 65.3179 50.9499 65.3142 50.9558 65.3125C50.9568 65.3145 50.9663 65.3182 50.9772 65.3243L51.4588 65.6025C51.5255 65.6409 51.5253 65.711 51.4586 65.7496L50.1359 66.513C50.1243 66.5194 50.1147 66.5228 50.1085 66.5245Z" fill="#455A64"/>
</g>
<g id="XMLID_14179_">
<path id="XMLID_14204_" d="M51.356 65.1696C51.4098 65.1381 51.5424 65.1639 51.6521 65.2274L51.7515 65.2847C51.8615 65.3482 51.9082 65.4264 51.8561 65.4596L51.7616 65.5196L51.2585 65.2264C51.2585 65.2264 51.3021 65.2008 51.356 65.1696Z" fill="#455A64"/>
</g>
</g>
</g>
<g id="XMLID_14205_">
<path id="XMLID_14209_" d="M42.9482 79.6258C43.286 79.6127 43.6904 79.5089 43.9826 79.3402C44.5829 78.9938 44.7381 78.521 43.7858 77.9279C43.7671 78.2373 43.5054 78.5707 43.16 78.7697C42.343 79.2415 41.4132 79.3625 40.6651 78.9306C39.9507 78.5183 40.177 77.8612 40.9947 77.3894C41.9241 76.8529 43.2586 76.706 44.4621 77.4007C45.8512 78.2027 45.5388 79.0523 44.5568 79.6191C43.9873 79.9478 43.3868 80.0865 42.8776 80.121L42.9482 79.6258ZM43.296 77.6713C42.576 77.3596 41.962 77.4027 41.497 77.6711C41.1069 77.8961 41.0269 78.2219 41.4599 78.472C41.8818 78.7156 42.378 78.6819 42.8582 78.4051C43.1278 78.2492 43.3322 77.995 43.296 77.6713Z" fill="#455A64"/>
<path id="XMLID_14237_" d="M45.0097 76.124C45.3243 75.9422 45.7496 75.9107 46.0028 76.0568C46.2562 76.2029 46.2018 76.4487 45.8867 76.6302C45.572 76.812 45.1391 76.8479 44.8854 76.7016C44.6326 76.5555 44.6948 76.3055 45.0097 76.124ZM46.9332 77.2342C47.2478 77.0524 47.6734 77.0211 47.9265 77.1672C48.1796 77.3134 48.1253 77.5589 47.8109 77.7409C47.496 77.9227 47.0628 77.9584 46.8097 77.8123C46.5563 77.6661 46.6183 77.416 46.9332 77.2342Z" fill="#455A64"/>
<path id="XMLID_14243_" d="M47.2645 75.8932C46.0552 75.1951 46.0549 74.4679 47.0448 73.8967C48.0342 73.3255 49.2989 73.3287 50.5026 74.0236C51.7119 74.7218 51.7461 75.4686 50.757 76.0398C49.7671 76.6113 48.4738 76.5916 47.2645 75.8932ZM49.6783 74.4996C48.666 73.9151 48.0155 73.9208 47.5508 74.1887C47.0935 74.4529 47.0768 74.8327 48.0891 75.4172C49.1014 76.0017 49.7931 76.0115 50.2504 75.7473C50.7151 75.4794 50.6905 75.0841 49.6783 74.4996Z" fill="#455A64"/>
<path id="XMLID_14246_" d="M51.1104 73.6728C49.9011 72.9747 49.9011 72.2472 50.8905 71.676C51.8804 71.1046 53.1454 71.1083 54.349 71.8032C55.5584 72.5014 55.5923 73.248 54.6027 73.8192C53.6133 74.3904 52.3198 74.371 51.1104 73.6728ZM53.5247 72.2792C52.5124 71.6947 51.8617 71.7001 51.3973 71.9685C50.94 72.2322 50.923 72.6123 51.9353 73.1968C52.9476 73.7813 53.6396 73.7909 54.0969 73.5272C54.5613 73.2586 54.537 72.8635 53.5247 72.2792Z" fill="#455A64"/>
</g>
<g id="XMLID_14174_">
<g id="XMLID_14172_">
<path id="XMLID_14202_" d="M44.9098 85.0245L64.2653 73.8507C64.6742 73.6145 65.3372 73.6145 65.746 73.8507L70.6928 76.7067C71.1017 76.9429 71.1017 77.3254 70.6928 77.5616L51.3405 88.7356C50.9317 88.9718 50.2687 88.9718 49.8596 88.7356L44.9101 85.8791C44.501 85.6432 44.501 85.2604 44.9098 85.0245Z" fill="#27DEBF"/>
<path id="XMLID_804_" d="M46.9819 85.4028L50.4441 87.4018C50.6205 87.5037 50.9068 87.5037 51.0832 87.4018L56.1862 84.4557C56.3626 84.3539 56.3626 84.1886 56.1862 84.0867L52.724 82.0877C52.5476 81.9859 52.2613 81.9859 52.0849 82.0877L46.9821 85.0338C46.8052 85.1357 46.8052 85.301 46.9819 85.4028Z" fill="#FAFAFA"/>
<path id="XMLID_1083_" d="M52.2099 84.4424L56.3171 84.2796L52.2266 84.2186L52.3909 82.0112L51.7201 84.7345L46.8498 85.2159L50.8264 85.0289L50.728 87.4764L51.0338 85.0193L52.171 84.9657L52.2099 84.4424Z" fill="#27DEBF"/>
<g id="XMLID_14173_">
<path id="XMLID_14212_" d="M54.3688 81.0373L59.37 78.1616C59.5973 78.0302 59.9579 78.0255 60.1751 78.151C60.3926 78.2765 60.3845 78.4846 60.1569 78.6159L55.1557 81.4917C54.9284 81.623 54.5678 81.6277 54.3503 81.5023C54.1334 81.3768 54.1415 81.1687 54.3688 81.0373Z" fill="#FAFAFA"/>
<path id="XMLID_14211_" d="M55.9075 81.9256L66.044 76.0689C66.2713 75.9375 66.6319 75.9328 66.8494 76.0585C67.0668 76.184 67.0587 76.3921 66.8312 76.5235L56.6947 82.3802C56.4674 82.5116 56.1068 82.5163 55.8896 82.3908C55.6721 82.2651 55.6802 82.057 55.9075 81.9256Z" fill="#FAFAFA"/>
<path id="XMLID_14210_" d="M57.4463 82.8142L67.5827 76.9574C67.81 76.826 68.1706 76.8214 68.3879 76.9468C68.6053 77.0723 68.5972 77.2804 68.3696 77.4118L58.2332 83.2683C58.0059 83.3997 57.6453 83.4043 57.4281 83.2789C57.2108 83.1534 57.219 82.9453 57.4463 82.8142Z" fill="#FAFAFA"/>
</g>
</g>
</g>
</g>
</g>
</g>
<g id="Message">
<g id="XMLID_1453_">
<g id="Envelope">
<g id="XMLID_1_">
<path id="XMLID_1249_" d="M42.6926 44.6586L75.5043 25.7146L76.8172 26.4726C77.1567 26.6686 77.4344 27.1495 77.4344 27.5417V51.7463C77.4344 52.1382 77.1567 52.6194 76.8172 52.8155L45.2399 71.0465C44.9004 71.2426 44.3449 71.2426 44.0055 71.0465L43.3098 70.6448C42.9703 70.4487 42.6926 69.9678 42.6926 69.5757V44.6586Z" fill="#455A64"/>
<path id="XMLID_1248_" opacity="0.05" d="M42.6926 44.6586L75.5043 25.7146L76.8172 26.4726C77.1567 26.6686 77.4344 27.1495 77.4344 27.5417V51.7463C77.4344 52.1382 77.1567 52.6194 76.8172 52.8155L45.2399 71.0465C44.9004 71.2426 44.3449 71.2426 44.0055 71.0465L43.3098 70.6448C42.9703 70.4487 42.6926 69.9678 42.6926 69.5757V44.6586Z" fill="black"/>
<path id="XMLID_1354_" d="M75.3232 23.587L75.4576 23.5139L74.9476 23.2177V23.2182C74.9038 23.1926 74.8585 23.1707 74.8123 23.1535L60.3718 17.8025C59.9896 17.6608 59.4931 17.8188 59.2629 18.155L43.1093 41.745C42.879 42.0813 42.6923 42.6842 42.6923 43.0918C42.6923 43.7659 42.6923 44.6586 42.6923 44.6586L43.1929 44.9494L75.504 25.7149V24.1479C75.5043 23.957 75.4347 23.7592 75.3232 23.587Z" fill="#455A64"/>
<path id="XMLID_767_" opacity="0.1" d="M59.9315 18.2694C59.8675 18.3186 59.811 18.3801 59.7642 18.4466L43.6094 42.0355C43.4913 42.2102 43.3831 42.4562 43.3093 42.7095L42.8074 42.4193C42.8443 42.2963 42.8886 42.1757 42.9378 42.0626C42.9403 42.0576 42.9403 42.0552 42.9427 42.0527C42.9649 42.0035 42.987 41.9568 43.0116 41.91C43.0165 41.9027 43.019 41.8953 43.0239 41.8879C43.051 41.8362 43.0805 41.787 43.11 41.7452L59.2624 18.1563C59.287 18.1194 59.314 18.0899 59.3436 18.0579C59.3706 18.0308 59.4001 18.0038 59.4297 17.9792L59.9315 18.2694Z" fill="black"/>
<path id="XMLID_1061_" opacity="0.35" d="M75.4519 23.5117C75.4076 23.4846 75.3609 23.4625 75.3141 23.4453L60.8715 18.0923C60.5665 17.9792 60.1876 18.0579 59.9318 18.2694L59.4299 17.9792C59.6882 17.7701 60.0646 17.6889 60.3721 17.802L74.8123 23.1525C74.859 23.1698 74.9033 23.1919 74.9476 23.219L75.4519 23.5117Z" fill="white"/>
<g id="XMLID_128_">
<path id="XMLID_133_" d="M43.0232 41.8869C43.051 41.8357 43.0798 41.788 43.1093 41.745C43.0798 41.788 43.051 41.836 43.0232 41.8869Z" fill="#455A64"/>
<path id="XMLID_134_" d="M59.3441 18.0576C59.3714 18.0298 59.4001 18.0038 59.4306 17.9792C59.4001 18.0038 59.3706 18.0293 59.3441 18.0576Z" fill="#455A64"/>
<path id="XMLID_154_" d="M42.8067 42.4197C42.8436 42.2963 42.8884 42.1745 42.9381 42.0618C42.8881 42.1747 42.8438 42.296 42.8067 42.4197Z" fill="#455A64"/>
<path id="XMLID_158_" opacity="0.2" d="M42.938 42.062C42.9396 42.0585 42.9408 42.055 42.9423 42.0517C42.9408 42.055 42.9396 42.0587 42.938 42.062Z" fill="black"/>
<path id="XMLID_162_" opacity="0.2" d="M43.0114 41.911C43.0154 41.9032 43.0191 41.8944 43.0234 41.8869C43.0191 41.8944 43.0156 41.9032 43.0114 41.911Z" fill="black"/>
<path id="XMLID_163_" opacity="0.2" d="M59.2629 18.155C59.2867 18.1204 59.315 18.0886 59.3441 18.0579C59.3143 18.0879 59.2867 18.1201 59.2629 18.155Z" fill="black"/>
</g>
<path id="XMLID_1352_" d="M59.7635 18.4458L43.6099 42.0357C43.3796 42.372 43.1929 42.975 43.1929 43.3826C43.1929 44.0566 43.1929 44.9491 43.1929 44.9491L76.0051 26.0039L76.0049 24.4386C76.0049 24.031 75.6952 23.5857 75.3129 23.4443L60.8725 18.0933C60.4902 17.9516 59.9937 18.1095 59.7635 18.4458Z" fill="#455A64"/>
</g>
<g id="XMLID_164_">
<path id="XMLID_170_" d="M46.7634 67.7513L45.712 67.1427H45.7093L45.6987 67.1349V67.1322C45.5432 67.0347 45.4458 66.8397 45.4458 66.5578V33.7637C45.4458 33.4607 45.5617 33.1207 45.741 32.8257L46.8109 33.4425C46.6291 33.7377 46.5157 34.0774 46.5157 34.3832V67.1772C46.5157 67.4537 46.6106 67.6539 46.7634 67.7513Z" fill="#E0E0E0"/>
<path id="XMLID_169_" d="M47.4222 32.8174L73.7771 17.6028C74.2763 17.3145 74.6812 17.5482 74.6812 18.1245V50.9176C74.6812 51.4939 74.2765 52.195 73.7771 52.4834L47.4227 67.698C46.9235 67.9863 46.5186 67.7526 46.5186 67.1762L46.5184 34.3832C46.5184 33.8068 46.923 33.1057 47.4222 32.8174Z" fill="#F0F0F0"/>
<path id="XMLID_166_" d="M73.3479 16.9236L74.3808 17.5218C74.2202 17.448 74.0094 17.4665 73.7764 17.6082L47.4205 32.8189C47.1843 32.9485 46.9718 33.179 46.8111 33.4425L45.7413 32.8257C45.8994 32.5623 46.1154 32.3357 46.3499 32.1987L72.7051 16.9843C72.958 16.8394 73.1848 16.8262 73.3479 16.9263V16.9236Z" fill="#FAFAFA"/>
<path id="XMLID_171_" d="M49.477 34.534L71.3948 21.8795C71.6891 21.7097 71.9274 21.8303 71.9274 22.1489C71.9274 22.4674 71.6888 22.8635 71.3946 23.0332L49.477 35.6875C49.1828 35.8572 48.9444 35.7367 48.9444 35.4181C48.9444 35.0998 49.1828 34.7037 49.477 34.534Z" fill="#E0E0E0"/>
<path id="XMLID_675_" d="M49.477 36.8338L71.3948 24.1796C71.6891 24.0098 71.9274 24.1304 71.9274 24.449C71.9274 24.7675 71.6888 25.1636 71.3946 25.3333L49.477 37.9876C49.1828 38.1573 48.9444 38.0368 48.9444 37.7182C48.9444 37.3996 49.1828 37.0036 49.477 36.8338Z" fill="#E0E0E0"/>
<path id="XMLID_1060_" d="M49.477 39.1337L71.3948 26.4794C71.6891 26.3097 71.9274 26.4302 71.9274 26.7488C71.9274 27.0674 71.6888 27.4634 71.3946 27.6332L49.477 40.2874C49.1828 40.4572 48.9444 40.3366 48.9444 40.0181C48.9444 39.6995 49.1828 39.3034 49.477 39.1337Z" fill="#E0E0E0"/>
<path id="XMLID_1062_" d="M49.477 41.4335L71.3948 28.7793C71.6891 28.6096 71.9274 28.7301 71.9274 29.0487C71.9274 29.3672 71.6888 29.7633 71.3946 29.933L49.477 42.5873C49.1828 42.757 48.9444 42.6365 48.9444 42.3179C48.9444 41.9993 49.1828 41.6035 49.477 41.4335Z" fill="#E0E0E0"/>
<path id="XMLID_1065_" d="M49.477 43.7334L71.3948 31.0791C71.6891 30.9094 71.9274 31.0299 71.9274 31.3485C71.9274 31.6671 71.6888 32.0631 71.3946 32.2329L49.477 44.8871C49.1828 45.0569 48.9444 44.9363 48.9444 44.6178C48.9444 44.2992 49.1828 43.9034 49.477 43.7334Z" fill="#E0E0E0"/>
<path id="XMLID_1067_" d="M49.477 46.0335L71.3948 33.379C71.6891 33.2093 71.9274 33.3298 71.9274 33.6484C71.9274 33.9669 71.6888 34.363 71.3946 34.5327L49.477 47.187C49.1828 47.3567 48.9444 47.2362 48.9444 46.9176C48.9444 46.599 49.1828 46.2032 49.477 46.0335Z" fill="#E0E0E0"/>
<path id="XMLID_1080_" d="M49.477 48.3333L71.3948 35.6789C71.6891 35.5091 71.9274 35.6297 71.9274 35.9482C71.9274 36.2668 71.6888 36.6629 71.3946 36.8326L49.477 49.4868C49.1828 49.6566 48.9444 49.536 48.9444 49.2175C48.9444 48.8989 49.1828 48.5031 49.477 48.3333Z" fill="#E0E0E0"/>
<path id="XMLID_1081_" d="M49.477 50.6332L71.3948 37.9787C71.6891 37.809 71.9274 37.9295 71.9274 38.2481C71.9274 38.5666 71.6888 38.9627 71.3946 39.1324L49.477 51.7867C49.1828 51.9564 48.9444 51.8359 48.9444 51.5173C48.9444 51.199 49.1828 50.8029 49.477 50.6332Z" fill="#E0E0E0"/>
</g>
<g id="XMLID_157_">
<path id="XMLID_692_" d="M76.6019 52.0691C76.5921 52.0863 76.5825 52.1011 76.5677 52.1183L62.8943 46.0537C61.8205 45.5767 60.5632 45.9651 59.9394 46.9631L45.3218 70.418L44.7813 70.7302L44.7764 70.7326C44.6126 70.8236 44.4657 70.8359 44.3582 70.7794L59.3915 46.6559C60.0154 45.6578 61.2749 45.2694 62.3487 45.7437L76.6019 52.0691Z" fill="#455A64"/>
<path id="XMLID_806_" opacity="0.4" d="M58.5933 49.0957L58.6277 49.0662L45.3216 70.419L44.7804 70.7314L44.7754 70.7339C44.6131 70.8249 44.4655 70.8347 44.3572 70.7806L58.0668 48.7808L58.5933 49.0957Z" fill="white"/>
<path id="XMLID_807_" opacity="0.4" d="M76.6032 52.0698C76.5933 52.0871 76.5835 52.1018 76.5687 52.119L62.8936 46.0527C61.821 45.5754 60.564 45.9641 59.9391 46.9629L59.3979 46.648C60.0228 45.6542 61.2774 45.2704 62.3499 45.7427L76.6032 52.0698Z" fill="white"/>
<path id="XMLID_677_" d="M77.4231 27.3872H77.4206C77.3911 27.2101 77.2976 27.1609 77.1771 27.2445C77.1303 27.2765 77.0762 27.3306 77.0197 27.4069L76.9508 27.5028L63.4577 46.2874L61.4429 49.0942C61.2166 49.414 60.7197 49.5985 60.3335 49.51L58.5942 49.0967L45.3176 45.938C45.2217 45.9159 45.1307 45.9134 45.047 45.9282C45.0126 45.9356 44.9781 45.9454 44.9462 45.9602L45.3127 45.7486L58.1121 48.7916L59.8513 49.2049C60.2351 49.2959 60.732 49.1114 60.9608 48.7892L62.9755 45.9848L76.535 27.1043C76.5793 27.0428 76.6334 26.9985 76.6876 26.9641L75.5141 26.2876L76.0061 26.0047L76.8179 26.4721C77.1131 26.6443 77.3616 27.0305 77.4231 27.3872Z" fill="#455A64"/>
<path id="XMLID_810_" opacity="0.4" d="M63.4567 46.2864L61.4419 49.0932C61.2156 49.413 60.7187 49.5975 60.3325 49.509L58.5933 49.0957L58.6277 49.0662L58.7113 48.9333L59.8503 49.2039C60.2341 49.295 60.731 49.1105 60.9598 48.7882L62.9548 46.0133L63.4567 46.2864Z" fill="white"/>
<path id="XMLID_165_" opacity="0.1" d="M76.8169 26.4711L76.0051 26.0037L75.5131 26.2866L76.6866 26.9631C76.6875 26.9638 76.6885 26.9646 76.6895 26.9653L76.6875 26.9641C76.6285 27.0012 76.5766 27.0467 76.535 27.1043L62.9745 45.9838L62.9548 46.0109V46.0133L63.4567 46.2864L76.9498 27.5018L77.0187 27.4059C77.0752 27.3296 77.1294 27.2755 77.1761 27.2435C77.2966 27.1599 77.3901 27.2091 77.4196 27.3862H77.4221C77.3606 27.0295 77.1124 26.6433 76.8169 26.4711Z" fill="black"/>
<path id="XMLID_1247_" d="M45.5872 46.3307L42.6926 44.6586V69.5759C42.6926 69.9681 42.9703 70.449 43.3098 70.645L44.0055 71.0468C44.3449 71.2428 44.9007 71.2428 45.2399 71.0468L45.5872 70.8463V46.3307Z" fill="#455A64"/>
<path id="XMLID_132_" opacity="0.15" d="M45.5872 46.3307L42.6926 44.6586V69.5759C42.6926 69.9681 42.9703 70.449 43.3098 70.645L44.0055 71.0468C44.3449 71.2428 44.9007 71.2428 45.2399 71.0468L45.5872 70.8463V46.3307Z" fill="black"/>
<path id="XMLID_173_" d="M76.9508 27.5028V51.4435C76.9508 51.6452 76.8794 51.8716 76.7589 52.0684C76.6629 52.2307 76.5375 52.3759 76.3973 52.4718L76.3751 52.4866C76.3604 52.4964 76.3481 52.5062 76.3333 52.5136L44.7567 70.7422L44.7518 70.7447C44.71 70.7693 44.6706 70.789 44.6313 70.8013C44.6264 70.7668 44.6239 70.7299 44.6239 70.6906V46.4842C44.6239 46.093 44.9314 45.847 45.3176 45.938L58.5942 49.0967L60.3335 49.51C60.7197 49.5985 61.2166 49.414 61.4429 49.0942L63.4577 46.2874L76.9508 27.5028Z" fill="#455A64"/>
<path id="XMLID_522_" d="M77.4354 27.5422V51.7461C77.4354 51.9503 77.3616 52.1741 77.2435 52.3709C77.1451 52.5333 77.0221 52.6784 76.8819 52.7768L76.8573 52.7891C76.8425 52.799 76.8327 52.8088 76.8179 52.8162L45.2414 71.0448L45.2364 71.0473C45.0716 71.1407 44.924 71.153 44.8158 71.0965C44.7198 71.0473 44.6534 70.9464 44.6313 70.8013C44.6264 70.7668 44.6239 70.7299 44.6239 70.6906V46.4842C44.6239 46.093 44.9314 45.847 45.3176 45.938L58.5942 49.0967L60.3335 49.51C60.7197 49.5985 61.2166 49.414 61.4429 49.0942L63.4577 46.2874L76.9508 27.5028L77.0196 27.4069C77.2484 27.0895 77.4354 27.1486 77.4354 27.5422Z" fill="#455A64"/>
<path id="XMLID_1217_" d="M76.8177 52.8164C76.832 52.8093 76.8438 52.7997 76.8583 52.7904L76.8819 52.7761C77.0221 52.6787 77.1456 52.5338 77.243 52.3722C77.3599 52.1783 77.4322 51.9569 77.4347 51.7577L63.4589 46.2879L72.818 55.1256L76.8177 52.8164Z" fill="#455A64"/>
<path id="XMLID_1216_" opacity="0.2" d="M76.8177 52.8164C76.832 52.8093 76.8438 52.7997 76.8583 52.7904L76.8819 52.7761C77.0221 52.6787 77.1456 52.5338 77.243 52.3722C77.3599 52.1783 77.4322 51.9569 77.4347 51.7577L63.4589 46.2879L72.818 55.1256L76.8177 52.8164Z" fill="black"/>
<path id="XMLID_1215_" d="M44.6234 70.6896C44.6234 70.894 44.697 71.034 44.8158 71.096C44.925 71.153 45.0724 71.1412 45.2364 71.0485L45.2411 71.046L56.1126 64.7698L58.5952 49.0962L44.6232 70.2876L44.6234 70.6896Z" fill="#455A64"/>
<path id="XMLID_809_" opacity="0.15" d="M59.9342 46.9604L44.815 71.0955C44.697 71.034 44.6232 70.8938 44.6232 70.6896V70.2886L57.9637 48.9456L58.0671 48.7808L59.393 46.6554C59.393 46.6529 59.3955 46.6505 59.3979 46.648L59.9342 46.9604Z" fill="black"/>
<path id="XMLID_1213_" d="M77.2428 52.3722C77.1454 52.5338 77.0219 52.6787 76.8817 52.7761L76.858 52.7904L45.2409 71.046L45.2362 71.0485C45.0724 71.1412 44.925 71.153 44.8156 71.096L59.9362 46.9567C60.563 45.9562 61.8292 45.5678 62.9091 46.0446L77.2428 52.3722Z" fill="#455A64"/>
<path id="XMLID_691_" d="M77.2428 52.3724C77.1468 52.5348 77.0214 52.6799 76.8812 52.7759L76.859 52.7906L45.2406 71.0463L45.2357 71.0487C45.0734 71.1398 44.9258 71.1521 44.8151 71.0955L45.2357 70.4264L76.308 52.4831L76.3326 52.4684C76.458 52.3798 76.5712 52.2543 76.6598 52.1141L77.2428 52.3724Z" fill="#455A64"/>
<path id="XMLID_1059_" opacity="0.15" d="M42.8075 42.4193L43.3093 42.7095C43.238 42.9457 43.1937 43.1868 43.1937 43.3836C43.1937 44.0576 43.1937 44.9481 43.1937 44.9481L42.6918 44.6579C42.6918 44.6579 42.6918 43.7649 42.6918 43.0908C42.6918 42.8965 42.7364 42.6554 42.8075 42.4193Z" fill="black"/>
<path id="XMLID_676_" d="M45.7759 45.8586L45.3127 45.7486L44.9462 45.9602L44.4394 45.6674L43.1922 44.9491L43.6768 44.6613L45.7759 45.8586Z" fill="#455A64"/>
<path id="XMLID_168_" opacity="0.1" d="M45.7769 45.8583L45.774 45.8576L43.6771 44.6613L43.1924 44.9491L44.4397 45.6674L44.9464 45.9602L44.9516 45.9572C44.9818 45.9439 45.0141 45.9341 45.0463 45.9272C45.1299 45.9125 45.221 45.9149 45.3169 45.9371L46.3378 46.1806L57.9638 48.9456L58.0671 48.7808L45.7769 45.8583Z" fill="black"/>
</g>
</g>
<g id="Notification">
<g id="XMLID_1150_">
<path id="XMLID_1158_" d="M83.2703 46.8246L80.9352 45.4716C80.9345 45.4711 80.9332 45.4706 80.9325 45.4701L80.9116 45.4581L80.9096 45.4615C79.8905 44.8861 78.4917 44.973 76.9451 45.8657C73.83 47.6645 71.3043 52.0386 71.3043 55.6358C71.3043 57.4314 71.9343 58.6934 72.9513 59.284V59.2848L72.956 59.2875L72.9567 59.288L75.0851 60.5091L75.5842 59.6744C76.0996 59.5561 76.6359 59.3721 77.2022 59.0452C80.317 57.2467 82.8429 52.8723 82.8434 49.275C82.8434 48.7407 82.7716 48.2704 82.6663 47.8342L83.2703 46.8246Z" fill="#455A64"/>
<path id="XMLID_2482_" opacity="0.15" d="M71.5174 53.7409C71.3796 54.3842 71.3043 55.0216 71.3043 55.6361C71.3043 57.4317 71.9343 58.6936 72.9513 59.2843V59.285L72.956 59.2877L72.9567 59.2882L75.0848 60.5094L75.584 59.6747C76.0994 59.5564 76.6356 59.3723 77.2019 59.0454C77.7353 58.7374 78.2504 58.3527 78.7394 57.9106L71.5174 53.7409Z" fill="black"/>
<path id="XMLID_1153_" d="M79.1657 47.1457C76.0504 48.9442 73.5247 53.3185 73.5245 56.9158C73.5245 60.5131 76.0499 61.9711 79.1653 60.1723C82.2806 58.3738 84.8063 53.9995 84.8063 50.4022C84.8065 46.8049 82.2811 45.3469 79.1657 47.1457Z" fill="#FFB42E"/>
<g id="XMLID_1382_">
<path id="XMLID_1384_" d="M81.394 52.1542V50.7722C81.394 49.1953 80.4354 48.4706 79.2526 49.1533C78.0698 49.8362 77.1112 51.6679 77.1112 53.2447V54.4799C77.1112 55.2568 76.8413 56.1397 76.3904 56.8922C76.3894 56.8939 76.3882 56.8956 76.3874 56.8973C76.2797 57.0909 76.2123 57.319 76.2123 57.5291C76.2123 57.9264 76.4539 58.1089 76.7518 57.9369L81.7534 55.0491C82.0513 54.8772 82.2929 54.4157 82.2929 54.0184C82.2929 53.8199 82.2326 53.6747 82.135 53.6009C82.1325 53.5992 82.1298 53.5975 82.1266 53.596C81.6848 53.397 81.394 52.8984 81.394 52.1542Z" fill="white"/>
<path id="XMLID_1383_" d="M80.2809 56.3266C80.2809 57.0836 79.8206 57.963 79.2528 58.2909C78.6851 58.6188 78.2248 58.2708 78.2248 57.5138L80.2809 56.3266Z" fill="white"/>
</g>
</g>
</g>
</g>
</g>
</g>
</svg>
