<svg width="18" height="20" viewBox="0 0 18 20" fill="none" xmlns="http://www.w3.org/2000/svg">
<path d="M17.91 9.11982V4.72982C17.91 3.90982 17.29 2.97982 16.52 2.66982L10.95 0.389824C9.7 -0.120176 8.29 -0.120176 7.04 0.389824L1.47 2.66982C0.709996 2.97982 0.0899963 3.90982 0.0899963 4.72982V9.11982C0.0899963 14.0098 3.64 18.5898 8.49 19.9298C8.82 20.0198 9.18 20.0198 9.51 19.9298C14.36 18.5898 17.91 14.0098 17.91 9.11982ZM9.75 10.8698V13.4998C9.75 13.9098 9.41 14.2498 9 14.2498C8.59 14.2498 8.25 13.9098 8.25 13.4998V10.8698C7.24 10.5498 6.5 9.60982 6.5 8.49982C6.5 7.11982 7.62 5.99982 9 5.99982C10.38 5.99982 11.5 7.11982 11.5 8.49982C11.5 9.61982 10.76 10.5498 9.75 10.8698Z" fill="#6B7280"/>
</svg>
