<svg width="18" height="18" viewBox="0 0 18 18" fill="none" xmlns="http://www.w3.org/2000/svg">
<path d="M11.5 14.94C12.2108 15.1464 12.9473 15.2508 13.6875 15.25C14.8778 15.2517 16.0527 14.9803 17.1216 14.4567C17.1533 13.7098 16.9405 12.9729 16.5156 12.3578C16.0908 11.7427 15.477 11.2828 14.7672 11.0479C14.0575 10.813 13.2906 10.8159 12.5826 11.0562C11.8747 11.2964 11.2644 11.7609 10.8441 12.3792M11.5 14.94V14.9375C11.5 14.01 11.2616 13.1375 10.8441 12.3792M11.5 14.94V15.0283C9.89621 15.9942 8.05882 16.5032 6.18665 16.5C4.24415 16.5 2.42665 15.9625 0.87498 15.0283L0.874146 14.9375C0.873507 13.7579 1.26549 12.6116 1.9883 11.6794C2.71111 10.7472 3.72362 10.082 4.86622 9.78883C6.00882 9.49564 7.2165 9.59107 8.29887 10.0601C9.38123 10.5291 10.2767 11.345 10.8441 12.3792M8.99998 4.3125C8.99998 5.05842 8.70366 5.77379 8.17622 6.30124C7.64877 6.82868 6.9334 7.125 6.18748 7.125C5.44156 7.125 4.72619 6.82868 4.19874 6.30124C3.6713 5.77379 3.37498 5.05842 3.37498 4.3125C3.37498 3.56658 3.6713 2.85121 4.19874 2.32376C4.72619 1.79632 5.44156 1.5 6.18748 1.5C6.9334 1.5 7.64877 1.79632 8.17622 2.32376C8.70366 2.85121 8.99998 3.56658 8.99998 4.3125ZM15.875 6.1875C15.875 6.76766 15.6445 7.32406 15.2343 7.7343C14.824 8.14453 14.2676 8.375 13.6875 8.375C13.1073 8.375 12.5509 8.14453 12.1407 7.7343C11.7304 7.32406 11.5 6.76766 11.5 6.1875C11.5 5.60734 11.7304 5.05094 12.1407 4.6407C12.5509 4.23047 13.1073 4 13.6875 4C14.2676 4 14.824 4.23047 15.2343 4.6407C15.6445 5.05094 15.875 5.60734 15.875 6.1875Z" stroke="#475569" stroke-width="1.5" stroke-linecap="round" stroke-linejoin="round"/>
</svg>
