<svg width="146" height="134" viewBox="0 0 146 134" fill="none" xmlns="http://www.w3.org/2000/svg">
<g id="Frame 2608598" clip-path="url(#clip0_805_14240)">
<g id="freepik--Plants--inject-2">
<path id="Vector" d="M138.055 69.4023C138.055 69.4023 138.055 67.4683 135.357 64.7879C132.659 62.1074 130.948 60.5525 130.948 60.5525C130.948 60.5525 129.606 64.9774 132.104 67.6734C133.937 69.5668 135.925 71.3031 138.047 72.8641L138.055 69.4023Z" fill="#241E36"/>
<path id="Vector_2" d="M134.162 81.416C134.162 81.416 134.162 79.482 131.464 76.8016C128.766 74.1211 127.062 72.5662 127.062 72.5662C127.062 72.5662 125.717 76.9911 128.219 79.687C130.052 81.5805 132.04 83.3168 134.162 84.8778V81.416Z" fill="#241E36"/>
<path id="Vector_3" d="M137.885 72.6783C137.885 72.6783 138.089 70.7676 141.041 68.3733C143.994 65.9791 145.871 64.6331 145.871 64.6331C145.871 64.6331 146.738 69.174 143.978 71.5953C141.956 73.2842 139.796 74.8006 137.522 76.1285L137.885 72.6783Z" fill="#241E36"/>
<path id="Vector_4" d="M133.183 86.8661C133.183 86.8661 133.568 84.9863 136.771 82.9169C139.974 80.8476 141.963 79.7065 141.963 79.7065C141.963 79.7065 142.348 84.3171 139.353 86.4251C137.165 87.8919 134.859 89.1728 132.458 90.2544L133.183 86.8661Z" fill="#241E36"/>
<path id="Vector_5" d="M134.065 102.338C134.065 102.338 134.065 100.404 136.763 97.7196C139.461 95.0352 141.169 93.488 141.169 93.488C141.169 93.488 142.514 97.9129 140.013 100.605C138.18 102.5 136.192 104.238 134.069 105.8L134.065 102.338Z" fill="#241E36"/>
<path id="Vector_6" d="M134.023 106.113C134.023 106.113 134.292 104.21 132.018 101.162C129.744 98.1141 128.253 96.3425 128.253 96.3425C128.253 96.3425 126.299 100.532 128.384 103.552C129.93 105.689 131.651 107.692 133.529 109.54L134.023 106.113Z" fill="#241E36"/>
<path id="Vector_7" d="M131.375 117.303C131.375 117.303 131.375 115.369 134.073 112.688C136.771 110.008 138.482 108.453 138.482 108.453C138.482 108.453 139.824 112.878 137.326 115.574C135.492 117.468 133.504 119.205 131.383 120.768L131.375 117.303Z" fill="#241E36"/>
<path id="Vector_8" d="M133.167 127.448C133.167 127.448 132.682 125.588 134.597 122.3C136.513 119.012 137.796 117.086 137.796 117.086C137.796 117.086 140.209 121.024 138.478 124.265C137.184 126.563 135.7 128.748 134.042 130.798L133.167 127.448Z" fill="#241E36"/>
<path id="Vector_9" d="M138.298 68.9111C138.163 70.9138 137.918 72.9075 137.565 74.8832C136.502 80.3834 133.85 83.9342 132.79 88.9006C131.73 93.867 134.775 100.268 133.946 106.651C133.118 113.033 130.659 116.58 131.364 120.838C132.069 125.097 135.785 136.631 135.785 136.631" stroke="#263238" stroke-linecap="round" stroke-linejoin="round"/>
<path id="Vector_10" d="M137.861 73.9586L140.752 71.7307" stroke="#263238" stroke-linecap="round" stroke-linejoin="round"/>
<path id="Vector_11" d="M137.996 71.3943L136.782 69.2322" stroke="#263238" stroke-linecap="round" stroke-linejoin="round"/>
<path id="Vector_12" d="M132.951 88.6724C132.951 88.6724 135.372 86.8506 137.861 85.0288" stroke="#263238" stroke-linecap="round" stroke-linejoin="round"/>
<path id="Vector_13" d="M134.162 84.878C134.162 84.878 132.142 80.9095 129.856 78.2793" stroke="#263238" stroke-linecap="round" stroke-linejoin="round"/>
<path id="Vector_14" d="M134.162 105.076C135.543 102.515 137.288 100.17 139.342 98.114" stroke="#263238" stroke-linecap="round" stroke-linejoin="round"/>
<path id="Vector_15" d="M133.692 107.776C132.957 106.04 132.079 104.368 131.067 102.779C129.656 100.686 129.452 100.415 129.452 100.415" stroke="#263238" stroke-linecap="round" stroke-linejoin="round"/>
<path id="Vector_16" d="M131.375 120.838C131.99 119.313 132.719 117.838 133.557 116.425C134.395 115.111 135.34 113.869 136.382 112.711" stroke="#263238" stroke-linecap="round" stroke-linejoin="round"/>
<path id="Vector_17" d="M134.042 130.798C133.901 129.34 134.152 127.871 134.767 126.543C135.776 124.586 136.917 122.022 137.387 121.008" stroke="#263238" stroke-linecap="round" stroke-linejoin="round"/>
<path id="Vector_18" d="M116.155 95.1048C116.155 95.1048 115.946 93.898 117.338 91.9138C118.729 89.9295 119.65 88.7808 119.65 88.7808C119.65 88.7808 120.969 91.411 119.697 93.3681C118.752 94.7564 117.694 96.0631 116.532 97.2747L116.155 95.1048Z" fill="#241E36"/>
<path id="Vector_19" d="M119.897 102.214C119.897 102.214 119.689 101.007 121.08 99.0229C122.471 97.0387 123.393 95.8899 123.393 95.8899C123.393 95.8899 124.711 98.5201 123.439 100.481C122.494 101.868 121.435 103.173 120.274 104.384L119.897 102.214Z" fill="#241E36"/>
<path id="Vector_20" d="M116.613 97.1393C116.613 97.1393 116.282 95.9789 114.17 94.7837C112.058 93.5885 110.739 92.9619 110.739 92.9619C110.739 92.9619 110.685 95.9054 112.667 97.1199C114.117 97.9579 115.634 98.6733 117.203 99.2589L116.613 97.1393Z" fill="#241E36"/>
<path id="Vector_21" d="M121.1 105.525C121.1 105.525 120.645 104.388 118.425 103.436C116.205 102.485 114.817 101.99 114.817 101.99C114.817 101.99 115.072 104.922 117.184 105.92C118.714 106.6 120.299 107.151 121.921 107.567L121.1 105.525Z" fill="#241E36"/>
<path id="Vector_22" d="M122.217 115.322C122.217 115.322 122.013 114.116 120.036 112.719C118.059 111.323 116.814 110.545 116.814 110.545C116.814 110.545 116.451 113.466 118.305 114.881C119.66 115.871 121.095 116.744 122.595 117.492L122.217 115.322Z" fill="#241E36"/>
<path id="Vector_23" d="M122.657 117.686C122.657 117.686 122.271 116.525 123.378 114.359C124.484 112.193 125.216 110.928 125.216 110.928C125.216 110.928 126.893 113.342 125.914 115.466C125.176 116.973 124.314 118.416 123.335 119.778L122.657 117.686Z" fill="#241E36"/>
<path id="Vector_24" d="M126.026 127.413C126.026 127.413 126.165 126.199 128.057 124.706C129.949 123.213 131.14 122.35 131.14 122.35C131.14 122.35 131.668 125.247 129.899 126.768C128.604 127.832 127.222 128.785 125.768 129.618L126.026 127.413Z" fill="#241E36"/>
<path id="Vector_25" d="M125.52 124.412C125.52 124.412 125.312 123.205 123.339 121.809C121.365 120.413 120.124 119.635 120.124 119.635C120.124 119.635 119.762 122.556 121.616 123.975C122.971 124.963 124.406 125.836 125.906 126.586L125.52 124.412Z" fill="#241E36"/>
<path id="Vector_26" d="M125.521 130.972C125.521 130.972 125.621 129.75 124.064 127.897C122.507 126.044 121.497 124.977 121.497 124.977C121.497 124.977 120.406 127.708 121.844 129.553C122.898 130.852 124.058 132.06 125.313 133.165L125.521 130.972Z" fill="#241E36"/>
<path id="Vector_27" d="M115.95 94.8186C116.252 96.0603 116.621 97.2844 117.056 98.4854C118.317 101.82 120.363 103.757 121.566 106.755C122.768 109.753 121.566 114.104 122.753 118.015C123.94 121.925 125.906 123.882 125.906 126.628C125.906 129.375 124.842 137.014 124.842 137.014" stroke="#263238" stroke-linecap="round" stroke-linejoin="round"/>
<path id="Vector_28" d="M116.771 97.9361L114.717 96.8569" stroke="#263238" stroke-linecap="round" stroke-linejoin="round"/>
<path id="Vector_29" d="M116.409 96.3425L116.933 94.8572" stroke="#263238" stroke-linecap="round" stroke-linejoin="round"/>
<path id="Vector_30" d="M121.439 106.631C121.439 106.631 119.723 105.753 117.97 104.879" stroke="#263238" stroke-linecap="round" stroke-linejoin="round"/>
<path id="Vector_31" d="M120.271 104.384C120.776 102.79 121.441 101.252 122.255 99.7927" stroke="#263238" stroke-linecap="round" stroke-linejoin="round"/>
<path id="Vector_32" d="M122.457 117.047C121.313 115.595 119.965 114.317 118.456 113.253" stroke="#263238" stroke-linecap="round" stroke-linejoin="round"/>
<path id="Vector_33" d="M123.042 118.688C123.316 117.52 123.686 116.378 124.148 115.272C124.807 113.806 124.919 113.613 124.919 113.613" stroke="#263238" stroke-linecap="round" stroke-linejoin="round"/>
<path id="Vector_34" d="M125.813 128.713C126.482 127.882 127.222 127.112 128.026 126.412C128.537 126.034 129.017 125.615 129.46 125.158" stroke="#263238" stroke-linecap="round" stroke-linejoin="round"/>
<path id="Vector_35" d="M125.906 126.628C125.355 125.737 124.738 124.889 124.06 124.091C123.391 123.359 122.664 122.684 121.886 122.072" stroke="#263238" stroke-linecap="round" stroke-linejoin="round"/>
<path id="Vector_36" d="M125.312 133.165C125.243 132.235 124.928 131.34 124.398 130.574C123.554 129.456 122.56 127.971 122.155 127.386" stroke="#263238" stroke-linecap="round" stroke-linejoin="round"/>
</g>
<g id="freepik--Character--inject-2">
<path id="Vector_37" d="M23.668 68.7486C22.5464 66.5787 22.0762 65.0237 22.0762 64.664C22.0762 63.9523 23.6179 63.5269 23.6179 63.5269C26.0229 62.2504 37.3351 64.0954 42.4266 64.9464C45.2767 65.445 48.16 65.7295 51.0524 65.7973C51.0524 65.7973 51.7577 65.2326 52.5941 64.5209C53.4304 63.8092 57.4003 59.129 58.9574 58.719C60.5145 58.309 61.9252 59.2876 61.9252 59.2876C61.9252 59.2876 64.4729 60.8348 64.045 61.1326C63.6172 61.4304 57.4003 66.8069 55.8432 67.8009C54.2861 68.795 51.037 68.3695 48.2079 68.9381C45.7721 69.4255 35.9052 70.0289 33.6428 70.2145C31.9436 70.6189 30.1604 70.4699 28.5513 69.789" fill="white"/>
<g id="Clip path group">
<mask id="mask0_805_14240" style="mask-type:luminance" maskUnits="userSpaceOnUse" x="22" y="58" width="43" height="13">
<g id="freepik--clip-path--inject-2">
<path id="Vector_38" d="M23.668 68.7486C22.5464 66.5787 22.0762 65.0237 22.0762 64.664C22.0762 63.9523 23.6179 63.5269 23.6179 63.5269C26.0229 62.2504 37.3351 64.0954 42.4266 64.9464C45.2767 65.445 48.16 65.7295 51.0524 65.7973C51.0524 65.7973 51.7577 65.2326 52.5941 64.5209C53.4304 63.8092 57.4003 59.129 58.9574 58.719C60.5145 58.309 61.9252 59.2876 61.9252 59.2876C61.9252 59.2876 64.4729 60.8348 64.045 61.1326C63.6172 61.4304 57.4003 66.8069 55.8432 67.8009C54.2861 68.795 51.037 68.3695 48.2079 68.9381C45.7721 69.4255 35.9052 70.0289 33.6428 70.2145C31.9436 70.6189 30.1604 70.4699 28.5513 69.789" fill="white"/>
</g>
</mask>
<g mask="url(#mask0_805_14240)">
<g id="Group">
<path id="Vector_39" d="M61.9525 59.2721C61.9525 59.2721 60.538 58.2781 58.9848 58.7036C57.4315 59.129 53.4694 63.8131 52.6214 64.5054C51.7735 65.1978 51.0797 65.7819 51.0797 65.7819C48.1874 65.714 45.3041 65.4296 42.4539 64.9309C37.3625 64.08 26.0503 62.2234 23.6452 63.5114C23.6452 63.5114 22.1035 63.9369 22.1035 64.6486C22.1571 65.0464 22.2593 65.4362 22.408 65.8089L22.62 65.8863C22.62 65.8863 25.4451 65.5885 31.5426 65.7354C37.64 65.8824 51.7427 66.7218 52.6484 67.0505C53.0338 67.1975 55.7665 66.5787 58.7959 65.5034C61.1085 63.612 63.8257 61.2486 64.0994 61.0823C64.5002 60.8309 61.9525 59.2721 61.9525 59.2721Z" fill="#241E36"/>
<path id="Vector_40" opacity="0.5" d="M61.9525 59.2721C61.9525 59.2721 60.538 58.2781 58.9848 58.7036C57.4315 59.129 53.4694 63.8131 52.6214 64.5054C51.7735 65.1978 51.0797 65.7819 51.0797 65.7819C48.1874 65.714 45.3041 65.4296 42.4539 64.9309C37.3625 64.08 26.0503 62.2234 23.6452 63.5114C23.6452 63.5114 22.1035 63.9369 22.1035 64.6486C22.1571 65.0464 22.2593 65.4362 22.408 65.8089L22.62 65.8863C22.62 65.8863 25.4451 65.5885 31.5426 65.7354C37.64 65.8824 51.7427 66.7218 52.6484 67.0505C53.0338 67.1975 55.7665 66.5787 58.7959 65.5034C61.1085 63.612 63.8257 61.2486 64.0994 61.0823C64.5002 60.8309 61.9525 59.2721 61.9525 59.2721Z" fill="white"/>
</g>
</g>
</g>
<path id="Vector_41" d="M23.668 68.7486C22.5464 66.5787 22.0762 65.0237 22.0762 64.664C22.0762 63.9523 23.6179 63.5269 23.6179 63.5269C26.0229 62.2504 37.3351 64.0954 42.4266 64.9464C45.2767 65.445 48.16 65.7295 51.0524 65.7973C51.0524 65.7973 51.7577 65.2326 52.5941 64.5209C53.4304 63.8092 57.4003 59.129 58.9574 58.719C60.5145 58.309 61.9252 59.2876 61.9252 59.2876C61.9252 59.2876 64.4729 60.8348 64.045 61.1326C63.6172 61.4304 57.4003 66.8069 55.8432 67.8009C54.2861 68.795 51.037 68.3695 48.2079 68.9381C45.7721 69.4255 35.9052 70.0289 33.6428 70.2145C31.9436 70.6189 30.1604 70.4699 28.5513 69.789" stroke="#263238" stroke-linecap="round" stroke-linejoin="round"/>
<path id="Vector_42" d="M79.5202 81.3659C79.776 80.8785 80.1597 80.4707 80.6298 80.1864C81.0999 79.9021 81.6385 79.7522 82.1874 79.7529H107.895C107.895 79.7529 109.753 79.7529 109.198 83.296C108.643 86.839 101.019 108.472 99.1769 115.013C97.3346 121.554 96.9453 135.339 96.9453 135.339H66.1113C66.1113 135.339 68.5549 102.373 79.5202 81.3659Z" fill="white"/>
<g id="Clip path group_2">
<mask id="mask1_805_14240" style="mask-type:luminance" maskUnits="userSpaceOnUse" x="66" y="79" width="44" height="57">
<g id="freepik--clip-path-2--inject-2">
<path id="Vector_43" d="M79.5202 81.3659C79.776 80.8785 80.1597 80.4707 80.6298 80.1864C81.0999 79.9021 81.6385 79.7522 82.1874 79.7529H107.895C107.895 79.7529 109.753 79.7529 109.198 83.296C108.643 86.839 101.019 108.472 99.1769 115.013C97.3346 121.554 96.9453 135.339 96.9453 135.339H66.1113C66.1113 135.339 68.5549 102.373 79.5202 81.3659Z" fill="white"/>
</g>
</mask>
<g mask="url(#mask1_805_14240)">
<g id="Group_2">
<path id="Vector_44" opacity="0.16" d="M91.098 79.7529H82.187C81.6382 79.7522 81.0996 79.9021 80.6295 80.1864C80.1594 80.4707 79.7757 80.8785 79.5199 81.3659C68.5546 102.373 66.084 135.327 66.084 135.327H79.913L83.324 122.327L97.5462 125.271C97.6464 124.18 97.762 123.07 97.8969 121.975L97.5847 118.494C97.5847 118.494 94.6709 115.419 93.7536 114.649C92.8363 113.88 93.4453 112.491 93.2911 106.492C93.1369 100.493 87.7718 96.18 85.7753 92.4862C83.7788 88.7923 86.8507 86.4831 89.6103 82.7893C90.5931 81.4548 90.994 80.4724 91.098 79.7529Z" fill="black"/>
</g>
</g>
</g>
<path id="Vector_45" d="M79.5202 81.3659C79.776 80.8785 80.1597 80.4707 80.6298 80.1864C81.0999 79.9021 81.6385 79.7522 82.1874 79.7529H107.895C107.895 79.7529 109.753 79.7529 109.198 83.296C108.643 86.839 101.019 108.472 99.1769 115.013C97.3346 121.554 96.9453 135.339 96.9453 135.339H66.1113C66.1113 135.339 68.5549 102.373 79.5202 81.3659Z" stroke="#263238" stroke-linecap="round" stroke-linejoin="round"/>
<path id="Vector_46" d="M103.435 85.9067C100.838 91.9909 95.3415 116.077 94.4473 135.327H96.9294C96.9294 135.327 97.3148 121.526 99.161 115.001C101.007 108.476 108.639 86.8389 109.182 83.2842C109.725 79.7296 107.879 79.7412 107.879 79.7412C107.879 79.7412 105.521 81.0292 103.435 85.9067Z" fill="#263238" stroke="#263238" stroke-linecap="round" stroke-linejoin="round"/>
<path id="Vector_47" d="M58.2759 73.746C58.2759 73.746 54.175 71.3324 52.6217 67.0776C51.0685 62.8229 64.7819 56.0076 70.7367 55.5822C76.6915 55.1567 78.3719 56.7155 81.914 62.8191C85.456 68.9227 87.8534 77.2929 86.0149 81.4083C84.1764 85.5238 81.0661 86.5179 83.3169 89.9178C85.5678 93.3177 91.9427 102.972 91.5188 107.513C91.0948 112.054 86.7125 116.022 80.3415 116.456C73.9704 116.889 65.4911 113.048 58.4224 106.786C51.3537 100.524 53.1883 91.3141 55.7244 88.3358C58.2605 85.3575 62.0878 84.2203 62.3691 81.242C62.6505 78.2637 58.2759 73.746 58.2759 73.746Z" fill="#263238" stroke="#263238" stroke-linecap="round" stroke-linejoin="round"/>
<path id="Vector_48" d="M75.7549 67.012C77.9325 71.081 80.6575 76.5309 81.5093 79.8225C82.997 85.5858 75.3425 89.2139 77.4662 91.9872" stroke="white" stroke-linecap="round" stroke-linejoin="round"/>
<path id="Vector_49" d="M72.7871 61.6819C72.7871 61.6819 73.6351 63.1324 74.8067 65.2675" stroke="white" stroke-linecap="round" stroke-linejoin="round"/>
<path id="Vector_50" d="M84.2109 71.9204C84.4621 72.683 84.6251 73.4721 84.6966 74.2721" stroke="white" stroke-linecap="round" stroke-linejoin="round"/>
<path id="Vector_51" d="M74.2588 59.5662C74.2588 59.5662 80.9575 64.5326 83.6323 70.4776" stroke="white" stroke-linecap="round" stroke-linejoin="round"/>
<path id="Vector_52" d="M64.9623 63.291C60.1791 64.6371 53.2993 66.8224 53.8582 68.0834" stroke="white" stroke-linecap="round" stroke-linejoin="round"/>
<path id="Vector_53" d="M69.3836 62.1074C69.3836 62.1074 68.3623 62.3627 66.8398 62.7727" stroke="white" stroke-linecap="round" stroke-linejoin="round"/>
<path id="Vector_54" d="M63.4668 59.6008C66.2066 58.7343 69.0762 58.3547 71.9461 58.4791" stroke="white" stroke-linecap="round" stroke-linejoin="round"/>
<path id="Vector_55" d="M61.5166 60.4016C61.9498 60.1751 62.3979 59.9787 62.8579 59.8137" stroke="white" stroke-linecap="round" stroke-linejoin="round"/>
<path id="Vector_56" d="M23.6683 68.7486C23.0192 67.5556 22.5022 66.2949 22.1266 64.989C22.5004 66.2955 23.0174 67.5565 23.6683 68.7486ZM22.0842 64.7685C22.0842 64.7917 22.0842 64.8188 22.0842 64.8536C22.0919 64.8188 22.0881 64.7917 22.0842 64.7685ZM23.6683 68.7447C25.1098 71.4847 26.9032 74.0231 29.0026 76.2949C34.094 81.8299 48.8018 96.3076 50.2009 97.3017C51.6 98.2957 51.1915 101.131 50.2009 103.97C49.2104 106.809 45.5334 110.932 45.676 115.465C45.8187 119.999 47.2177 126.961 47.0905 128.38C46.9634 129.8 43.4252 134.627 43.4252 134.627H79.9094C79.9094 134.627 75.3614 128.825 75.3614 126.841C75.3614 124.857 81.6053 99.4329 81.8867 97.5879C82.168 95.7429 81.0387 94.4665 78.7763 94.3234C76.5139 94.1802 67.8881 92.3352 67.4641 90.9157C67.0401 89.4962 69.7265 84.1043 69.7265 84.1043L61.2472 84.5298C61.2472 84.5298 60.8232 88.2198 60.2566 88.9315C59.6901 89.6432 58.8421 88.2198 56.8611 87.2296C54.88 86.2394 51.0797 85.3846 49.6498 84.2474C48.2198 83.1102 34.6606 70.3228 34.6606 70.3228" fill="white"/>
<g id="Clip path group_3">
<mask id="mask2_805_14240" style="mask-type:luminance" maskUnits="userSpaceOnUse" x="22" y="64" width="60" height="71">
<g id="freepik--clip-path-3--inject-2">
<path id="Vector_57" d="M23.6683 68.7486C23.0192 67.5556 22.5022 66.2949 22.1266 64.989C22.5004 66.2955 23.0174 67.5565 23.6683 68.7486ZM22.0842 64.7685C22.0842 64.7917 22.0842 64.8188 22.0842 64.8536C22.0919 64.8188 22.0881 64.7917 22.0842 64.7685ZM23.6683 68.7447C25.1098 71.4847 26.9032 74.0231 29.0026 76.2949C34.094 81.8299 48.8018 96.3076 50.2009 97.3017C51.6 98.2957 51.1915 101.131 50.2009 103.97C49.2104 106.809 45.5334 110.932 45.676 115.465C45.8187 119.999 47.2177 126.961 47.0905 128.38C46.9634 129.8 43.4252 134.627 43.4252 134.627H79.9094C79.9094 134.627 75.3614 128.825 75.3614 126.841C75.3614 124.857 81.6053 99.4329 81.8867 97.5879C82.168 95.7429 81.0387 94.4665 78.7763 94.3234C76.5139 94.1802 67.8881 92.3352 67.4641 90.9157C67.0401 89.4962 69.7265 84.1043 69.7265 84.1043L61.2472 84.5298C61.2472 84.5298 60.8232 88.2198 60.2566 88.9315C59.6901 89.6432 58.8421 88.2198 56.8611 87.2296C54.88 86.2394 51.0797 85.3846 49.6498 84.2474C48.2198 83.1102 34.6606 70.3228 34.6606 70.3228" fill="white"/>
</g>
</mask>
<g mask="url(#mask2_805_14240)">
<g id="Group_3">
<path id="Vector_58" d="M51.8154 85.342C52.5208 86.5798 53.2261 87.6976 53.2261 87.6976C53.2261 87.6976 55.6041 89.0398 56.1977 89.0398C56.7913 89.0398 60.3603 90.9737 60.3603 90.9737C60.3603 90.9737 63.3358 90.2272 62.2874 87.6899C61.9567 87.0403 61.5391 86.4391 61.0463 85.9029C60.869 87.0285 60.5838 88.5021 60.2485 88.9237C59.6819 89.6316 58.834 88.212 56.8529 87.2218C55.5695 86.5798 53.492 85.9919 51.8154 85.342Z" fill="#241E36"/>
<path id="Vector_59" d="M44.5543 79.5983C40.1874 75.5408 34.6604 70.3384 34.6604 70.3384L31.446 69.8743L31.0605 70.0909C31.0605 70.0909 40.1334 78.1478 42.0644 79.0451C42.8456 79.4055 43.6945 79.5941 44.5543 79.5983Z" fill="#241E36"/>
<path id="Vector_60" d="M49.1291 83.7989L48.7822 83.4895C48.9595 83.7835 49.0597 83.9691 49.0597 83.9691L49.1291 83.7989Z" fill="#241E36"/>
<g id="Group_4" opacity="0.5">
<path id="Vector_61" d="M51.8154 85.342C52.5208 86.5798 53.2261 87.6976 53.2261 87.6976C53.2261 87.6976 55.6041 89.0398 56.1977 89.0398C56.7913 89.0398 60.3603 90.9737 60.3603 90.9737C60.3603 90.9737 63.3358 90.2272 62.2874 87.6899C61.9567 87.0403 61.5391 86.4391 61.0463 85.9029C60.869 87.0285 60.5838 88.5021 60.2485 88.9237C59.6819 89.6316 58.834 88.212 56.8529 87.2218C55.5695 86.5798 53.492 85.9919 51.8154 85.342Z" fill="white"/>
<path id="Vector_62" d="M44.5543 79.5983C40.1874 75.5408 34.6604 70.3384 34.6604 70.3384L31.446 69.8743L31.0605 70.0909C31.0605 70.0909 40.1334 78.1478 42.0644 79.0451C42.8456 79.4055 43.6945 79.5941 44.5543 79.5983Z" fill="white"/>
<path id="Vector_63" d="M49.1291 83.7989L48.7822 83.4895C48.9595 83.7835 49.0597 83.9691 49.0597 83.9691L49.1291 83.7989Z" fill="white"/>
</g>
</g>
</g>
</g>
<path id="Vector_64" d="M22.0765 64.6641C22.0748 64.6911 22.0748 64.7182 22.0765 64.7453M22.1266 64.989C22.5022 66.2949 23.0192 67.5556 23.6683 68.7486C23.0174 67.5565 22.5004 66.2955 22.1266 64.989ZM22.1266 64.989C22.116 64.9523 22.1082 64.9147 22.1035 64.8768M23.6683 68.7447C25.1098 71.4847 26.9032 74.0231 29.0026 76.2949C34.094 81.8299 48.8018 96.3076 50.2009 97.3017C51.6 98.2957 51.1915 101.131 50.2009 103.97C49.2104 106.809 45.5334 110.932 45.676 115.465C45.8187 119.999 47.2177 126.961 47.0906 128.38C46.9634 129.8 43.4252 134.627 43.4252 134.627H79.9094C79.9094 134.627 75.3614 128.825 75.3614 126.841C75.3614 124.857 81.6053 99.4329 81.8867 97.5879C82.168 95.7429 81.0387 94.4665 78.7763 94.3234C76.5139 94.1802 67.8881 92.3352 67.4641 90.9157C67.0401 89.4962 69.7265 84.1043 69.7265 84.1043L61.2472 84.5298C61.2472 84.5298 60.8232 88.2198 60.2567 88.9315C59.6901 89.6432 58.8421 88.2198 56.8611 87.2296C54.88 86.2394 51.0797 85.3846 49.6498 84.2474C48.2198 83.1102 34.6606 70.3228 34.6606 70.3228M22.0842 64.7685C22.0842 64.7917 22.0842 64.8188 22.0842 64.8536C22.0919 64.8188 22.0881 64.7917 22.0842 64.7685Z" stroke="#263238" stroke-linecap="round" stroke-linejoin="round"/>
<path id="Vector_65" d="M34.6609 70.3383C34.6609 70.3383 30.1437 70.4234 27.623 68.3386" stroke="#263238" stroke-linecap="round" stroke-linejoin="round"/>
<path id="Vector_66" d="M67.4675 90.9157C67.0435 89.5 69.7299 84.1042 69.7299 84.1042L61.2506 84.5297C61.2506 84.5297 60.8266 88.2197 60.26 88.9314C59.6935 89.6431 58.8455 88.2197 56.8645 87.2295C56.7141 87.1522 56.5484 87.0787 56.3788 87.0052L55.8662 95.093C55.8662 95.093 56.6101 102.926 65.5288 101.436C69.1402 100.833 72.9945 97.5995 76.3207 93.9636C72.8981 93.3331 67.7912 92.0026 67.4675 90.9157Z" fill="white"/>
<g id="Clip path group_4">
<mask id="mask3_805_14240" style="mask-type:luminance" maskUnits="userSpaceOnUse" x="55" y="84" width="22" height="18">
<g id="freepik--clip-path-4--inject-2">
<path id="Vector_67" d="M67.4675 90.9157C67.0435 89.5 69.7299 84.1042 69.7299 84.1042L61.2506 84.5297C61.2506 84.5297 60.8266 88.2197 60.26 88.9314C59.6935 89.6431 58.8455 88.2197 56.8645 87.2295C56.7141 87.1522 56.5484 87.0787 56.3788 87.0052L55.8662 95.093C55.8662 95.093 56.6101 102.926 65.5288 101.436C69.1402 100.833 72.9945 97.5995 76.3207 93.9636C72.8981 93.3331 67.7912 92.0026 67.4675 90.9157Z" fill="white"/>
</g>
</mask>
<g mask="url(#mask3_805_14240)">
<g id="Group_5">
<path id="Vector_68" d="M67.2288 85.1756C67.2288 85.1756 66.7162 88.061 66.3038 91.2521C65.8914 94.4431 65.5869 96.818 65.5869 96.818L67.4678 90.9156L69.5876 84.6611C69.5876 84.6611 67.5372 84.6611 67.2288 85.1756Z" fill="#241E36"/>
<path id="Vector_69" opacity="0.5" d="M67.2288 85.1756C67.2288 85.1756 66.7162 88.061 66.3038 91.2521C65.8914 94.4431 65.5869 96.818 65.5869 96.818L67.4678 90.9156L69.5876 84.6611C69.5876 84.6611 67.5372 84.6611 67.2288 85.1756Z" fill="white"/>
</g>
</g>
</g>
<path id="Vector_70" d="M67.4675 90.9157C67.0435 89.5 69.7299 84.1042 69.7299 84.1042L61.2506 84.5297C61.2506 84.5297 60.8266 88.2197 60.26 88.9314C59.6935 89.6431 58.8455 88.2197 56.8645 87.2295C56.7141 87.1522 56.5484 87.0787 56.3788 87.0052L55.8662 95.093C55.8662 95.093 56.6101 102.926 65.5288 101.436C69.1402 100.833 72.9945 97.5995 76.3207 93.9636C72.8981 93.3331 67.7912 92.0026 67.4675 90.9157Z" stroke="#263238" stroke-linecap="round" stroke-linejoin="round"/>
<path id="Vector_71" d="M60.2563 88.9315C59.6897 89.6394 58.8418 88.2198 56.8607 87.2297C55.6119 86.5992 53.6231 86.0267 51.9774 85.4079C51.511 84.2978 50.8943 82.8512 50.4973 81.977C49.792 80.4298 48.6589 81.4084 48.6589 81.4084C48.0677 80.7337 47.5899 79.9668 47.2443 79.1379C46.539 77.5908 45.4059 77.7184 43.8526 77.4361C42.2994 77.1537 39.0425 74.1715 39.0425 74.1715C39.0425 74.1715 37.5201 73.0111 36.8918 72.4348C36.1595 73.8814 34.4059 76.4265 30.6133 78.0162C36.6606 84.3558 48.9286 96.4005 50.216 97.3056C51.6305 98.2958 51.2065 101.135 50.216 103.974C49.2254 106.813 45.5485 110.936 45.6911 115.469C45.8337 120.003 47.2328 126.965 47.1056 128.384C46.9784 129.649 44.1571 133.614 43.5443 134.465L44.9819 134.627H52.4669C52.4245 130.821 52.4283 115.288 55.0222 109.099C57.9938 101.986 60.2563 88.9315 60.2563 88.9315Z" fill="#241E36"/>
<g id="Clip path group_5">
<mask id="mask4_805_14240" style="mask-type:luminance" maskUnits="userSpaceOnUse" x="30" y="72" width="31" height="63">
<g id="freepik--clip-path-5--inject-2">
<path id="Vector_72" d="M60.2563 88.9315C59.6897 89.6394 58.8418 88.2198 56.8607 87.2297C55.6119 86.5992 53.6231 86.0267 51.9774 85.4079C51.511 84.2978 50.8943 82.8512 50.4973 81.977C49.792 80.4298 48.6589 81.4084 48.6589 81.4084C48.0677 80.7337 47.5899 79.9668 47.2443 79.1379C46.539 77.5908 45.4059 77.7184 43.8526 77.4361C42.2994 77.1537 39.0425 74.1715 39.0425 74.1715C39.0425 74.1715 37.5201 73.0111 36.8918 72.4348C36.1595 73.8814 34.4059 76.4265 30.6133 78.0162C36.6606 84.3558 48.9286 96.4005 50.216 97.3056C51.6305 98.2958 51.2065 101.135 50.216 103.974C49.2254 106.813 45.5485 110.936 45.6911 115.469C45.8337 120.003 47.2328 126.965 47.1056 128.384C46.9784 129.649 44.1571 133.614 43.5443 134.465L44.9819 134.627H52.4669C52.4245 130.821 52.4283 115.288 55.0222 109.099C57.9938 101.986 60.2563 88.9315 60.2563 88.9315Z" fill="white"/>
</g>
</mask>
<g mask="url(#mask4_805_14240)">
<g id="Group_6">
<path id="Vector_73" opacity="0.16" d="M56.861 87.2297C55.6123 86.5992 53.6235 86.0267 51.9777 85.4079C51.5113 84.2978 50.8947 82.8512 50.4977 81.977C49.7924 80.4298 48.6592 81.4084 48.6592 81.4084C48.068 80.7337 47.5903 79.9668 47.2447 79.1379C46.5394 77.5908 45.4062 77.7184 43.853 77.4361C42.2997 77.1537 39.0429 74.1715 39.0429 74.1715C39.0429 74.1715 37.5204 73.0111 36.8922 72.4348C36.5787 73.0491 36.2056 73.6308 35.7783 74.1715C38.3067 76.3182 41.0972 78.5926 42.0723 79.0451C43.9994 79.9386 44.4504 79.1921 45.9265 80.0895C47.4027 80.9868 49.0485 83.9574 49.0485 83.9574C49.0485 83.9574 49.9427 81.567 50.6865 83.2109C51.4304 84.8547 53.2149 87.6861 53.2149 87.6861C53.2149 87.6861 55.593 89.0282 56.1865 89.0282C56.6529 89.0282 58.9385 90.2196 59.9097 90.734C60.1256 89.6007 60.2451 88.9199 60.2451 88.9199C59.69 89.6394 58.8421 88.2198 56.861 87.2297Z" fill="black"/>
</g>
</g>
</g>
<path id="Vector_74" d="M60.2563 88.9315C59.6897 89.6394 58.8418 88.2198 56.8607 87.2297C55.6119 86.5992 53.6231 86.0267 51.9774 85.4079C51.511 84.2978 50.8943 82.8512 50.4973 81.977C49.792 80.4298 48.6589 81.4084 48.6589 81.4084C48.0677 80.7337 47.5899 79.9668 47.2443 79.1379C46.539 77.5908 45.4059 77.7184 43.8526 77.4361C42.2994 77.1537 39.0425 74.1715 39.0425 74.1715C39.0425 74.1715 37.5201 73.0111 36.8918 72.4348C36.1595 73.8814 34.4059 76.4265 30.6133 78.0162C36.6606 84.3558 48.9286 96.4005 50.216 97.3056C51.6305 98.2958 51.2065 101.135 50.216 103.974C49.2254 106.813 45.5485 110.936 45.6911 115.469C45.8337 120.003 47.2328 126.965 47.1056 128.384C46.9784 129.649 44.1571 133.614 43.5443 134.465L44.9819 134.627H52.4668C52.4245 130.821 52.4283 115.288 55.0222 109.099C57.9938 101.986 60.2563 88.9315 60.2563 88.9315Z" stroke="#263238" stroke-linecap="round" stroke-linejoin="round"/>
<path id="Vector_75" d="M60.357 88.4364C60.357 88.4364 58.5994 87.8949 57.5164 88.8464C56.4333 89.7979 54.8184 94.6792 53.8664 99.9744C53.2796 103.057 53.6846 106.247 55.0227 109.083C55.0227 109.083 57.2466 103.231 57.9211 100.381C58.5956 97.5299 60.357 88.4364 60.357 88.4364Z" fill="#241E36"/>
<g id="Clip path group_6">
<mask id="mask5_805_14240" style="mask-type:luminance" maskUnits="userSpaceOnUse" x="53" y="88" width="8" height="22">
<g id="freepik--clip-path-6--inject-2">
<path id="Vector_76" d="M60.357 88.4364C60.357 88.4364 58.5994 87.8949 57.5164 88.8464C56.4333 89.7979 54.8184 94.6792 53.8664 99.9744C53.2796 103.057 53.6846 106.247 55.0227 109.083C55.0227 109.083 57.2466 103.231 57.9211 100.381C58.5956 97.5299 60.357 88.4364 60.357 88.4364Z" fill="white"/>
</g>
</mask>
<g mask="url(#mask5_805_14240)">
<g id="Group_7">
<path id="Vector_77" opacity="0.16" d="M56.9844 89.299C56.9844 89.299 58.2563 88.9895 58.7805 89.1674C59.2218 89.3574 59.6344 89.6087 60.0061 89.914L60.3568 88.4364C59.8307 88.1666 59.234 88.0679 58.6494 88.1541C57.7745 88.332 56.9844 89.299 56.9844 89.299Z" fill="black"/>
</g>
</g>
</g>
<path id="Vector_78" d="M60.357 88.4364C60.357 88.4364 58.5994 87.8949 57.5164 88.8464C56.4333 89.7979 54.8184 94.6792 53.8664 99.9744C53.2796 103.057 53.6846 106.247 55.0227 109.083C55.0227 109.083 57.2466 103.231 57.9211 100.381C58.5956 97.5299 60.357 88.4364 60.357 88.4364Z" stroke="#263238" stroke-linecap="round" stroke-linejoin="round"/>
<path id="Vector_79" d="M48.5204 88.9004L50.7829 98.1254L45.6914 86.4868" stroke="#263238" stroke-linecap="round" stroke-linejoin="round"/>
<path id="Vector_80" d="M63.4251 134.627H79.9135C79.9135 134.627 75.3655 128.825 75.3655 126.841C75.3655 124.857 81.6094 99.433 81.8908 97.588C82.1721 95.7429 81.0428 94.4665 78.7804 94.3234C76.518 94.1803 67.8922 92.3353 67.4682 90.9158C67.4682 90.9158 64.2152 102.411 63.0859 110.217C62.1146 116.912 63.1206 130.806 63.4251 134.627Z" fill="#241E36"/>
<g id="Clip path group_7">
<mask id="mask6_805_14240" style="mask-type:luminance" maskUnits="userSpaceOnUse" x="62" y="90" width="20" height="45">
<g id="freepik--clip-path-7--inject-2">
<path id="Vector_81" d="M63.4251 134.627H79.9135C79.9135 134.627 75.3655 128.825 75.3655 126.841C75.3655 124.857 81.6094 99.433 81.8908 97.588C82.1721 95.7429 81.0428 94.4665 78.7804 94.3234C76.518 94.1803 67.8922 92.3353 67.4682 90.9158C67.4682 90.9158 64.2152 102.411 63.0859 110.217C62.1146 116.912 63.1206 130.806 63.4251 134.627Z" fill="white"/>
</g>
</mask>
<g mask="url(#mask6_805_14240)">
<g id="Group_8">
<path id="Vector_82" opacity="0.16" d="M78.7801 94.3235C76.9262 94.2075 70.8018 92.9466 68.416 91.7166L69.2832 93.7279C70.8545 94.5644 72.5443 95.154 74.2937 95.4762C77.1651 95.9906 79.8361 95.8901 81.5821 98.4661L81.6669 98.5937C81.7748 98.0986 81.8481 97.7505 81.8712 97.5881C82.1757 95.7431 81.0425 94.4666 78.7801 94.3235Z" fill="black"/>
</g>
</g>
</g>
<path id="Vector_83" d="M63.4251 134.627H79.9135C79.9135 134.627 75.3655 128.825 75.3655 126.841C75.3655 124.857 81.6094 99.433 81.8908 97.588C82.1721 95.7429 81.0428 94.4665 78.7804 94.3234C76.518 94.1803 67.8922 92.3353 67.4682 90.9158C67.4682 90.9158 64.2152 102.411 63.0859 110.217C62.1146 116.912 63.1206 130.806 63.4251 134.627Z" stroke="#263238" stroke-linecap="round" stroke-linejoin="round"/>
<path id="Vector_84" d="M67.4682 90.9158C67.4682 90.9158 63.1052 104.84 63.0859 110.217C63.0859 110.217 69.2836 102.686 70.093 97.3946C70.9023 92.1032 67.4682 90.9158 67.4682 90.9158Z" fill="#241E36"/>
<g id="Clip path group_8">
<mask id="mask7_805_14240" style="mask-type:luminance" maskUnits="userSpaceOnUse" x="63" y="90" width="8" height="21">
<g id="freepik--clip-path-8--inject-2">
<path id="Vector_85" d="M67.4682 90.9158C67.4682 90.9158 63.1052 104.84 63.0859 110.217C63.0859 110.217 69.2836 102.686 70.093 97.3946C70.9023 92.1032 67.4682 90.9158 67.4682 90.9158Z" fill="white"/>
</g>
</mask>
<g mask="url(#mask7_805_14240)">
<g id="Group_9">
<path id="Vector_86" opacity="0.16" d="M66.7168 92.695C67.3724 92.673 68.0234 92.8115 68.6137 93.0986C69.204 93.3857 69.7157 93.8127 70.1047 94.3428C70.1047 94.3428 69.249 91.817 67.4684 90.9158L66.7168 92.695Z" fill="black"/>
</g>
</g>
</g>
<path id="Vector_87" d="M67.4682 90.9158C67.4682 90.9158 63.1052 104.84 63.0859 110.217C63.0859 110.217 69.2836 102.686 70.093 97.3946C70.9023 92.1032 67.4682 90.9158 67.4682 90.9158Z" stroke="#263238" stroke-linecap="round" stroke-linejoin="round"/>
<path id="Vector_88" d="M114.047 132.009C114.047 132.009 117.242 132.14 119.335 132.442C120.731 132.632 122.136 132.744 123.544 132.778C123.544 132.778 122.388 130.434 121.154 129.773C119.921 129.112 117.685 127.928 115.812 128.191C113.939 128.454 111.26 130.349 111.484 130.953C111.707 131.556 112.706 131.827 114.047 132.009Z" fill="white"/>
<g id="Clip path group_9">
<mask id="mask8_805_14240" style="mask-type:luminance" maskUnits="userSpaceOnUse" x="111" y="128" width="13" height="5">
<g id="freepik--clip-path-9--inject-2">
<path id="Vector_89" d="M114.047 132.009C114.047 132.009 117.242 132.14 119.335 132.442C120.731 132.632 122.136 132.744 123.544 132.778C123.544 132.778 122.388 130.434 121.154 129.773C119.921 129.112 117.685 127.928 115.812 128.191C113.939 128.454 111.26 130.349 111.484 130.953C111.707 131.556 112.706 131.827 114.047 132.009Z" fill="white"/>
</g>
</mask>
<g mask="url(#mask8_805_14240)">
<g id="Group_10">
<path id="Vector_90" d="M114.047 132.009C114.047 132.009 117.242 132.14 119.335 132.442C120.731 132.632 122.136 132.744 123.544 132.778C123.544 132.778 122.388 130.434 121.154 129.773C119.921 129.112 117.685 127.928 115.812 128.191C113.939 128.454 111.26 130.349 111.484 130.953C111.707 131.556 112.706 131.827 114.047 132.009Z" fill="#241E36"/>
<path id="Vector_91" opacity="0.5" d="M114.047 132.009C114.047 132.009 117.242 132.14 119.335 132.442C120.731 132.632 122.136 132.744 123.544 132.778C123.544 132.778 122.388 130.434 121.154 129.773C119.921 129.112 117.685 127.928 115.812 128.191C113.939 128.454 111.26 130.349 111.484 130.953C111.707 131.556 112.706 131.827 114.047 132.009Z" fill="white"/>
</g>
</g>
</g>
<path id="Vector_92" d="M114.047 132.009C114.047 132.009 117.242 132.14 119.335 132.442C120.731 132.632 122.136 132.744 123.544 132.778C123.544 132.778 122.388 130.434 121.154 129.773C119.921 129.112 117.685 127.928 115.812 128.191C113.939 128.454 111.26 130.349 111.484 130.953C111.707 131.556 112.706 131.827 114.047 132.009Z" stroke="#263238" stroke-linecap="round" stroke-linejoin="round"/>
<path id="Vector_93" d="M119.354 131.049C119.354 131.049 121.886 129.73 122.518 129.75C123.15 129.769 127.351 132.62 127.143 133.076C127.002 133.288 126.798 133.449 126.56 133.538C126.322 133.627 126.062 133.639 125.817 133.571C125.351 133.351 122.522 132.144 122.522 132.144L120.672 132.581L119.354 131.049Z" fill="white"/>
<g id="Clip path group_10">
<mask id="mask9_805_14240" style="mask-type:luminance" maskUnits="userSpaceOnUse" x="119" y="129" width="9" height="5">
<g id="freepik--clip-path-10--inject-2">
<path id="Vector_94" d="M119.354 131.049C119.354 131.049 121.886 129.73 122.518 129.75C123.15 129.769 127.351 132.62 127.143 133.076C127.002 133.288 126.798 133.449 126.56 133.538C126.322 133.627 126.062 133.639 125.817 133.571C125.351 133.351 122.522 132.144 122.522 132.144L120.672 132.581L119.354 131.049Z" fill="white"/>
</g>
</mask>
<g mask="url(#mask9_805_14240)">
<g id="Group_11">
<path id="Vector_95" d="M119.354 131.049C119.354 131.049 121.886 129.73 122.518 129.75C123.15 129.769 127.351 132.62 127.143 133.076C126.935 133.533 125.94 133.904 125.817 133.571C125.694 133.239 122.522 132.144 122.522 132.144L120.672 132.581L119.354 131.049Z" fill="#241E36"/>
<path id="Vector_96" opacity="0.5" d="M119.354 131.049C119.354 131.049 121.886 129.73 122.518 129.75C123.15 129.769 127.351 132.62 127.143 133.076C126.935 133.533 125.94 133.904 125.817 133.571C125.694 133.239 122.522 132.144 122.522 132.144L120.672 132.581L119.354 131.049Z" fill="white"/>
</g>
</g>
</g>
<path id="Vector_97" d="M119.354 131.049C119.354 131.049 121.886 129.73 122.518 129.75C123.15 129.769 127.351 132.62 127.143 133.076C127.002 133.288 126.798 133.449 126.56 133.538C126.322 133.627 126.062 133.639 125.817 133.571C125.351 133.351 122.522 132.144 122.522 132.144L120.672 132.581L119.354 131.049Z" stroke="#263238" stroke-linecap="round" stroke-linejoin="round"/>
<path id="Vector_98" d="M117.546 128.879C117.546 128.879 120.922 128.771 121.593 129.111C122.263 129.452 125.293 134.666 124.838 135.045C124.383 135.424 123.127 135.312 123.165 134.89C123.204 134.469 120.375 131.676 120.375 131.676L118.174 131.192L117.546 128.879Z" fill="white"/>
<g id="Clip path group_11">
<mask id="mask10_805_14240" style="mask-type:luminance" maskUnits="userSpaceOnUse" x="117" y="128" width="8" height="8">
<g id="freepik--clip-path-11--inject-2">
<path id="Vector_99" d="M117.546 128.879C117.546 128.879 120.922 128.771 121.593 129.111C122.263 129.452 125.293 134.666 124.838 135.045C124.383 135.424 123.127 135.312 123.165 134.89C123.204 134.469 120.375 131.676 120.375 131.676L118.174 131.192L117.546 128.879Z" fill="white"/>
</g>
</mask>
<g mask="url(#mask10_805_14240)">
<g id="Group_12">
<path id="Vector_100" d="M117.546 128.879C117.546 128.879 120.922 128.771 121.593 129.111C122.263 129.452 125.293 134.666 124.838 135.045C124.383 135.424 123.127 135.312 123.165 134.89C123.204 134.469 120.375 131.676 120.375 131.676L118.174 131.192L117.546 128.879Z" fill="#241E36"/>
<path id="Vector_101" opacity="0.5" d="M117.546 128.879C117.546 128.879 120.922 128.771 121.593 129.111C122.263 129.452 125.293 134.666 124.838 135.045C124.383 135.424 123.127 135.312 123.165 134.89C123.204 134.469 120.375 131.676 120.375 131.676L118.174 131.192L117.546 128.879Z" fill="white"/>
</g>
</g>
</g>
<path id="Vector_102" d="M117.546 128.879C117.546 128.879 120.922 128.771 121.593 129.111C122.263 129.452 125.293 134.666 124.838 135.045C124.383 135.424 123.127 135.312 123.165 134.89C123.204 134.469 120.375 131.676 120.375 131.676L118.174 131.192L117.546 128.879Z" stroke="#263238" stroke-linecap="round" stroke-linejoin="round"/>
<path id="Vector_103" d="M115.546 128.179C115.546 128.179 118.965 128.067 119.643 128.415C120.321 128.763 123.389 134.035 122.927 134.422C122.464 134.809 121.2 134.689 121.239 134.264C121.277 133.838 118.413 131.011 118.413 131.011L116.186 130.519L115.546 128.179Z" fill="white"/>
<g id="Clip path group_12">
<mask id="mask11_805_14240" style="mask-type:luminance" maskUnits="userSpaceOnUse" x="115" y="128" width="8" height="7">
<g id="freepik--clip-path-12--inject-2">
<path id="Vector_104" d="M115.546 128.179C115.546 128.179 118.965 128.067 119.643 128.415C120.321 128.763 123.389 134.035 122.927 134.422C122.464 134.809 121.2 134.689 121.239 134.264C121.277 133.838 118.413 131.011 118.413 131.011L116.186 130.519L115.546 128.179Z" fill="white"/>
</g>
</mask>
<g mask="url(#mask11_805_14240)">
<g id="Group_13">
<path id="Vector_105" d="M115.546 128.179C115.546 128.179 118.965 128.067 119.643 128.415C120.321 128.763 123.389 134.035 122.927 134.422C122.464 134.809 121.2 134.689 121.239 134.264C121.277 133.838 118.413 131.011 118.413 131.011L116.186 130.519L115.546 128.179Z" fill="#241E36"/>
<path id="Vector_106" opacity="0.5" d="M115.546 128.179C115.546 128.179 118.965 128.067 119.643 128.415C120.321 128.763 123.389 134.035 122.927 134.422C122.464 134.809 121.2 134.689 121.239 134.264C121.277 133.838 118.413 131.011 118.413 131.011L116.186 130.519L115.546 128.179Z" fill="white"/>
</g>
</g>
</g>
<path id="Vector_107" d="M115.546 128.179C115.546 128.179 118.965 128.067 119.643 128.415C120.321 128.763 123.389 134.035 122.927 134.422C122.464 134.809 121.2 134.689 121.239 134.264C121.277 133.838 118.413 131.011 118.413 131.011L116.186 130.519L115.546 128.179Z" stroke="#263238" stroke-linecap="round" stroke-linejoin="round"/>
<path id="Vector_108" d="M76.6755 108.522C79.1499 112.348 84.1181 122.041 85.5673 123.132C87.8297 124.833 102.954 128.964 104.411 130.094C105.868 131.223 105.767 132.357 107.147 132.77C108.527 133.184 113.699 134.372 115.673 134.557C117.646 134.743 116.764 133.517 116.764 133.517L113.399 131.196L116.332 130.469C116.332 130.469 119.273 134.02 119.824 134.213C120.375 134.407 121.346 134.213 121.285 133.776C121.177 133.076 118.039 127.348 116.925 127.104C115.812 126.86 109.051 127.8 109.051 127.8C109.051 127.8 94.8714 118.204 94.617 117.863C94.617 117.863 93.7691 115.45 93.0753 114.456C92.3816 113.462 91.9422 113.748 91.9422 113.748C91.9422 113.748 92.2274 112.468 91.8034 112.042L89.541 109.772L89.46 109.88C89.0746 109.106 88.6892 108.225 88.2652 107.219C87.082 104.422 82.8924 96.5744 82.1871 95.4411C81.6591 94.594 77.2344 93.9867 74.9912 93.7314" fill="#241E36"/>
<g id="Clip path group_13">
<mask id="mask12_805_14240" style="mask-type:luminance" maskUnits="userSpaceOnUse" x="74" y="93" width="48" height="42">
<g id="freepik--clip-path-13--inject-2">
<path id="Vector_109" d="M76.6755 108.522C79.1499 112.348 84.1181 122.041 85.5673 123.132C87.8297 124.833 102.954 128.964 104.411 130.094C105.868 131.223 105.767 132.357 107.147 132.77C108.527 133.184 113.699 134.372 115.673 134.557C117.646 134.743 116.764 133.517 116.764 133.517L113.399 131.196L116.332 130.469C116.332 130.469 119.273 134.02 119.824 134.213C120.375 134.407 121.346 134.213 121.285 133.776C121.177 133.076 118.039 127.348 116.925 127.104C115.812 126.86 109.051 127.8 109.051 127.8C109.051 127.8 94.8714 118.204 94.617 117.863C94.617 117.863 93.7691 115.45 93.0753 114.456C92.3816 113.462 91.9422 113.748 91.9422 113.748C91.9422 113.748 92.2274 112.468 91.8034 112.042L89.541 109.772L89.46 109.88C89.0746 109.106 88.6892 108.225 88.2652 107.219C87.082 104.422 82.8924 96.5744 82.1871 95.4411C81.6591 94.594 77.2344 93.9867 74.9912 93.7314" fill="white"/>
</g>
</mask>
<g mask="url(#mask12_805_14240)">
<g id="Group_14">
<path id="Vector_110" opacity="0.16" d="M86.5268 108.766C88.3768 110.414 87.7602 110.414 87.3478 111.86C86.9354 113.307 87.6561 111.346 89.4021 111.45C91.1481 111.555 90.6354 113.818 90.4273 114.231C90.2192 114.645 92.5857 115.16 92.1733 116.084C91.7609 117.009 89.4021 118.351 88.0685 119.693C86.7349 121.035 91.5566 117.527 93.1985 117.426C93.6996 117.392 94.112 117.457 94.4588 117.45C94.0949 116.415 93.6275 115.419 93.0636 114.479C92.3544 113.485 91.9305 113.771 91.9305 113.771C91.9305 113.771 92.2157 112.491 91.7917 112.065L89.5293 109.795L89.4483 109.903C89.0629 109.13 88.6775 108.248 88.2535 107.242C87.0703 104.446 82.8807 96.5976 82.1754 95.4643C81.6473 94.6172 77.2227 94.0099 74.9795 93.7546L75.1838 95.5455L75.2339 95.5842C75.2339 95.5842 78.0051 96.0986 78.9301 96.203C79.8551 96.3075 80.9844 97.1275 80.8803 97.7502C80.7763 98.3729 78.1091 101.15 78.9301 101.359C79.751 101.568 80.6761 99.2974 81.6011 99.6068C82.5261 99.9162 84.6652 107.118 86.5268 108.766Z" fill="black"/>
</g>
</g>
</g>
<path id="Vector_111" d="M76.6755 108.522C79.1499 112.348 84.1181 122.041 85.5673 123.132C87.8297 124.833 102.954 128.964 104.411 130.094C105.868 131.223 105.767 132.357 107.147 132.77C108.527 133.184 113.699 134.372 115.673 134.557C117.646 134.743 116.764 133.517 116.764 133.517L113.399 131.196L116.332 130.469C116.332 130.469 119.273 134.02 119.824 134.213C120.375 134.407 121.346 134.213 121.285 133.776C121.177 133.076 118.039 127.348 116.925 127.104C115.812 126.86 109.051 127.8 109.051 127.8C109.051 127.8 94.8714 118.204 94.617 117.863C94.617 117.863 93.7691 115.45 93.0753 114.456C92.3816 113.462 91.9422 113.748 91.9422 113.748C91.9422 113.748 92.2274 112.468 91.8034 112.042L89.541 109.772L89.46 109.88C89.0746 109.106 88.6892 108.225 88.2652 107.219C87.082 104.422 82.8924 96.5744 82.1871 95.4411C81.6591 94.594 77.2344 93.9867 74.9912 93.7314" stroke="#263238" stroke-linecap="round" stroke-linejoin="round"/>
<path id="Vector_112" d="M76.7142 103.274C76.6102 103.622 76.5215 103.97 76.4521 104.326" stroke="#263238" stroke-linecap="round" stroke-linejoin="round"/>
<path id="Vector_113" d="M80.461 96.8723C79.2498 98.2577 78.2284 99.7991 77.4238 101.456" stroke="#263238" stroke-linecap="round" stroke-linejoin="round"/>
<path id="Vector_114" d="M86.1221 118.834C87.1627 117.287 88.82 115.326 90.6469 114.765" stroke="#263238" stroke-linecap="round" stroke-linejoin="round"/>
<path id="Vector_115" d="M84.9697 120.738C84.9697 120.738 85.1547 120.374 85.4862 119.825" stroke="#263238" stroke-linecap="round" stroke-linejoin="round"/>
<path id="Vector_116" d="M84.9697 118.293C84.9697 118.293 86.8622 113.543 88.7546 112.321C90.647 111.098 89.564 113.543 89.564 113.543" stroke="#263238" stroke-linecap="round" stroke-linejoin="round"/>
<path id="Vector_117" d="M104.411 130.098C105.872 131.231 105.768 132.361 107.148 132.774C108.528 133.188 113.7 134.376 115.673 134.561C117.647 134.747 116.764 133.521 116.764 133.521L113.399 131.2L116.332 130.473C116.332 130.473 119.273 134.024 119.824 134.217C120.376 134.411 121.424 134.48 121.285 133.78C121.015 132.426 118.04 127.352 116.926 127.108C115.812 126.864 109.052 127.804 109.052 127.804C109.052 127.804 96.1362 118.908 94.7217 117.945C89.2371 118.475 86.6278 121.356 85.5293 123.085L85.5678 123.116C87.8303 124.834 102.954 128.965 104.411 130.098Z" fill="white"/>
<g id="Clip path group_14">
<mask id="mask13_805_14240" style="mask-type:luminance" maskUnits="userSpaceOnUse" x="85" y="117" width="37" height="18">
<g id="freepik--clip-path-14--inject-2">
<path id="Vector_118" d="M104.411 130.098C105.872 131.231 105.768 132.361 107.148 132.774C108.528 133.188 113.7 134.376 115.673 134.561C117.647 134.747 116.764 133.521 116.764 133.521L113.399 131.2L116.332 130.473C116.332 130.473 119.273 134.024 119.824 134.217C120.376 134.411 121.424 134.48 121.285 133.78C121.015 132.426 118.04 127.352 116.926 127.108C115.812 126.864 109.052 127.804 109.052 127.804C109.052 127.804 96.1362 118.908 94.7217 117.945C89.2371 118.475 86.6278 121.356 85.5293 123.085L85.5678 123.116C87.8303 124.834 102.954 128.965 104.411 130.098Z" fill="white"/>
</g>
</mask>
<g mask="url(#mask13_805_14240)">
<g id="Group_15">
<path id="Vector_119" d="M121.281 133.796C120.58 132.074 118.036 127.367 116.922 127.123C115.808 126.88 109.048 127.82 109.048 127.82C109.048 127.82 96.1324 118.923 94.7179 117.96C93.2783 118.086 91.8659 118.429 90.5283 118.977C92.5672 120.138 106.157 127.874 107.872 128.218C109.692 128.605 115.762 127.603 116.83 128.322C117.508 128.779 119.528 131.993 120.892 134.275C121.281 134.217 121.424 134.144 121.281 133.796Z" fill="#241E36"/>
<path id="Vector_120" opacity="0.5" d="M121.281 133.796C120.187 131.332 118.036 127.367 116.922 127.123C115.808 126.88 109.048 127.82 109.048 127.82C109.048 127.82 96.1324 118.923 94.7179 117.96C93.2783 118.086 91.8659 118.429 90.5283 118.977C92.5672 120.138 106.157 127.874 107.872 128.218C109.692 128.605 115.762 127.603 116.83 128.322C117.508 128.779 119.528 131.993 120.892 134.275C121.281 134.217 121.436 134.14 121.281 133.796Z" fill="white"/>
</g>
</g>
</g>
<path id="Vector_121" d="M104.411 130.098C105.872 131.231 105.768 132.361 107.148 132.774C108.528 133.188 113.7 134.376 115.673 134.561C117.647 134.747 116.764 133.521 116.764 133.521L113.399 131.2L116.332 130.473C116.332 130.473 119.273 134.024 119.824 134.217C120.376 134.411 121.424 134.48 121.285 133.78C121.015 132.426 118.04 127.352 116.926 127.108C115.812 126.864 109.052 127.804 109.052 127.804C109.052 127.804 96.1362 118.908 94.7217 117.945C89.2371 118.475 86.6278 121.356 85.5293 123.085L85.5678 123.116C87.8303 124.834 102.954 128.965 104.411 130.098Z" stroke="#263238" stroke-linecap="round" stroke-linejoin="round"/>
<path id="Vector_122" d="M70.3471 62.5562L58.7381 67.4181C58.5974 69.4657 58.0922 71.4713 57.2465 73.3399C55.8744 76.2525 56.6761 81.7643 57.9942 84.7387C59.3124 87.7132 65.1207 86.5489 67.2444 86.1776C68.6848 85.9026 70.0955 85.4894 71.4571 84.9437C72.0771 85.1835 72.7477 85.2611 73.4058 85.169C74.0638 85.077 74.6878 84.8185 75.2188 84.4177C75.2188 84.4177 69.0058 66.9153 70.3471 62.5562Z" fill="white"/>
<g id="Clip path group_15">
<mask id="mask14_805_14240" style="mask-type:luminance" maskUnits="userSpaceOnUse" x="56" y="62" width="20" height="25">
<g id="freepik--clip-path-15--inject-2">
<path id="Vector_123" d="M70.3471 62.5562L58.7381 67.4181C58.5974 69.4657 58.0922 71.4713 57.2465 73.3399C55.8744 76.2525 56.6761 81.7643 57.9942 84.7387C59.3124 87.7132 65.1207 86.5489 67.2444 86.1776C68.6848 85.9026 70.0955 85.4894 71.4571 84.9437C72.0771 85.1835 72.7477 85.2611 73.4058 85.169C74.0638 85.077 74.6878 84.8185 75.2188 84.4177C75.2188 84.4177 69.0058 66.9153 70.3471 62.5562Z" fill="white"/>
</g>
</mask>
<g mask="url(#mask14_805_14240)">
<g id="Group_16">
<path id="Vector_124" d="M70.3471 62.5562L58.7381 67.4181C58.5974 69.4657 58.0922 71.4713 57.2465 73.3399C55.8744 76.2525 56.6761 81.7643 57.9942 84.7387C58.2149 85.2171 58.5698 85.6203 59.0156 85.8991V85.6748C59.0156 85.6748 56.8611 80.3177 57.2696 77.2272C57.6782 74.1367 59.428 72.5857 59.6323 70.6324C59.8365 68.6791 59.7325 67.7508 63.6368 66.308C67.5412 64.8653 69.1792 63.527 69.5878 64.9659C69.9963 66.4047 71.6421 75.8889 72.7714 78.1555C73.9007 80.4221 73.7966 82.797 72.0545 83.822C70.2937 84.8828 68.4071 85.717 66.4389 86.3053L67.2598 86.1621C68.7002 85.8872 70.1109 85.474 71.4725 84.9283C72.0925 85.1681 72.7631 85.2456 73.4212 85.1536C74.0793 85.0615 74.7032 84.803 75.2342 84.4022C75.2342 84.4022 69.0058 66.9153 70.3471 62.5562Z" fill="#241E36"/>
<path id="Vector_125" opacity="0.5" d="M70.3471 62.5562L58.7381 67.4181C58.5974 69.4657 58.0922 71.4713 57.2465 73.3399C55.8744 76.2525 56.6761 81.7643 57.9942 84.7387C58.2149 85.2171 58.5698 85.6203 59.0156 85.8991V85.6748C59.0156 85.6748 56.8611 80.3177 57.2696 77.2272C57.6782 74.1367 59.428 72.5857 59.6323 70.6324C59.8365 68.6791 59.7325 67.7508 63.6368 66.308C67.5412 64.8653 69.1792 63.527 69.5878 64.9659C69.9963 66.4047 71.6421 75.8889 72.7714 78.1555C73.9007 80.4221 73.7966 82.797 72.0545 83.822C70.2937 84.8828 68.4071 85.717 66.4389 86.3053L67.2598 86.1621C68.7002 85.8872 70.1109 85.474 71.4725 84.9283C72.0925 85.1681 72.7631 85.2456 73.4212 85.1536C74.0793 85.0615 74.7032 84.803 75.2342 84.4022C75.2342 84.4022 69.0058 66.9153 70.3471 62.5562Z" fill="white"/>
</g>
</g>
</g>
<path id="Vector_126" d="M70.3471 62.5562L58.7381 67.4181C58.5974 69.4657 58.0922 71.4713 57.2465 73.3399C55.8744 76.2525 56.6761 81.7643 57.9942 84.7387C59.3124 87.7132 65.1207 86.5489 67.2444 86.1776C68.6848 85.9026 70.0955 85.4894 71.4571 84.9437C72.0771 85.1835 72.7477 85.2611 73.4058 85.169C74.0638 85.077 74.6878 84.8185 75.2188 84.4177C75.2188 84.4177 69.0058 66.9153 70.3471 62.5562Z" stroke="#263238" stroke-linecap="round" stroke-linejoin="round"/>
<path id="Vector_127" d="M64.4808 70.1797C64.5123 70.8646 64.4276 71.55 64.2303 72.2065C63.9219 72.9801 61.012 76.0203 61.1006 76.349C61.1893 76.6778 61.4514 77.7338 61.9678 77.8343" stroke="#263238" stroke-linecap="round" stroke-linejoin="round"/>
<path id="Vector_128" d="M67.707 72.899C68.1117 72.0867 69.4414 72.8796 69.4222 74.7092" stroke="#263238" stroke-linecap="round" stroke-linejoin="round"/>
<path id="Vector_129" d="M61.1162 70.5084C61.1162 70.5084 62.2494 70.0095 63.263 71.8506" stroke="#263238" stroke-linecap="round" stroke-linejoin="round"/>
<path id="Vector_130" d="M66.0957 75.5793C67.4051 75.6455 68.6501 76.1696 69.6146 77.0608" stroke="#263238" stroke-width="0.5" stroke-linecap="round" stroke-linejoin="round"/>
<path id="Vector_131" d="M59.748 73.1619C60.425 73.2526 61.0864 73.4361 61.7137 73.7072" stroke="#263238" stroke-width="0.5" stroke-linecap="round" stroke-linejoin="round"/>
<path id="Vector_132" d="M64.3537 68.4624C64.0544 68.3036 63.7225 68.2167 63.384 68.2087C63.0456 68.2006 62.7099 68.2716 62.4034 68.416C61.3667 68.9149 60.7307 69.4642 60.8001 68.826C60.8695 68.1878 62.0874 67.4838 62.4535 67.391C62.8197 67.2981 64.4578 67.0428 64.3537 68.4624Z" fill="#263238"/>
<path id="Vector_133" d="M67.2598 67.0197C68.3402 67.897 69.1987 69.0182 69.765 70.2919C70.5359 72.2259 71.1448 70.114 70.5359 68.8492C69.9269 67.5844 68.1655 66.2383 67.2598 67.0197Z" fill="#263238"/>
<path id="Vector_134" d="M75.3884 87.7247C75.3884 88.6259 74.8797 89.357 74.2553 89.357C73.6309 89.357 73.126 88.6259 73.126 87.7247C73.126 86.8235 73.6309 84.5298 74.2553 84.5298C74.8797 84.5298 75.3884 86.8235 75.3884 87.7247Z" fill="#241E36" stroke="#263238" stroke-linecap="round" stroke-linejoin="round"/>
<path id="Vector_135" d="M67.8073 72.5469C67.763 72.6651 67.7282 72.7867 67.7033 72.9105C67.5915 73.4829 67.4797 74.6781 67.7033 74.7284C67.9268 74.7787 68.4741 73.6608 68.5705 73.0884C68.5922 72.9761 68.6051 72.8623 68.609 72.748C68.346 72.6652 68.0783 72.5981 67.8073 72.5469Z" fill="#263238"/>
<path id="Vector_136" d="M61.2318 70.3963C61.1976 70.4973 61.1705 70.6007 61.1509 70.7057C61.0353 71.2781 61.0391 72.5352 61.282 72.5816C61.5248 72.628 61.9218 71.4522 62.0335 70.8797C62.0614 70.7409 62.0769 70.5998 62.0798 70.4581C61.8039 70.382 61.5158 70.361 61.2318 70.3963Z" fill="#263238"/>
<path id="Vector_137" d="M67.707 72.9182L68.0925 72.1987C68.7035 72.3182 69.2571 72.6395 69.665 73.1116" stroke="#263238" stroke-width="0.75" stroke-linecap="round" stroke-linejoin="round"/>
<path id="Vector_138" d="M61.2314 70.3963L61.6169 69.9437C61.6169 69.9437 61.7826 69.8625 62.6922 70.2764" stroke="#263238" stroke-width="0.75" stroke-linecap="round" stroke-linejoin="round"/>
<path id="Vector_139" d="M59.7715 80.8861C59.7715 80.8861 60.419 79.6909 61.2862 79.6909C62.1534 79.6909 62.8009 81.6442 62.8009 81.6442" stroke="#263238" stroke-linecap="round" stroke-linejoin="round"/>
</g>
<g id="freepik--Mug--inject-2">
<path id="Vector_140" d="M31.8619 132.43C31.0238 132.388 30.2006 132.192 29.4337 131.85C29.3268 131.81 29.229 131.749 29.1463 131.67C29.0637 131.591 28.9979 131.497 28.9529 131.391C28.908 131.286 28.8848 131.173 28.8849 131.059C28.8849 130.944 28.9082 130.831 28.9532 130.726C28.9983 130.621 29.0641 130.526 29.1469 130.447C29.2296 130.369 29.3274 130.308 29.4344 130.268C29.5413 130.228 29.6552 130.211 29.7691 130.217C29.8829 130.223 29.9944 130.252 30.0966 130.303C30.8675 130.632 31.8657 130.837 32.1317 130.72C32.6212 130.171 33.3727 126.853 32.4015 125.251C32.1818 124.895 31.9775 124.83 31.8426 124.814C31.2914 124.737 30.4743 125.305 30.1853 125.588C30.1048 125.664 30.0102 125.723 29.9068 125.763C29.8033 125.802 29.6932 125.821 29.5826 125.818C29.472 125.815 29.3631 125.79 29.2622 125.744C29.1613 125.699 29.0702 125.634 28.9943 125.553C28.9184 125.472 28.8591 125.377 28.8197 125.273C28.7804 125.17 28.7618 125.059 28.765 124.948C28.7682 124.837 28.7932 124.728 28.8385 124.627C28.8838 124.525 28.9485 124.434 29.029 124.358C29.1793 124.211 30.5707 122.954 32.0546 123.155C32.4226 123.209 32.7733 123.347 33.0795 123.559C33.3856 123.771 33.6389 124.051 33.8198 124.377C35.2498 126.717 34.2708 131.169 33.1723 132.051C32.7906 132.322 32.3288 132.456 31.8619 132.43Z" fill="white"/>
<g id="Clip path group_16">
<mask id="mask15_805_14240" style="mask-type:luminance" maskUnits="userSpaceOnUse" x="28" y="123" width="7" height="10">
<g id="freepik--clip-path-16--inject-2">
<path id="Vector_141" d="M31.8619 132.43C31.0238 132.388 30.2006 132.192 29.4337 131.85C29.3268 131.81 29.229 131.749 29.1463 131.67C29.0637 131.591 28.9979 131.497 28.9529 131.391C28.908 131.286 28.8848 131.173 28.8849 131.059C28.8849 130.944 28.9082 130.831 28.9532 130.726C28.9983 130.621 29.0641 130.526 29.1469 130.447C29.2296 130.369 29.3274 130.308 29.4344 130.268C29.5413 130.228 29.6552 130.211 29.7691 130.217C29.8829 130.223 29.9944 130.252 30.0966 130.303C30.8675 130.632 31.8657 130.837 32.1317 130.72C32.6212 130.171 33.3727 126.853 32.4015 125.251C32.1818 124.895 31.9775 124.83 31.8426 124.814C31.2914 124.737 30.4743 125.305 30.1853 125.588C30.1048 125.664 30.0102 125.723 29.9068 125.763C29.8033 125.802 29.6932 125.821 29.5826 125.818C29.472 125.815 29.3631 125.79 29.2622 125.744C29.1613 125.699 29.0702 125.634 28.9943 125.553C28.9184 125.472 28.8591 125.377 28.8197 125.273C28.7804 125.17 28.7618 125.059 28.765 124.948C28.7682 124.837 28.7932 124.728 28.8385 124.627C28.8838 124.525 28.9485 124.434 29.029 124.358C29.1793 124.211 30.5707 122.954 32.0546 123.155C32.4226 123.209 32.7733 123.347 33.0795 123.559C33.3856 123.771 33.6389 124.051 33.8198 124.377C35.2498 126.717 34.2708 131.169 33.1723 132.051C32.7906 132.322 32.3288 132.456 31.8619 132.43Z" fill="white"/>
</g>
</mask>
<g mask="url(#mask15_805_14240)">
<g id="Group_17">
<path id="Vector_142" d="M32.9911 124.996C32.8901 124.756 32.7318 124.544 32.5302 124.379C32.3286 124.215 32.0898 124.102 31.8349 124.052C30.8713 123.897 29.9655 124.868 29.8653 124.976C29.7732 125.088 29.7163 125.224 29.7019 125.368C29.6875 125.512 29.7162 125.657 29.7844 125.785C29.936 125.754 30.0761 125.682 30.1891 125.576C30.4782 125.305 31.2953 124.737 31.8464 124.802C31.9813 124.802 32.1856 124.884 32.4053 125.24C33.3766 126.825 32.625 130.16 32.1355 130.709C31.8695 130.825 30.8751 130.62 30.1004 130.291C30.0051 130.251 29.9032 130.229 29.7998 130.225C29.8068 130.331 29.8401 130.434 29.8967 130.524C29.9532 130.614 30.0312 130.688 30.1236 130.74C30.6109 131.001 31.1485 131.154 31.7 131.188C32.0146 131.204 32.3228 131.095 32.5595 130.887C33.284 130.218 33.9239 126.794 32.9911 124.996Z" fill="#241E36"/>
<path id="Vector_143" opacity="0.5" d="M32.9911 124.996C32.8901 124.756 32.7318 124.544 32.5302 124.379C32.3286 124.215 32.0898 124.102 31.8349 124.052C30.8713 123.897 29.9655 124.868 29.8653 124.976C29.7732 125.088 29.7163 125.224 29.7019 125.368C29.6875 125.512 29.7162 125.657 29.7844 125.785C29.936 125.754 30.0761 125.682 30.1891 125.576C30.4782 125.305 31.2953 124.737 31.8464 124.802C31.9813 124.802 32.1856 124.884 32.4053 125.24C33.3766 126.825 32.625 130.16 32.1355 130.709C31.8695 130.825 30.8751 130.62 30.1004 130.291C30.0051 130.251 29.9032 130.229 29.7998 130.225C29.8068 130.331 29.8401 130.434 29.8967 130.524C29.9532 130.614 30.0312 130.688 30.1236 130.74C30.6109 131.001 31.1485 131.154 31.7 131.188C32.0146 131.204 32.3228 131.095 32.5595 130.887C33.284 130.218 33.9239 126.794 32.9911 124.996Z" fill="white"/>
</g>
</g>
</g>
<path id="Vector_144" d="M31.8619 132.43C31.0238 132.388 30.2006 132.192 29.4337 131.85C29.3268 131.81 29.229 131.749 29.1463 131.67C29.0637 131.591 28.9979 131.497 28.9529 131.391C28.908 131.286 28.8848 131.173 28.8849 131.059C28.8849 130.944 28.9082 130.831 28.9532 130.726C28.9983 130.621 29.0641 130.526 29.1469 130.447C29.2296 130.369 29.3274 130.308 29.4344 130.268C29.5413 130.228 29.6552 130.211 29.7691 130.217C29.8829 130.223 29.9944 130.252 30.0966 130.303C30.8675 130.632 31.8657 130.837 32.1317 130.72C32.6212 130.171 33.3727 126.853 32.4015 125.251C32.1818 124.895 31.9775 124.83 31.8426 124.814C31.2914 124.737 30.4743 125.305 30.1853 125.588C30.1048 125.664 30.0102 125.723 29.9068 125.763C29.8033 125.802 29.6932 125.821 29.5826 125.818C29.472 125.815 29.3631 125.79 29.2622 125.744C29.1613 125.699 29.0702 125.634 28.9943 125.553C28.9184 125.472 28.8591 125.377 28.8197 125.273C28.7804 125.17 28.7618 125.059 28.765 124.948C28.7682 124.837 28.7932 124.728 28.8385 124.627C28.8838 124.525 28.9485 124.434 29.029 124.358C29.1793 124.211 30.5707 122.954 32.0546 123.155C32.4226 123.209 32.7733 123.347 33.0795 123.559C33.3856 123.771 33.6389 124.051 33.8198 124.377C35.2498 126.717 34.2708 131.169 33.1723 132.051C32.7906 132.322 32.3288 132.456 31.8619 132.43Z" stroke="#263238" stroke-linecap="round" stroke-linejoin="round"/>
<path id="Vector_145" d="M30.3896 122.451H21.1201V134.797H30.3896V122.451Z" fill="white"/>
<g id="Clip path group_17">
<mask id="mask16_805_14240" style="mask-type:luminance" maskUnits="userSpaceOnUse" x="21" y="122" width="10" height="13">
<g id="freepik--clip-path-17--inject-2">
<path id="Vector_146" d="M30.3896 122.451H21.1201V134.797H30.3896V122.451Z" fill="white"/>
</g>
</mask>
<g mask="url(#mask16_805_14240)">
<g id="Group_18">
<path id="Vector_147" d="M24.9165 122.451H21.1201V134.797H24.9165V122.451Z" fill="#241E36"/>
<path id="Vector_148" opacity="0.5" d="M24.9165 122.451H21.1201V134.797H24.9165V122.451Z" fill="white"/>
</g>
</g>
</g>
<path id="Vector_149" d="M30.3896 122.451H21.1201V134.797H30.3896V122.451Z" stroke="#263238" stroke-linecap="round" stroke-linejoin="round"/>
</g>
<g id="freepik--Device--inject-2">
<path id="Vector_150" d="M81.3274 134.627H41.7289L40.4377 112.781C40.402 112.569 40.4125 112.352 40.4685 112.145C40.5246 111.938 40.6247 111.745 40.7621 111.58C40.8995 111.415 41.0709 111.283 41.2644 111.191C41.4579 111.099 41.669 111.05 41.883 111.048H81.1578C81.3731 111.048 81.586 111.095 81.7814 111.186C81.9768 111.277 82.1501 111.409 82.2892 111.574C82.4282 111.739 82.5298 111.933 82.5867 112.141C82.6436 112.35 82.6544 112.568 82.6186 112.781L81.3274 134.627Z" fill="#263238" stroke="#263238" stroke-linecap="round" stroke-linejoin="round"/>
<path id="Vector_151" d="M43.6787 111.57H80.8722C81.0823 111.568 81.2903 111.612 81.4817 111.699C81.6731 111.786 81.8433 111.914 81.9802 112.074C82.1172 112.234 82.2176 112.422 82.2746 112.625C82.3315 112.828 82.3435 113.041 82.3098 113.249" stroke="white" stroke-linecap="round" stroke-linejoin="round"/>
<path id="Vector_152" d="M40.7266 112.905C40.7576 112.539 40.9248 112.199 41.1948 111.952C41.4649 111.704 41.8179 111.568 42.1835 111.571" stroke="white" stroke-linecap="round" stroke-linejoin="round"/>
<path id="Vector_153" d="M81.4934 132.5H41.5635V134.627H81.4934V132.5Z" fill="white" stroke="#263238" stroke-linecap="round" stroke-linejoin="round"/>
<path id="Vector_154" d="M61.3857 124.625C62.9481 124.625 64.2147 123.863 64.2147 122.923C64.2147 121.983 62.9481 121.221 61.3857 121.221C59.8232 121.221 58.5566 121.983 58.5566 122.923C58.5566 123.863 59.8232 124.625 61.3857 124.625Z" fill="white" stroke="#263238" stroke-linecap="round" stroke-linejoin="round"/>
</g>
<g id="freepik--pop-up-window--inject-2">
<path id="Vector_155" d="M103.158 0H31.612C29.2002 0 27.2451 1.96205 27.2451 4.38237V45.5797C27.2451 48 29.2002 49.9621 31.612 49.9621H103.158C105.57 49.9621 107.525 48 107.525 45.5797V4.38237C107.525 1.96205 105.57 0 103.158 0Z" fill="#241E36"/>
<path id="Vector_156" d="M69.2733 28.7117C75.7633 27.665 80.1789 21.5366 79.1359 15.0236C78.0929 8.51059 71.9862 4.07928 65.4962 5.126C59.0063 6.17271 54.5906 12.3011 55.6337 18.8141C56.6767 25.3271 62.7833 29.7584 69.2733 28.7117Z" fill="#263238"/>
<path id="Vector_157" d="M67.2942 19.127L63.3282 24.2365C63.1934 24.4492 63.0079 24.6249 62.7886 24.7478C62.5692 24.8707 62.3229 24.9369 62.0717 24.9405C61.7272 24.9452 61.3947 24.8132 61.1467 24.5731C61.0206 24.457 60.9209 24.3151 60.8544 24.1569C60.7879 23.9987 60.7561 23.828 60.7613 23.6564C60.7737 23.272 60.9088 22.9019 61.1467 22.6004L65.6677 16.988L61.4281 11.3718C61.2311 11.1082 61.123 10.7884 61.1197 10.459C61.1187 10.2625 61.1583 10.0679 61.2359 9.88751C61.3135 9.70711 61.4275 9.54479 61.5707 9.41077C61.7051 9.26986 61.8667 9.15779 62.0456 9.08133C62.2244 9.00488 62.4169 8.96563 62.6113 8.96595C62.8603 8.97001 63.1043 9.03655 63.3211 9.15951C63.5379 9.28247 63.7205 9.45794 63.8524 9.66992L67.6835 14.733L71.5377 9.75501C71.6755 9.52277 71.8682 9.32821 72.0988 9.18855C72.3294 9.04889 72.5908 8.96845 72.8598 8.95435C73.0267 8.95393 73.1919 8.98807 73.3451 9.05462C73.4983 9.12117 73.6361 9.21871 73.7501 9.34114C73.8715 9.45591 73.9684 9.59435 74.0346 9.74799C74.1009 9.90162 74.1352 10.0672 74.1355 10.2346C74.1314 10.5342 74.0284 10.824 73.8426 11.0585L69.3061 16.8836L73.6884 22.6855C73.8956 22.9448 74.0108 23.266 74.016 23.5983C74.0173 23.7905 73.9769 23.9807 73.8977 24.1556C73.8185 24.3306 73.7024 24.4862 73.5574 24.6117C73.2746 24.8846 72.8975 25.0371 72.5052 25.0372C72.2549 25.0341 72.0095 24.968 71.7913 24.845C71.5732 24.722 71.3892 24.5461 71.2564 24.3332L67.2942 19.127Z" fill="white"/>
<path id="Vector_158" d="M90.0617 41.3094H44.6934C43.7734 41.3094 42.8911 40.9427 42.2406 40.2898C41.5901 39.637 41.2246 38.7516 41.2246 37.8283C41.2246 36.9051 41.5901 36.0196 42.2406 35.3668C42.8911 34.7139 43.7734 34.3472 44.6934 34.3472H90.0617C90.9817 34.3472 91.864 34.7139 92.5146 35.3668C93.1651 36.0196 93.5306 36.9051 93.5306 37.8283C93.5306 38.7516 93.1651 39.637 92.5146 40.2898C91.864 40.9427 90.9817 41.3094 90.0617 41.3094Z" fill="white"/>
<path id="Vector_159" d="M50.91 38.95C50.8797 38.95 50.8497 38.9439 50.8219 38.9319C50.7941 38.9199 50.769 38.9024 50.7481 38.8804C50.7253 38.8577 50.7074 38.8305 50.6954 38.8006C50.6835 38.7707 50.6778 38.7386 50.6787 38.7064C50.6787 38.6519 50.6933 38.5984 50.7211 38.5517L51.068 38.0101H50.3588C50.326 38.0118 50.2933 38.0065 50.2627 37.9945C50.2321 37.9825 50.2045 37.9641 50.1815 37.9405C50.1419 37.8942 50.1201 37.8352 50.1201 37.7742C50.1201 37.7132 50.1419 37.6542 50.1815 37.6079C50.2045 37.5843 50.2321 37.5659 50.2627 37.5539C50.2933 37.5419 50.326 37.5366 50.3588 37.5383L51.0564 37.5576L50.7481 37.0548C50.7172 37.0033 50.6999 36.9447 50.698 36.8846C50.6971 36.8523 50.7028 36.8203 50.7147 36.7903C50.7266 36.7604 50.7446 36.7332 50.7674 36.7105C50.789 36.6884 50.8148 36.6709 50.8432 36.6589C50.8717 36.6469 50.9022 36.6408 50.9331 36.6409C50.9762 36.6403 51.0186 36.6524 51.055 36.6758C51.0913 36.6992 51.12 36.7328 51.1374 36.7724L51.4765 37.3797L51.8003 36.7995C51.8207 36.7543 51.853 36.7157 51.8938 36.6877C51.9346 36.6598 51.9822 36.6436 52.0316 36.6409C52.0618 36.6409 52.0918 36.6471 52.1196 36.659C52.1474 36.671 52.1726 36.6885 52.1934 36.7105C52.216 36.7318 52.2339 36.7576 52.2458 36.7862C52.2578 36.8149 52.2636 36.8458 52.2628 36.8768C52.2623 36.9318 52.2463 36.9854 52.2166 37.0316L51.8774 37.5769L52.5827 37.5576C52.6155 37.5557 52.6484 37.5609 52.679 37.5729C52.7096 37.5849 52.7372 37.6034 52.76 37.6272C52.7996 37.6735 52.8214 37.7325 52.8214 37.7935C52.8214 37.8546 52.7996 37.9136 52.76 37.9599C52.7372 37.9836 52.7096 38.0022 52.679 38.0142C52.6484 38.0262 52.6155 38.0314 52.5827 38.0295H51.8697L52.1857 38.5246C52.2214 38.5843 52.2413 38.6522 52.2435 38.7218C52.2446 38.7532 52.2394 38.7844 52.2281 38.8137C52.2169 38.8429 52.1998 38.8696 52.178 38.892C52.1577 38.9137 52.1333 38.9311 52.1061 38.9431C52.0789 38.955 52.0497 38.9614 52.02 38.9617C51.9723 38.9605 51.9259 38.9457 51.8863 38.9189C51.8467 38.8922 51.8155 38.8547 51.7964 38.8108L51.4765 38.2422L51.1566 38.8108C51.1335 38.8556 51.0978 38.8926 51.054 38.9174C51.0102 38.9421 50.9601 38.9535 50.91 38.95Z" fill="black"/>
<path id="Vector_160" d="M54.4481 38.9501C54.4178 38.9501 54.3878 38.9439 54.36 38.932C54.3322 38.92 54.307 38.9025 54.2862 38.8805C54.2634 38.8578 54.2455 38.8306 54.2335 38.8007C54.2216 38.7707 54.2159 38.7387 54.2168 38.7064C54.2168 38.652 54.2314 38.5985 54.2592 38.5517L54.6061 38.0102H53.8969C53.8641 38.0119 53.8313 38.0066 53.8008 37.9945C53.7702 37.9825 53.7425 37.9641 53.7196 37.9406C53.68 37.8943 53.6582 37.8353 53.6582 37.7743C53.6582 37.7132 53.68 37.6542 53.7196 37.6079C53.7425 37.5844 53.7702 37.566 53.8008 37.554C53.8313 37.542 53.8641 37.5366 53.8969 37.5383L54.5945 37.5577L54.2669 37.0355C54.236 36.984 54.2187 36.9254 54.2168 36.8653C54.2159 36.8331 54.2216 36.801 54.2335 36.7711C54.2455 36.7411 54.2634 36.7139 54.2862 36.6912C54.3078 36.6691 54.3336 36.6516 54.362 36.6396C54.3905 36.6277 54.421 36.6215 54.4519 36.6216C54.4951 36.621 54.5375 36.6331 54.5738 36.6565C54.6101 36.6799 54.6388 36.7135 54.6562 36.7531L54.9954 37.3604L55.3191 36.7802C55.3395 36.735 55.3718 36.6964 55.4126 36.6684C55.4534 36.6405 55.501 36.6243 55.5504 36.6216C55.5806 36.6216 55.6106 36.6278 55.6384 36.6397C55.6663 36.6517 55.6914 36.6692 55.7122 36.6912C55.7348 36.7125 55.7527 36.7383 55.7646 36.7669C55.7766 36.7956 55.7824 36.8265 55.7816 36.8576C55.7811 36.9125 55.7651 36.9661 55.7354 37.0123L55.3962 37.5577L56.1015 37.5383C56.1343 37.5364 56.1672 37.5416 56.1978 37.5536C56.2284 37.5656 56.256 37.5842 56.2788 37.6079C56.3184 37.6542 56.3402 37.7132 56.3402 37.7743C56.3402 37.8353 56.3184 37.8943 56.2788 37.9406C56.256 37.9643 56.2284 37.9829 56.1978 37.9949C56.1672 38.0069 56.1343 38.0121 56.1015 38.0102H55.3885L55.7045 38.5053C55.7402 38.5651 55.7601 38.6329 55.7623 38.7026C55.7634 38.7339 55.7582 38.7651 55.7469 38.7944C55.7357 38.8236 55.7186 38.8503 55.6968 38.8727C55.6765 38.8945 55.6521 38.9118 55.6249 38.9238C55.5978 38.9357 55.5685 38.9421 55.5388 38.9424C55.491 38.9417 55.4444 38.9271 55.4047 38.9003C55.365 38.8735 55.3339 38.8357 55.3153 38.7915L54.9954 38.2229L54.6755 38.7915C54.6565 38.8369 54.625 38.8759 54.5847 38.904C54.5445 38.9321 54.4971 38.9481 54.4481 38.9501Z" fill="black"/>
<path id="Vector_161" d="M57.9861 38.9501C57.9559 38.9501 57.9259 38.9439 57.8981 38.932C57.8703 38.92 57.8451 38.9025 57.8243 38.8805C57.8015 38.8578 57.7835 38.8306 57.7716 38.8007C57.7597 38.7707 57.754 38.7387 57.7549 38.7064C57.7548 38.652 57.7695 38.5985 57.7973 38.5517L58.1442 38.0102H57.435C57.4022 38.0119 57.3694 38.0066 57.3389 37.9945C57.3083 37.9825 57.2806 37.9641 57.2577 37.9406C57.2181 37.8943 57.1963 37.8353 57.1963 37.7743C57.1963 37.7132 57.2181 37.6542 57.2577 37.6079C57.2806 37.5844 57.3083 37.566 57.3389 37.554C57.3694 37.542 57.4022 37.5366 57.435 37.5383L58.1326 37.5577L57.805 37.0355C57.7741 36.984 57.7568 36.9254 57.7549 36.8653C57.754 36.8331 57.7597 36.801 57.7716 36.7711C57.7835 36.7411 57.8015 36.7139 57.8243 36.6912C57.8459 36.6691 57.8717 36.6516 57.9001 36.6396C57.9286 36.6277 57.9591 36.6215 57.99 36.6216C58.0331 36.621 58.0755 36.6331 58.1119 36.6565C58.1482 36.6799 58.1769 36.7135 58.1943 36.7531L58.5334 37.3604L58.8572 36.7802C58.8776 36.735 58.9099 36.6964 58.9507 36.6684C58.9915 36.6405 59.0391 36.6243 59.0885 36.6216C59.1187 36.6216 59.1487 36.6278 59.1765 36.6397C59.2043 36.6517 59.2295 36.6692 59.2503 36.6912C59.2729 36.7125 59.2908 36.7383 59.3027 36.7669C59.3147 36.7956 59.3205 36.8265 59.3197 36.8576C59.3192 36.9125 59.3032 36.9661 59.2735 37.0123L58.9343 37.5577L59.6396 37.5383C59.6724 37.5364 59.7053 37.5416 59.7359 37.5536C59.7665 37.5656 59.7941 37.5842 59.8169 37.6079C59.8565 37.6542 59.8783 37.7132 59.8783 37.7743C59.8783 37.8353 59.8565 37.8943 59.8169 37.9406C59.7941 37.9643 59.7665 37.9829 59.7359 37.9949C59.7053 38.0069 59.6724 38.0121 59.6396 38.0102H58.9266L59.2426 38.5053C59.2783 38.5651 59.2982 38.6329 59.3004 38.7026C59.3015 38.7339 59.2963 38.7651 59.285 38.7944C59.2738 38.8236 59.2567 38.8503 59.2349 38.8727C59.2146 38.8945 59.1902 38.9118 59.163 38.9238C59.1358 38.9357 59.1066 38.9421 59.0769 38.9424C59.0291 38.9417 58.9825 38.9271 58.9428 38.9003C58.9031 38.8735 58.872 38.8357 58.8533 38.7915L58.5334 38.2229L58.2135 38.7915C58.1946 38.8369 58.1631 38.8759 58.1228 38.904C58.0825 38.9321 58.0351 38.9481 57.9861 38.9501Z" fill="black"/>
<path id="Vector_162" d="M61.5399 38.9501C61.5096 38.9501 61.4796 38.9439 61.4518 38.932C61.424 38.92 61.3989 38.9025 61.378 38.8805C61.3552 38.8578 61.3373 38.8306 61.3253 38.8007C61.3134 38.7707 61.3077 38.7387 61.3086 38.7064C61.3086 38.652 61.3232 38.5985 61.351 38.5517L61.6979 38.0102H60.9887C60.9559 38.0119 60.9231 38.0066 60.8926 37.9945C60.862 37.9825 60.8343 37.9641 60.8114 37.9406C60.7718 37.8943 60.75 37.8353 60.75 37.7743C60.75 37.7132 60.7718 37.6542 60.8114 37.6079C60.8343 37.5844 60.862 37.566 60.8926 37.554C60.9231 37.542 60.9559 37.5366 60.9887 37.5383L61.6863 37.5577L61.3587 37.0355C61.3278 36.984 61.3105 36.9254 61.3086 36.8653C61.3077 36.8331 61.3134 36.801 61.3253 36.7711C61.3373 36.7411 61.3552 36.7139 61.378 36.6912C61.3996 36.6691 61.4254 36.6516 61.4538 36.6396C61.4823 36.6277 61.5128 36.6215 61.5437 36.6216C61.5869 36.621 61.6293 36.6331 61.6656 36.6565C61.7019 36.6799 61.7306 36.7135 61.748 36.7531L62.0872 37.3604L62.4109 36.7802C62.4313 36.735 62.4636 36.6964 62.5044 36.6684C62.5452 36.6405 62.5928 36.6243 62.6422 36.6216C62.6724 36.6216 62.7024 36.6278 62.7302 36.6397C62.758 36.6517 62.7832 36.6692 62.804 36.6912C62.8266 36.7125 62.8445 36.7383 62.8564 36.7669C62.8684 36.7956 62.8742 36.8265 62.8734 36.8576C62.8729 36.9125 62.8569 36.9661 62.8272 37.0123L62.488 37.5577L63.1933 37.5383C63.2261 37.5364 63.259 37.5416 63.2896 37.5536C63.3202 37.5656 63.3478 37.5842 63.3706 37.6079C63.4102 37.6542 63.432 37.7132 63.432 37.7743C63.432 37.8353 63.4102 37.8943 63.3706 37.9406C63.3478 37.9643 63.3202 37.9829 63.2896 37.9949C63.259 38.0069 63.2261 38.0121 63.1933 38.0102H62.4803L62.7963 38.5053C62.832 38.5651 62.8519 38.6329 62.8541 38.7026C62.8553 38.7339 62.85 38.7651 62.8388 38.7944C62.8275 38.8236 62.8104 38.8503 62.7886 38.8727C62.7683 38.8945 62.7439 38.9118 62.7167 38.9238C62.6896 38.9357 62.6603 38.9421 62.6306 38.9424C62.5829 38.9412 62.5365 38.9264 62.4969 38.8997C62.4573 38.8729 62.4261 38.8354 62.4071 38.7915L62.0872 38.2229L61.7672 38.7915C61.7483 38.8369 61.7168 38.8759 61.6765 38.904C61.6363 38.9321 61.5888 38.9481 61.5399 38.9501Z" fill="black"/>
<path id="Vector_163" d="M65.0633 38.9501C65.033 38.9501 65.0031 38.9439 64.9752 38.932C64.9474 38.92 64.9223 38.9025 64.9014 38.8805C64.8786 38.8578 64.8607 38.8306 64.8488 38.8007C64.8368 38.7707 64.8311 38.7387 64.832 38.7064C64.8338 38.6522 64.8483 38.5992 64.8744 38.5517L65.2213 38.0102H64.5121C64.4794 38.0119 64.4466 38.0066 64.416 37.9945C64.3854 37.9825 64.3578 37.9641 64.3348 37.9406C64.2952 37.8943 64.2734 37.8353 64.2734 37.7743C64.2734 37.7132 64.2952 37.6542 64.3348 37.6079C64.3578 37.5844 64.3854 37.566 64.416 37.554C64.4466 37.542 64.4794 37.5366 64.5121 37.5383L65.2098 37.5577L64.8821 37.0355C64.8512 36.984 64.834 36.9254 64.832 36.8653C64.8311 36.8331 64.8368 36.801 64.8488 36.7711C64.8607 36.7411 64.8786 36.7139 64.9014 36.6912C64.923 36.6691 64.9488 36.6516 64.9773 36.6396C65.0057 36.6277 65.0363 36.6215 65.0671 36.6216C65.1103 36.621 65.1527 36.6331 65.189 36.6565C65.2253 36.6799 65.254 36.7135 65.2714 36.7531L65.6106 37.3604L65.9343 36.7802C65.9547 36.7351 65.9871 36.6964 66.0279 36.6684C66.0686 36.6405 66.1163 36.6243 66.1656 36.6216C66.1959 36.6211 66.226 36.6271 66.2539 36.6391C66.2818 36.6511 66.3069 36.6689 66.3275 36.6912C66.3501 36.7125 66.3679 36.7383 66.3799 36.767C66.3918 36.7956 66.3976 36.8265 66.3969 36.8576C66.3963 36.9125 66.3803 36.9661 66.3506 37.0123L66.0114 37.5577L66.7168 37.5383C66.7496 37.5364 66.7824 37.5416 66.813 37.5536C66.8436 37.5656 66.8713 37.5842 66.8941 37.6079C66.9337 37.6542 66.9555 37.7132 66.9555 37.7743C66.9555 37.8353 66.9337 37.8943 66.8941 37.9406C66.8713 37.9643 66.8436 37.9829 66.813 37.9949C66.7824 38.0069 66.7496 38.0121 66.7168 38.0102H66.0037L66.3198 38.5053C66.3554 38.5651 66.3753 38.6329 66.3776 38.7026C66.3787 38.7339 66.3735 38.7651 66.3622 38.7944C66.3509 38.8236 66.3339 38.8503 66.3121 38.8727C66.2918 38.8945 66.2673 38.9118 66.2402 38.9238C66.213 38.9357 66.1837 38.9421 66.154 38.9424C66.1063 38.9412 66.0599 38.9264 66.0203 38.8997C65.9807 38.8729 65.9496 38.8354 65.9305 38.7915L65.6106 38.2229L65.2907 38.7915C65.2717 38.8369 65.2402 38.8759 65.2 38.904C65.1597 38.9321 65.1123 38.9481 65.0633 38.9501Z" fill="black"/>
<path id="Vector_164" d="M68.6014 38.9501C68.5711 38.9501 68.5411 38.9439 68.5133 38.932C68.4855 38.92 68.4604 38.9025 68.4395 38.8805C68.4167 38.8578 68.3988 38.8306 68.3868 38.8007C68.3749 38.7707 68.3692 38.7387 68.3701 38.7064C68.3719 38.6522 68.3864 38.5992 68.4125 38.5517L68.7594 38.0102H68.0541C68.0207 38.0122 67.9872 38.007 67.956 37.995C67.9248 37.983 67.8964 37.9644 67.8729 37.9406C67.8333 37.8943 67.8115 37.8353 67.8115 37.7743C67.8115 37.7132 67.8333 37.6542 67.8729 37.6079C67.8964 37.5841 67.9248 37.5655 67.956 37.5535C67.9872 37.5415 68.0207 37.5363 68.0541 37.5383L68.7478 37.5577L68.4202 37.0355C68.3893 36.984 68.3721 36.9254 68.3701 36.8653C68.3692 36.8331 68.3749 36.801 68.3868 36.7711C68.3988 36.7411 68.4167 36.7139 68.4395 36.6912C68.4611 36.6691 68.4869 36.6516 68.5153 36.6396C68.5438 36.6277 68.5744 36.6215 68.6052 36.6216C68.6484 36.621 68.6908 36.6331 68.7271 36.6565C68.7634 36.6799 68.7921 36.7135 68.8095 36.7531L69.1487 37.3604L69.4724 36.7802C69.4928 36.7351 69.5252 36.6964 69.5659 36.6684C69.6067 36.6405 69.6544 36.6243 69.7037 36.6216C69.734 36.6211 69.7641 36.6271 69.792 36.6391C69.8199 36.6511 69.845 36.6689 69.8656 36.6912C69.8882 36.7125 69.906 36.7383 69.918 36.767C69.9299 36.7956 69.9357 36.8265 69.9349 36.8576C69.9344 36.9125 69.9184 36.9661 69.8887 37.0123L69.5495 37.5577L70.2548 37.5383C70.2876 37.5364 70.3205 37.5416 70.3511 37.5536C70.3817 37.5656 70.4094 37.5842 70.4321 37.6079C70.4718 37.6542 70.4935 37.7132 70.4935 37.7743C70.4935 37.8353 70.4718 37.8943 70.4321 37.9406C70.4094 37.9643 70.3817 37.9829 70.3511 37.9949C70.3205 38.0069 70.2876 38.0121 70.2548 38.0102H69.5418L69.8578 38.5053C69.8935 38.5651 69.9134 38.6329 69.9157 38.7026C69.9168 38.7339 69.9115 38.7651 69.9003 38.7944C69.889 38.8236 69.872 38.8503 69.8501 38.8727C69.8299 38.8945 69.8054 38.9118 69.7782 38.9238C69.7511 38.9357 69.7218 38.9421 69.6921 38.9424C69.6444 38.9412 69.598 38.9264 69.5584 38.8997C69.5188 38.8729 69.4877 38.8354 69.4686 38.7915L69.1487 38.2229L68.8288 38.7915C68.8098 38.8369 68.7783 38.8759 68.738 38.904C68.6978 38.9321 68.6504 38.9481 68.6014 38.9501Z" fill="black"/>
<path id="Vector_165" d="M72.1395 38.95C72.1092 38.95 72.0792 38.9439 72.0514 38.9319C72.0236 38.9199 71.9984 38.9024 71.9776 38.8804C71.9548 38.8577 71.9369 38.8305 71.9249 38.8006C71.913 38.7707 71.9073 38.7386 71.9082 38.7064C71.9082 38.6519 71.9228 38.5984 71.9506 38.5517L72.2975 38.0101H71.5883C71.5555 38.0118 71.5227 38.0065 71.4922 37.9945C71.4616 37.9825 71.4339 37.9641 71.411 37.9405C71.3714 37.8942 71.3496 37.8352 71.3496 37.7742C71.3496 37.7132 71.3714 37.6542 71.411 37.6079C71.4339 37.5843 71.4616 37.5659 71.4922 37.5539C71.5227 37.5419 71.5555 37.5366 71.5883 37.5383L72.2859 37.5576L71.9467 37.0548C71.9158 37.0033 71.8986 36.9447 71.8966 36.8846C71.8957 36.8523 71.9014 36.8203 71.9134 36.7903C71.9253 36.7604 71.9432 36.7332 71.966 36.7105C71.9876 36.6884 72.0134 36.6709 72.0419 36.6589C72.0703 36.6469 72.1009 36.6408 72.1317 36.6409C72.1749 36.6403 72.2173 36.6524 72.2536 36.6758C72.2899 36.6992 72.3186 36.7328 72.336 36.7724L72.6752 37.3797L72.999 36.7995C73.0193 36.7543 73.0517 36.7157 73.0925 36.6877C73.1332 36.6598 73.1809 36.6436 73.2302 36.6409C73.2605 36.6404 73.2907 36.6464 73.3185 36.6584C73.3464 36.6704 73.3715 36.6881 73.3921 36.7105C73.4147 36.7318 73.4325 36.7576 73.4445 36.7862C73.4564 36.8149 73.4622 36.8458 73.4615 36.8768C73.4609 36.9318 73.4449 36.9854 73.4152 37.0316L73.076 37.5769L73.7814 37.5576C73.8142 37.5557 73.847 37.5609 73.8776 37.5729C73.9082 37.5849 73.9359 37.6034 73.9587 37.6272C73.9983 37.6735 74.0201 37.7325 74.0201 37.7935C74.0201 37.8546 73.9983 37.9136 73.9587 37.9599C73.9359 37.9836 73.9082 38.0022 73.8776 38.0142C73.847 38.0262 73.8142 38.0314 73.7814 38.0295H73.0683L73.3844 38.5246C73.42 38.5843 73.4399 38.6522 73.4422 38.7218C73.4433 38.7532 73.4381 38.7844 73.4268 38.8137C73.4155 38.8429 73.3985 38.8696 73.3767 38.892C73.3564 38.9137 73.3319 38.9311 73.3047 38.9431C73.2776 38.955 73.2483 38.9614 73.2186 38.9617C73.1709 38.9605 73.1246 38.9457 73.0849 38.9189C73.0453 38.8922 73.0142 38.8547 72.9951 38.8108L72.6752 38.2422L72.3553 38.8108C72.3345 38.8509 72.3037 38.8848 72.2658 38.9092C72.228 38.9337 72.1844 38.9477 72.1395 38.95Z" fill="black"/>
<path id="Vector_166" d="M75.6776 38.9502C75.6474 38.9502 75.6174 38.944 75.5896 38.932C75.5618 38.9201 75.5367 38.9026 75.5158 38.8806C75.493 38.8578 75.475 38.8307 75.4631 38.8007C75.4512 38.7708 75.4455 38.7387 75.4464 38.7065C75.4482 38.6523 75.4627 38.5993 75.4888 38.5518L75.8357 38.0103H75.1303C75.0975 38.0128 75.0645 38.0078 75.0338 37.9957C75.0031 37.9837 74.9755 37.9649 74.953 37.9407C74.9111 37.8955 74.8877 37.8361 74.8877 37.7743C74.8877 37.7126 74.9111 37.6531 74.953 37.608C74.9755 37.5838 75.0031 37.565 75.0338 37.5529C75.0645 37.5409 75.0975 37.5359 75.1303 37.5384L75.8241 37.5577L75.4965 37.0356C75.4656 36.9841 75.4483 36.9255 75.4464 36.8654C75.4454 36.8337 75.4507 36.8022 75.462 36.7727C75.4734 36.7432 75.4905 36.7162 75.5125 36.6935C75.5344 36.6708 75.5607 36.6527 75.5897 36.6404C75.6188 36.628 75.65 36.6217 75.6815 36.6217C75.7247 36.621 75.7671 36.6332 75.8034 36.6566C75.8397 36.68 75.8684 36.7136 75.8858 36.7532L76.225 37.3605L76.5487 36.7803C76.5691 36.7351 76.6014 36.6965 76.6422 36.6685C76.683 36.6405 76.7306 36.6243 76.78 36.6217C76.8104 36.6207 76.8406 36.6264 76.8686 36.6385C76.8966 36.6505 76.9216 36.6685 76.9418 36.6913C76.9644 36.7126 76.9823 36.7384 76.9943 36.767C77.0062 36.7957 77.012 36.8266 77.0112 36.8576C77.0107 36.9126 76.9947 36.9662 76.965 37.0124L76.6258 37.5577L77.3311 37.5384C77.3639 37.5364 77.3968 37.5417 77.4274 37.5537C77.458 37.5657 77.4856 37.5842 77.5084 37.608C77.548 37.6543 77.5698 37.7133 77.5698 37.7743C77.5698 37.8354 77.548 37.8944 77.5084 37.9407C77.4856 37.9644 77.458 37.983 77.4274 37.995C77.3968 38.007 77.3639 38.0122 77.3311 38.0103H76.6181L76.9341 38.5054C76.9698 38.5651 76.9897 38.633 76.9919 38.7026C76.993 38.7331 76.988 38.7635 76.9773 38.7921C76.9666 38.8206 76.9505 38.8468 76.9297 38.869C76.9089 38.8913 76.884 38.9093 76.8563 38.9219C76.8286 38.9345 76.7988 38.9414 76.7684 38.9424C76.7207 38.9413 76.6743 38.9265 76.6347 38.8997C76.5951 38.873 76.5639 38.8355 76.5449 38.7916L76.225 38.223L75.905 38.7916C75.8861 38.837 75.8546 38.876 75.8143 38.9041C75.7741 38.9322 75.7266 38.9481 75.6776 38.9502Z" fill="black"/>
<path id="Vector_167" d="M79.2157 38.9502C79.1855 38.9502 79.1555 38.944 79.1277 38.932C79.0999 38.9201 79.0747 38.9026 79.0539 38.8806C79.0311 38.8578 79.0131 38.8307 79.0012 38.8007C78.9893 38.7708 78.9836 38.7387 78.9845 38.7065C78.9863 38.6523 79.0008 38.5993 79.0269 38.5518L79.3738 38.0103H78.6646C78.6323 38.0122 78.6001 38.0069 78.5701 37.9949C78.5401 37.9829 78.5132 37.9643 78.4911 37.9407C78.4491 37.8955 78.4258 37.8361 78.4258 37.7743C78.4258 37.7126 78.4491 37.6531 78.4911 37.608C78.5132 37.5843 78.5401 37.5658 78.5701 37.5538C78.6001 37.5417 78.6323 37.5365 78.6646 37.5384L79.3622 37.5577L79.0346 37.0356C79.0037 36.9841 78.9864 36.9255 78.9845 36.8654C78.9835 36.8337 78.9888 36.8022 79.0001 36.7727C79.0115 36.7432 79.0286 36.7162 79.0506 36.6935C79.0725 36.6708 79.0988 36.6527 79.1278 36.6404C79.1568 36.628 79.1881 36.6217 79.2196 36.6217C79.2627 36.621 79.3051 36.6332 79.3415 36.6566C79.3778 36.68 79.4065 36.7136 79.4239 36.7532L79.763 37.3605L80.0868 36.7803C80.1072 36.7351 80.1395 36.6965 80.1803 36.6685C80.2211 36.6405 80.2687 36.6243 80.3181 36.6217C80.3485 36.6207 80.3787 36.6264 80.4067 36.6385C80.4347 36.6505 80.4597 36.6685 80.4799 36.6913C80.5025 36.7126 80.5204 36.7384 80.5323 36.767C80.5443 36.7957 80.5501 36.8266 80.5493 36.8576C80.5488 36.9126 80.5328 36.9662 80.5031 37.0124L80.1639 37.5577L80.8692 37.5384C80.902 37.5364 80.9349 37.5417 80.9655 37.5537C80.9961 37.5657 81.0237 37.5842 81.0465 37.608C81.0861 37.6543 81.1079 37.7133 81.1079 37.7743C81.1079 37.8354 81.0861 37.8944 81.0465 37.9407C81.0237 37.9644 80.9961 37.983 80.9655 37.995C80.9349 38.007 80.902 38.0122 80.8692 38.0103H80.1562L80.4722 38.5054C80.5079 38.5651 80.5278 38.633 80.53 38.7026C80.5311 38.7331 80.5261 38.7635 80.5154 38.7921C80.5047 38.8206 80.4886 38.8468 80.4678 38.869C80.447 38.8913 80.4221 38.9093 80.3944 38.9219C80.3667 38.9345 80.3369 38.9414 80.3065 38.9424C80.2588 38.9413 80.2124 38.9265 80.1728 38.8997C80.1332 38.873 80.102 38.8355 80.0829 38.7916L79.763 38.223L79.4431 38.7916C79.4242 38.837 79.3927 38.876 79.3524 38.9041C79.3121 38.9322 79.2647 38.9481 79.2157 38.9502Z" fill="black"/>
<path id="Vector_168" d="M82.7382 38.9502C82.7079 38.9502 82.678 38.944 82.6501 38.932C82.6223 38.9201 82.5972 38.9026 82.5763 38.8806C82.5535 38.8578 82.5356 38.8307 82.5237 38.8007C82.5117 38.7708 82.506 38.7387 82.5069 38.7065C82.5087 38.6523 82.5233 38.5993 82.5493 38.5518L82.8962 38.0103H82.187C82.1548 38.0122 82.1226 38.0069 82.0926 37.9949C82.0626 37.9829 82.0356 37.9643 82.0136 37.9407C81.9716 37.8955 81.9482 37.8361 81.9482 37.7743C81.9482 37.7126 81.9716 37.6531 82.0136 37.608C82.0356 37.5843 82.0626 37.5658 82.0926 37.5538C82.1226 37.5417 82.1548 37.5365 82.187 37.5384L82.8847 37.5577L82.557 37.0356C82.5261 36.9841 82.5089 36.9255 82.5069 36.8654C82.506 36.8331 82.5117 36.8011 82.5237 36.7711C82.5356 36.7412 82.5535 36.714 82.5763 36.6913C82.5979 36.6692 82.6237 36.6516 82.6522 36.6397C82.6806 36.6277 82.7112 36.6216 82.7421 36.6217C82.7852 36.621 82.8276 36.6332 82.8639 36.6566C82.9002 36.68 82.9289 36.7136 82.9463 36.7532L83.2855 37.3605L83.6093 36.7803C83.6296 36.7351 83.662 36.6965 83.7028 36.6685C83.7435 36.6405 83.7912 36.6243 83.8405 36.6217C83.8709 36.6207 83.9012 36.6264 83.9291 36.6385C83.9571 36.6505 83.9821 36.6685 84.0024 36.6913C84.025 36.7126 84.0428 36.7384 84.0548 36.767C84.0667 36.7957 84.0725 36.8266 84.0718 36.8576C84.0712 36.9126 84.0552 36.9662 84.0255 37.0124L83.6863 37.5577L84.3917 37.5384C84.4245 37.5364 84.4573 37.5417 84.4879 37.5537C84.5185 37.5657 84.5462 37.5842 84.569 37.608C84.6086 37.6543 84.6304 37.7133 84.6304 37.7743C84.6304 37.8354 84.6086 37.8944 84.569 37.9407C84.5462 37.9644 84.5185 37.983 84.4879 37.995C84.4573 38.007 84.4245 38.0122 84.3917 38.0103H83.6786L83.9947 38.5054C84.0303 38.5651 84.0502 38.633 84.0525 38.7026C84.0536 38.734 84.0484 38.7652 84.0371 38.7945C84.0258 38.8237 84.0088 38.8504 83.987 38.8728C83.9667 38.8945 83.9422 38.9119 83.915 38.9239C83.8879 38.9358 83.8586 38.9421 83.8289 38.9424C83.7812 38.9413 83.7349 38.9265 83.6952 38.8997C83.6556 38.873 83.6245 38.8355 83.6054 38.7916L83.2855 38.223L82.9656 38.7916C82.9466 38.837 82.9151 38.876 82.8749 38.9041C82.8346 38.9322 82.7872 38.9481 82.7382 38.9502Z" fill="black"/>
<path id="Vector_169" d="M94.8643 47.5059H99.578" stroke="white" stroke-width="3" stroke-linecap="round" stroke-linejoin="round"/>
<path id="Vector_170" d="M29.4844 12.6753V44.0945C29.4844 45.0044 29.8446 45.8771 30.4857 46.5205C31.1268 47.1639 31.9964 47.5253 32.9031 47.5253H90.3891" stroke="white" stroke-width="3" stroke-linecap="round" stroke-linejoin="round"/>
<path id="Vector_171" d="M29.4844 4.34375V9.05489" stroke="white" stroke-width="3" stroke-linecap="round" stroke-linejoin="round"/>
</g>
</g>
<defs>
<clipPath id="clip0_805_14240">
<rect width="153" height="138" fill="white" transform="translate(-7)"/>
</clipPath>
</defs>
</svg>
