<svg width="156" height="150" viewBox="0 0 156 150" fill="none" xmlns="http://www.w3.org/2000/svg">
<g id="Frame 1" clip-path="url(#clip0_673_17600)">
<rect id="Rectangle 4602" width="156" height="150" rx="24" fill="#F3F2F8"/>
<g id="Group 17720">
<path id="Vector" d="M114.253 78.0527C118.1 74.4646 120.858 69.8656 122.212 64.7824C123.566 59.6993 123.461 54.3375 121.909 49.3113C120.357 44.285 117.421 39.7975 113.437 36.3627C109.453 32.9279 104.582 30.6846 99.3817 29.8898C94.1817 29.0951 88.863 29.781 84.0347 31.8689C79.2064 33.9569 75.0638 37.3625 72.0814 41.6957C69.0989 46.0289 67.3972 51.1146 67.1711 56.3701C66.945 61.6256 68.2037 66.8386 70.803 71.4119L65.1043 76.7269L66.4766 86.1822L57.6261 83.7631L50.4968 90.4156L51.9157 99.8127L43.0768 97.3355L36.9477 103.046L37.7851 108.861L32.3887 107.349L28.8299 110.675L28.2949 119.433L41.3556 122.724L83.7474 83.1816C88.7741 85.416 94.3475 86.1211 99.7723 85.209C105.197 84.2969 110.233 81.808 114.253 78.0527ZM110.066 43.6159C111.151 44.7779 111.868 46.2357 112.124 47.8047C112.381 49.3738 112.166 50.9837 111.507 52.4307C110.848 53.8777 109.775 55.0968 108.423 55.9338C107.072 56.7707 105.502 57.1879 103.913 57.1326C102.324 57.0772 100.787 56.5518 99.4971 55.6228C98.2069 54.6938 97.2212 53.403 96.6647 51.9137C96.1083 50.4243 96.0061 48.8034 96.3711 47.256C96.7362 45.7085 97.5519 44.3042 98.7153 43.2205C100.274 41.769 102.344 40.9953 104.473 41.0695C106.601 41.1436 108.613 42.0595 110.066 43.6159Z" fill="#241E36"/>
<path id="Vector_2" d="M110.067 43.618C110.067 43.618 109.543 43.1295 108.473 42.455C106.952 41.5459 105.176 41.158 103.414 41.3501C101.986 41.5042 100.629 42.0529 99.4957 42.9346C98.362 43.8163 97.4963 44.9963 96.9954 46.3423C96.4945 47.6883 96.3784 49.1473 96.6599 50.5556C96.9414 51.9639 97.6095 53.2661 98.5894 54.3161C99.5692 55.3661 100.822 56.1226 102.208 56.5007C103.593 56.8788 105.057 56.8637 106.434 56.457C107.811 56.0503 109.048 55.2681 110.006 54.198C110.964 53.1279 111.605 51.8122 111.858 50.3984C112.181 48.656 111.915 46.8556 111.102 45.2811C110.52 44.1181 110.008 43.6529 110.067 43.6064C110.125 43.5599 110.218 43.711 110.45 43.9553C110.792 44.3075 111.093 44.6977 111.346 45.1183C112.292 46.7224 112.645 48.607 112.346 50.4449C112.172 51.5383 111.781 52.5857 111.195 53.525C110.609 54.4642 109.841 55.2763 108.935 55.913C108.029 56.5497 107.005 56.998 105.923 57.2314C104.841 57.4648 103.722 57.4785 102.635 57.2718C100.883 56.9505 99.2804 56.0735 98.0655 54.7706C96.8506 53.4677 96.0876 51.8082 95.8894 50.0378C95.759 48.9392 95.8504 47.8256 96.1582 46.7629C96.4659 45.7003 96.9838 44.7102 97.6811 43.8513C98.3784 42.9924 99.241 42.2821 100.218 41.7626C101.195 41.2431 102.266 40.9249 103.368 40.8268C105.226 40.6551 107.087 41.1408 108.624 42.1991C109.05 42.4723 109.441 42.7965 109.787 43.1644C110.067 43.4668 110.136 43.6064 110.067 43.618Z" fill="#241E36"/>
<path id="Vector_3" d="M114.254 78.0546C114.254 78.0546 114.126 78.1941 113.846 78.4384L112.614 79.6014C110.942 80.9623 109.125 82.1325 107.194 83.0904C103.519 84.8507 99.5064 85.7924 95.4323 85.8507C91.3582 85.9089 87.32 85.0822 83.5965 83.4277H83.8291L41.5071 123.04L41.3908 123.168H41.2163L28.1557 119.888L27.8882 119.83V119.551C28.051 116.818 28.2255 113.829 28.4116 110.793V110.514L28.5046 110.421L32.1448 107.025L32.2727 106.897H32.4588L37.8552 108.409L37.4249 108.781C37.1574 106.979 36.8783 105.002 36.5875 102.966V102.792L36.7154 102.676L42.8445 96.9535L42.9841 96.814H43.1702L52.0091 99.2912L51.5788 99.675C51.1484 96.6744 50.6833 93.4645 50.218 90.2197V90.0336L50.3576 89.9173L52.2417 88.1495L57.4869 83.2649L57.6264 83.1253H57.8125L66.663 85.6025L66.2211 85.9863C65.7636 82.7997 65.3101 79.6479 64.8604 76.531V76.3566L64.9883 76.2286L70.6871 70.9137L70.6289 71.3324C68.4236 67.4147 67.1763 63.031 66.9887 58.5392C66.8801 56.369 67.0363 54.1936 67.4539 52.0612C67.8349 49.9644 68.4594 47.9191 69.3147 45.967C71.472 41.03 74.9955 36.8124 79.4702 33.8114C83.9448 30.8104 89.1841 29.151 94.5705 29.0288C99.957 28.9065 105.266 30.3266 109.872 33.1215C114.478 35.9165 118.19 39.9699 120.569 44.804C122.8 49.3648 123.752 54.4453 123.325 59.5045C123.03 63.2758 121.961 66.9459 120.185 70.2857C120.01 70.6346 119.836 70.9602 119.662 71.2858L119.092 72.1697C118.708 72.7396 118.394 73.3327 118.022 73.763C117.266 74.6702 116.684 75.4843 116.114 76.0891L114.719 77.6359L114.265 78.0546C114.265 78.0546 114.393 77.8918 114.672 77.5894L115.928 76.2519C116.475 75.6704 117.091 74.8447 117.777 73.9259C118.126 73.449 118.429 72.8908 118.801 72.3325C118.987 72.0418 119.173 71.751 119.359 71.437L119.871 70.4485C121.589 67.1431 122.624 63.5257 122.915 59.8119C123.205 56.0981 122.746 52.3637 121.563 48.8313C120.38 45.2988 118.499 42.0405 116.03 39.2505C113.562 36.4605 110.557 34.1958 107.195 32.5914C103.833 30.9869 100.183 30.0755 96.4611 29.9114C92.7395 29.7473 89.023 30.3339 85.5329 31.6362C82.0428 32.9386 78.8504 34.93 76.1461 37.492C73.4417 40.0539 71.2806 43.1339 69.7915 46.5485C68.9623 48.458 68.3535 50.4558 67.9772 52.5032C67.5795 54.5871 67.4312 56.711 67.5353 58.83C67.7337 63.2005 68.9568 67.4633 71.1057 71.2742L71.2337 71.5068L71.036 71.6929L65.3488 77.0079L65.4535 76.7055C65.9032 79.8068 66.3568 82.9625 66.8142 86.1724L66.8956 86.6958L66.3723 86.5562L57.5334 84.079L57.8707 83.9976L52.6255 88.8822L50.753 90.6151L50.8577 90.3011C51.3229 93.5459 51.7881 96.7674 52.2184 99.7564L52.2998 100.291L51.7765 100.152L42.9376 97.663L43.2632 97.5816C41.1582 99.5587 39.0648 101.501 37.1342 103.304L37.2505 103.001C37.5296 104.99 37.8087 106.967 38.0762 108.816L38.146 109.328L37.6459 109.188L32.2611 107.677L32.5751 107.595L29.0047 110.921L29.1094 110.7C28.9233 113.736 28.7372 116.725 28.5744 119.458L28.3301 119.121L41.3908 122.412L41.1 122.493L83.55 83.0206L83.6547 82.9276H83.7826C87.4543 84.5798 91.4392 85.4206 95.4654 85.3925C99.4916 85.3644 103.464 84.4681 107.113 82.7648C109.037 81.8478 110.862 80.7331 112.556 79.4386L113.823 78.3802L114.254 78.0546Z" fill="#241E36"/>
<path id="Vector_4" d="M113.311 74.8794C117.156 71.2933 119.913 66.697 121.267 61.6167C122.621 56.5364 122.517 51.1775 120.967 46.1536C119.417 41.1297 116.483 36.644 112.502 33.21C108.52 29.776 103.653 27.5326 98.4555 26.7367C93.2584 25.9408 87.9423 26.6245 83.1158 28.7096C78.2893 30.7948 74.1476 34.1969 71.1648 38.5266C68.1821 42.8563 66.479 47.9384 66.2505 53.1911C66.022 58.4438 67.2773 63.6546 69.8727 68.2269L64.1856 73.5303L65.5463 82.9972L56.7074 80.5084L49.5898 87.1724L50.9505 96.6277L42.1116 94.1505L35.9825 99.8725L36.8083 105.688L31.4235 104.187L27.8531 107.514L27.3181 116.271L40.3787 119.551L82.7706 80.0083C87.8008 82.2547 93.3822 82.9663 98.8151 82.0539C104.248 81.1415 109.291 78.6457 113.311 74.8794ZM109.171 40.4426C110.256 41.6046 110.972 43.0623 111.229 44.6314C111.485 46.2005 111.27 47.8103 110.612 49.2574C109.953 50.7044 108.88 51.9235 107.528 52.7604C106.176 53.5974 104.607 54.0146 103.018 53.9592C101.429 53.9039 99.8919 53.3785 98.6017 52.4495C97.3114 51.5205 96.3257 50.2297 95.7693 48.7403C95.2129 47.251 95.1107 45.63 95.4757 44.0826C95.8408 42.5352 96.6566 41.1308 97.8199 40.0472C98.5908 39.327 99.4961 38.7659 100.484 38.396C101.472 38.0261 102.523 37.8546 103.577 37.8913C104.632 37.928 105.668 38.1723 106.628 38.61C107.588 39.0478 108.452 39.6705 109.171 40.4426Z" fill="#FB1D6D"/>
<path id="Vector_5" d="M109.171 40.4415C109.171 40.4415 108.647 39.953 107.577 39.2785C106.071 38.3394 104.295 37.9301 102.53 38.1154C101.106 38.272 99.7533 38.8217 98.6237 39.703C97.4941 40.5843 96.6319 41.7624 96.1336 43.1057C95.6353 44.449 95.5205 45.9044 95.8021 47.3092C96.0836 48.714 96.7504 50.0127 97.7279 51.0602C98.7054 52.1077 99.955 52.8626 101.337 53.2405C102.719 53.6184 104.179 53.6044 105.553 53.2001C106.928 52.7957 108.163 52.017 109.12 50.951C110.077 49.8849 110.719 48.5736 110.973 47.1637C111.294 45.42 111.024 43.6192 110.206 42.0464C109.624 40.8834 109.124 40.4182 109.171 40.3717C109.217 40.3252 109.322 40.4764 109.566 40.7206C109.904 41.0735 110.2 41.4637 110.45 41.8836C111.399 43.4906 111.753 45.3802 111.45 47.2218C111.275 48.3133 110.883 49.3587 110.297 50.2963C109.712 51.2339 108.944 52.0447 108.04 52.681C107.136 53.3172 106.114 53.7661 105.034 54.001C103.954 54.2359 102.837 54.2521 101.751 54.0487C99.9991 53.7448 98.3918 52.8852 97.1666 51.5971C95.9413 50.309 95.1631 48.6608 94.9471 46.8962C94.82 45.7981 94.9137 44.6857 95.2227 43.6244C95.5318 42.563 96.0499 41.5742 96.7466 40.716C97.4434 39.8578 98.3047 39.1476 99.2799 38.6271C100.255 38.1066 101.324 37.7863 102.425 37.6851C104.286 37.5159 106.146 38.0057 107.682 39.0691C108.11 39.3389 108.501 39.6634 108.845 40.0344C109.089 40.2903 109.194 40.4298 109.171 40.4415Z" fill="#241E36"/>
<path id="Vector_6" d="M113.311 74.8792C113.311 74.8792 113.183 75.0188 112.916 75.263L111.683 76.3562C110.009 77.7135 108.192 78.8835 106.263 79.8453C102.586 81.605 98.5717 82.5464 94.4958 82.6047C90.4199 82.6629 86.3798 81.8365 82.6542 80.1825H82.8868L40.5764 119.795L40.4485 119.911H40.2856L27.2134 116.631L26.9575 116.562V116.294C27.1203 113.561 27.3064 110.572 27.4809 107.537V107.397L27.5739 107.316L31.1444 103.978L31.2839 103.85H31.47L36.8547 105.35L36.4244 105.734C36.1686 103.931 35.8778 101.954 35.5871 99.9189V99.7444L35.7266 99.6165L41.8441 93.9061L41.9836 93.7665L42.1814 93.8247L51.0203 96.3019L50.5783 96.6857L49.2176 87.2537V87.0676L49.3455 86.9396L51.2412 85.1835L56.4748 80.2988L56.6143 80.1593L56.812 80.2174L65.6509 82.6946L65.209 83.0784C64.7515 79.8918 64.298 76.74 63.8483 73.6231V73.437L63.9878 73.3208L69.6866 68.0058L69.6168 68.4245C67.4116 64.5068 66.1642 60.1231 65.9766 55.6313C65.8736 53.4612 66.0298 51.2865 66.4418 49.1533C66.8249 47.057 67.4493 45.012 68.3026 43.0592C70.9488 36.9071 75.6979 31.8974 81.7 28.9267C87.7021 25.9559 94.5655 25.218 101.062 26.8449C107.558 28.4718 113.264 32.3574 117.157 37.8063C121.051 43.2552 122.879 49.9119 122.313 56.585C122.016 60.356 120.948 64.0257 119.173 67.3661L118.649 68.3663L118.08 69.2502C117.696 69.8201 117.382 70.4132 117.021 70.8435C116.265 71.7507 115.684 72.5648 115.114 73.1696L113.765 74.4605C113.474 74.7513 113.311 74.8908 113.311 74.8908C113.311 74.8908 113.451 74.7164 113.73 74.414L114.974 73.0882C115.521 72.5067 116.137 71.6809 116.824 70.7621C117.172 70.2969 117.486 69.7387 117.859 69.1688L118.417 68.2849L118.917 67.2847C120.636 63.9634 121.661 60.3268 121.929 56.5966C122.423 50.0651 120.591 43.5694 116.757 38.2588C112.922 32.9483 107.333 29.1652 100.978 27.5792C94.6227 25.9932 87.9112 26.7064 82.0313 29.5927C76.1513 32.4789 71.4819 37.3521 68.8492 43.3499C68.0236 45.2597 67.4188 47.2575 67.0466 49.3045C66.6427 51.3877 66.4943 53.5123 66.6046 55.6313C66.7995 60.0009 68.0185 64.2636 70.1634 68.0756L70.303 68.3082L70.1053 68.4942L64.4065 73.8092L64.5112 73.5068C64.9686 76.6082 65.4222 79.76 65.8719 82.9621L65.9533 83.4971L65.4416 83.3459L56.5678 80.8571L56.8935 80.7757L51.6599 85.672L49.7642 87.4281L49.8688 87.1257C50.3457 90.3705 50.7993 93.5804 51.2296 96.581L51.311 97.116L50.7993 96.9648L41.9487 94.4876L42.286 94.4062L36.157 100.117L36.2616 99.8258C36.5407 101.815 36.8315 103.78 37.0874 105.583L37.1571 106.106L36.657 105.967L31.2723 104.455L31.5863 104.373L28.0275 107.699L28.1321 107.467C27.9461 110.502 27.76 113.503 27.5855 116.224L27.3413 115.887L40.4019 119.19L40.1112 119.271L82.5612 79.7987L82.6658 79.7057L82.7937 79.7638C86.4676 81.4079 90.4516 82.2441 94.4765 82.216C98.5013 82.1879 102.473 81.2962 106.124 79.601C108.051 78.682 109.879 77.5674 111.578 76.2748L112.834 75.2165L113.311 74.8792Z" fill="#241E36"/>
<path id="Vector_7" d="M110.741 72.6934C112.122 71.2151 113.382 69.6283 114.509 67.9483C115.785 65.9571 116.753 63.785 117.382 61.5052C118.241 58.4836 118.514 55.3253 118.184 52.2011C117.802 48.4258 116.539 44.7928 114.497 41.5944C112.146 37.9328 108.862 34.9626 104.984 32.9881C102.907 31.9066 100.674 31.1533 98.3665 30.7551C97.1796 30.5334 95.9789 30.3935 94.7728 30.3365C93.5411 30.3175 92.3095 30.3797 91.086 30.5225C85.9478 31.1119 81.1339 33.3332 77.3513 36.8604C73.5688 40.3876 71.0168 45.0347 70.0704 50.1193C69.8424 51.3294 69.6948 52.5532 69.6284 53.7828C69.6045 54.991 69.6627 56.1995 69.8029 57.3998C70.0373 59.7304 70.6337 62.0101 71.5707 64.1569C73.2688 68.1647 76.0072 71.646 79.5024 74.2402C82.5449 76.5055 86.0795 78.0198 89.8183 78.6597C92.9007 79.206 96.0594 79.1547 99.1224 78.5085C101.441 78.0327 103.675 77.2135 105.752 76.0778C107.505 75.0758 109.174 73.9322 110.741 72.6585C110.741 72.6585 110.66 72.7632 110.462 72.9376L109.59 73.7285C109.122 74.1569 108.621 74.5459 108.089 74.8915C107.39 75.4207 106.652 75.895 105.88 76.3104C103.798 77.5024 101.547 78.3691 99.2039 78.8806C93.5486 80.1438 87.6295 79.3873 82.4737 76.7424C77.3179 74.0976 73.2506 69.7313 70.9775 64.4011C70.0072 62.1843 69.3873 59.8302 69.14 57.423C68.8067 54.9659 68.8813 52.4707 69.3609 50.0379C70.3268 44.806 72.9483 40.0229 76.8389 36.3941C80.7296 32.7652 85.6833 30.4826 90.9697 29.8829C93.4598 29.5624 95.9855 29.6488 98.4479 30.1387C100.817 30.5644 103.107 31.3487 105.24 32.4648C109.211 34.5025 112.564 37.5665 114.951 41.3386C116.835 44.3337 118.06 47.6954 118.546 51.2005C119.031 54.7055 118.765 58.2737 117.766 61.668C117.095 63.975 116.071 66.1642 114.73 68.1576C114.269 68.8973 113.748 69.5975 113.172 70.2511C112.785 70.758 112.357 71.2326 111.892 71.6699L111.043 72.4841C110.857 72.612 110.753 72.705 110.741 72.6934Z" fill="#FDFDFD"/>
<path id="Vector_8" d="M109.613 52.818C109.555 52.818 110.194 52.2132 110.974 50.9688C112.07 49.1926 112.537 47.0994 112.299 45.0258C112.138 43.5066 111.597 42.0526 110.725 40.7984C109.852 39.5441 108.678 38.53 107.31 37.85C105.712 37.032 103.905 36.712 102.123 36.9312C100.724 37.0999 99.3826 37.5912 98.2054 38.3662C97.0282 39.1413 96.047 40.179 95.339 41.3977C94.631 42.6164 94.2156 43.9829 94.1254 45.3894C94.0352 46.796 94.2727 48.2042 94.8193 49.5034C95.4595 50.9982 96.4775 52.3008 97.7733 53.2832C98.9145 54.1332 100.235 54.7101 101.635 54.9695C103.689 55.3483 105.811 55.0246 107.659 54.0508C108.962 53.3646 109.555 52.7598 109.613 52.818C109.671 52.8761 109.485 52.9924 109.194 53.2599C108.77 53.6625 108.297 54.0103 107.787 54.295C106.194 55.2173 104.368 55.6567 102.53 55.5596C100.692 55.4626 98.9226 54.8333 97.4361 53.7484C95.9489 52.6726 94.7983 51.1959 94.1187 49.4908C93.4392 47.7857 93.2586 45.9225 93.5981 44.1186C93.9731 42.0745 94.9971 40.2058 96.5181 38.7896C98.039 37.3734 99.976 36.4851 102.042 36.2567C103.958 36.0252 105.9 36.3778 107.612 37.2685C109.157 38.0742 110.459 39.2789 111.381 40.7575C112.352 42.3183 112.853 44.1263 112.822 45.9645C112.791 47.8027 112.23 49.5928 111.206 51.12C110.873 51.6071 110.483 52.0523 110.043 52.4458C109.787 52.7133 109.624 52.8412 109.613 52.818Z" fill="#241E36"/>
<path id="Vector_9" d="M36.9361 117.945C36.8082 117.806 46.3449 108.641 58.2541 97.5808C70.1634 86.5206 79.921 77.5886 80.049 77.7282C80.1769 77.8677 70.6402 87.0323 58.7309 98.0925C46.8217 109.153 37.064 118.085 36.9361 117.945Z" fill="#FDFDFD"/>
<path id="Vector_10" d="M42.193 62.4466L42.5884 61.5859L43.1001 62.3768C43.5182 63.0086 44.107 63.5087 44.7981 63.8189L45.6704 64.2027L44.8795 64.7261C44.2421 65.141 43.7375 65.7304 43.4258 66.4241L43.0419 67.2847L42.5186 66.4939C42.1025 65.8603 41.5131 65.3598 40.8206 65.0517L39.96 64.6679L40.7508 64.1446C41.3879 63.7326 41.8895 63.142 42.193 62.4466Z" fill="#FB1D6D"/>
<path id="Vector_11" d="M16.2462 55.9806L16.4671 55.4805L16.7695 55.934C17.0091 56.3047 17.3531 56.5961 17.7581 56.7714L18.2582 57.004L17.793 57.3064C17.4276 57.5468 17.1373 57.8854 16.9556 58.2833L16.7347 58.7951L16.4323 58.3298C16.1927 57.9592 15.8488 57.6678 15.4437 57.4925L14.9436 57.2599L15.3972 56.9691C15.7657 56.7239 16.0594 56.3819 16.2462 55.9806Z" fill="#FB1D6D"/>
<path id="Vector_12" d="M97.971 100.209L98.192 99.709L98.4944 100.174C98.7433 100.536 99.0847 100.826 99.4829 101.012L99.983 101.233L99.5295 101.535C99.1588 101.774 98.8674 102.118 98.6921 102.523L98.4595 103.024L98.1571 102.57C97.9183 102.2 97.5796 101.906 97.1802 101.721L96.6685 101.5L97.1337 101.198C97.5043 100.958 97.7957 100.614 97.971 100.209Z" fill="#FB1D6D"/>
<path id="Vector_13" d="M137.979 77.5306L138.363 76.6699L138.886 77.4608C139.301 78.0947 139.891 78.5954 140.584 78.9029L141.445 79.2867L140.654 79.8101C140.019 80.2252 139.518 80.8148 139.212 81.5081L138.816 82.3687L138.304 81.5778C137.883 80.949 137.295 80.4497 136.606 80.1357L135.734 79.7519L136.525 79.2286C137.162 78.8137 137.667 78.2242 137.979 77.5306Z" fill="#FB1D6D"/>
<path id="Vector_14" d="M132.78 45.7585L133.432 44.3047L134.304 45.6422C135.005 46.7055 135.993 47.5484 137.153 48.0728L138.607 48.7125L137.27 49.5848C136.208 50.2925 135.366 51.2837 134.839 52.4458L134.188 53.8995L133.315 52.5621C132.615 51.4987 131.627 50.6559 130.466 50.1314L129.012 49.4801L130.35 48.6078C131.413 47.907 132.256 46.919 132.78 45.7585Z" fill="#FB1D6D"/>
<path id="Vector_15" d="M34.1332 35.9655L34.7845 34.5117L35.6568 35.8376C36.3542 36.9039 37.3432 37.7476 38.5062 38.2682L39.9599 38.9195L38.6341 39.7918C37.5646 40.4857 36.72 41.4757 36.2034 42.6412L35.5521 44.0949L34.6798 42.7691C33.9808 41.6997 32.9872 40.8555 31.8188 40.3384L30.3767 39.6871L31.7025 38.8149C32.7689 38.1175 33.6126 37.1285 34.1332 35.9655Z" fill="#FB1D6D"/>
</g>
</g>
<defs>
<clipPath id="clip0_673_17600">
<rect width="156" height="150" fill="white"/>
</clipPath>
</defs>
</svg>
