<svg width="24" height="24" viewBox="0 0 24 24" fill="none" xmlns="http://www.w3.org/2000/svg">
<g id="vuesax/bold/shop">
<g id="Group">
<path id="Vector" d="M2.80675 10.8955L2.80676 10.8955L2.80481 10.893C2.25775 10.1897 1.99929 9.27828 2.08786 8.32765C2.0879 8.32728 2.08793 8.3269 2.08797 8.32653L2.3567 5.58947C2.56487 4.12252 2.98449 3.19141 3.61934 2.61702C4.25136 2.0452 5.18238 1.75 6.59014 1.75H8.99014H10.4701H13.5101H14.9901H17.3501C18.7526 1.75 19.6845 2.04507 20.3169 2.61418C20.9517 3.18536 21.3708 4.10946 21.5737 5.56058L21.8624 8.31786C21.8625 8.31857 21.8626 8.31928 21.8626 8.31999C21.9509 9.24282 21.7104 10.1263 21.1901 10.82L21.1901 10.8199L21.1846 10.8275C20.5342 11.7295 19.4893 12.25 18.3101 12.25C17.2329 12.25 16.1854 11.7181 15.5048 10.843L15.086 10.3046L14.6986 10.866C14.104 11.7278 13.1294 12.25 12.0001 12.25C10.8747 12.25 9.87096 11.7012 9.2849 10.8308L8.89277 10.2483L8.47061 10.8094C7.80066 11.6997 6.73584 12.25 5.64014 12.25C4.48736 12.25 3.46724 11.7559 2.80675 10.8955Z" fill="white" stroke="white"/>
<path id="Vector_2" d="M11.401 17.1574L11.402 17.1573C12.4845 17.0443 13.2127 17.2327 13.6625 17.5955C14.1002 17.9484 14.3747 18.5485 14.3701 19.4976H14.3701V19.5V21.88H9.62012V19.15C9.62012 18.1218 10.3907 17.2608 11.401 17.1574Z" fill="white" stroke="white"/>
<path id="Vector_3" d="M21.3699 14.4V17.38C21.3699 20.14 19.1299 22.38 16.3699 22.38C16.0999 22.38 15.8799 22.16 15.8799 21.89V19.5C15.8799 18.22 15.4899 17.22 14.7299 16.54C14.0599 15.93 13.1499 15.63 12.0199 15.63C11.7699 15.63 11.5199 15.64 11.2499 15.67C9.46988 15.85 8.11988 17.35 8.11988 19.15V21.89C8.11988 22.16 7.89988 22.38 7.62988 22.38C4.86988 22.38 2.62988 20.14 2.62988 17.38V14.42C2.62988 13.72 3.31988 13.25 3.96988 13.48C4.23988 13.57 4.50988 13.64 4.78988 13.68C4.90988 13.7 5.03988 13.72 5.15988 13.72C5.31988 13.74 5.47988 13.75 5.63988 13.75C6.79988 13.75 7.93988 13.32 8.83988 12.58C9.69988 13.32 10.8199 13.75 11.9999 13.75C13.1899 13.75 14.2899 13.34 15.1499 12.6C16.0499 13.33 17.1699 13.75 18.3099 13.75C18.4899 13.75 18.6699 13.74 18.8399 13.72C18.9599 13.71 19.0699 13.7 19.1799 13.68C19.4899 13.64 19.7699 13.55 20.0499 13.46C20.6999 13.24 21.3699 13.72 21.3699 14.4Z" fill="white"/>
</g>
</g>
</svg>
