<svg width="24" height="24" viewBox="0 0 24 24" fill="none" xmlns="http://www.w3.org/2000/svg">
<g clip-path="url(#clip0_1531_7661)">
<path d="M17 3.33989C18.5083 4.21075 19.7629 5.46042 20.6398 6.96519C21.5167 8.46997 21.9854 10.1777 21.9994 11.9192C22.0135 13.6608 21.5725 15.3758 20.72 16.8946C19.8676 18.4133 18.6332 19.6831 17.1392 20.5782C15.6452 21.4733 13.9434 21.9627 12.2021 21.998C10.4608 22.0332 8.74055 21.6131 7.21155 20.7791C5.68256 19.9452 4.39787 18.7264 3.48467 17.2434C2.57146 15.7604 2.06141 14.0646 2.005 12.3239L2 11.9999L2.005 11.6759C2.061 9.94888 2.56355 8.26585 3.46364 6.79089C4.36373 5.31592 5.63065 4.09934 7.14089 3.25977C8.65113 2.42021 10.3531 1.98629 12.081 2.00033C13.8089 2.01437 15.5036 2.47589 17 3.33989ZM12 10.9999H11L10.883 11.0069C10.6299 11.037 10.3979 11.1626 10.2343 11.3581C10.0707 11.5535 9.98789 11.8041 10.0028 12.0585C10.0178 12.3129 10.1293 12.5521 10.3146 12.727C10.5 12.902 10.7451 12.9996 11 12.9999V15.9999L11.007 16.1169C11.0357 16.3601 11.1526 16.5844 11.3356 16.7472C11.5187 16.9099 11.7551 16.9999 12 16.9999H13L13.117 16.9929C13.3603 16.9642 13.5845 16.8473 13.7473 16.6643C13.91 16.4812 14 16.2448 14 15.9999L13.993 15.8829C13.9667 15.6597 13.8659 15.4518 13.707 15.2929C13.5481 15.134 13.3402 15.0332 13.117 15.0069L13 14.9999V11.9999L12.993 11.8829C12.9643 11.6396 12.8474 11.4154 12.6644 11.2526C12.4813 11.0898 12.2449 10.9999 12 10.9999ZM12.01 6.99989L11.883 7.00689C11.6299 7.037 11.3979 7.16261 11.2343 7.35806C11.0707 7.55351 10.9879 7.80406 11.0028 8.0585C11.0178 8.31294 11.1293 8.55208 11.3146 8.72704C11.5 8.90201 11.7451 8.99961 12 8.99989L12.127 8.99289C12.3801 8.96279 12.6121 8.83718 12.7757 8.64173C12.9393 8.44627 13.0221 8.19573 13.0072 7.94129C12.9922 7.68685 12.8807 7.44771 12.6954 7.27274C12.51 7.09777 12.2649 7.00018 12.01 6.99989Z" fill="#6B7280"/>
</g>
<defs>
<clipPath id="clip0_1531_7661">
<rect width="24" height="24" fill="white"/>
</clipPath>
</defs>
</svg>
