<svg xmlns="http://www.w3.org/2000/svg" width="25" height="25" viewBox="0 0 25 25">
  <g id="Group_9308" data-name="Group 9308" transform="translate(-7.889 -6.627)">
    <path id="Path_225" data-name="Path 225" d="M32.889,19.124a12.5,12.5,0,1,1-12.5-12.5A12.5,12.5,0,0,1,32.889,19.124Z" transform="translate(0 0)" fill="#fff"/>
    <g id="Group_9307" data-name="Group 9307" transform="translate(12.848 11.542)">
      <path id="Path_226" data-name="Path 226" d="M23.585,13.255a7.538,7.538,0,0,0-7.34-5.817,9.035,9.035,0,0,0-1.441.154,7.509,7.509,0,0,0-5.149,10.96.49.49,0,0,1,.065.372c-.348,1.146-.673,2.333-.986,3.5-.047.207-.047.207.142.148,1.222-.331,2.427-.638,3.649-.939a.281.281,0,0,1,.266.018,7.533,7.533,0,0,0,10.795-8.391ZM17.3,21.126a3.19,3.19,0,0,1-.868.077,6.483,6.483,0,0,1-3.4-.868.4.4,0,0,0-.384-.065c-.679.171-1.34.348-2.014.52-.142.047-.154.024-.124-.118.177-.626.348-1.258.543-1.907a.479.479,0,0,0-.077-.443,6.2,6.2,0,0,1,.218-7,5.955,5.955,0,0,1,6.366-2.451,5.9,5.9,0,0,1,4.777,4.742A6.2,6.2,0,0,1,17.3,21.126Z" transform="translate(-8.708 -7.438)" fill="#01cf2d" fill-rule="evenodd"/>
      <path id="Path_227" data-name="Path 227" d="M15.11,15.207a2.076,2.076,0,0,1-.779-.106,7.628,7.628,0,0,1-4.069-2.988,4.267,4.267,0,0,1-.874-1.772,2.05,2.05,0,0,1,.673-2.014,1.194,1.194,0,0,1,1-.154,1.1,1.1,0,0,1,.171.207c.213.531.437,1.027.655,1.541a.435.435,0,0,1-.03.319,2.958,2.958,0,0,1-.467.614.283.283,0,0,0-.041.413,4.992,4.992,0,0,0,2.569,2.2.285.285,0,0,0,.384-.083c.195-.218.384-.461.561-.7a.323.323,0,0,1,.419-.112c.372.171.732.348,1.087.508a1.338,1.338,0,0,0,.254.112c.372.189.372.218.325.614-.047.785-.65,1.181-1.34,1.376A1.318,1.318,0,0,1,15.11,15.207Z" transform="translate(-5.606 -4.093)" fill="#01cf2d" fill-rule="evenodd"/>
    </g>
  </g>
</svg>
